<svg xmlns="http://www.w3.org/2000/svg" xmlns:xlink="http://www.w3.org/1999/xlink" width="18" height="18" viewBox="0 0 18 18"><defs><linearGradient id="a" x2="1" y2="1" gradientUnits="objectBoundingBox"><stop offset="0" stop-color="#ffbf78"/><stop offset="0.4" stop-color="#ffbf78"/><stop offset="1" stop-color="#ff9449"/></linearGradient></defs><g transform="translate(-1168 -3344)"><rect width="18" height="18" rx="2" transform="translate(1168 3344)" opacity="0" fill="url(#a)"/><path d="M.72,0A.345.345,0,0,1,.468-.108.345.345,0,0,1,.36-.36L.4-.558,4.86-12.2a.56.56,0,0,1,.576-.4H6.588a.56.56,0,0,1,.576.4L11.628-.558l.036.2a.333.333,0,0,1-.117.252A.376.376,0,0,1,11.286,0H10.44a.444.444,0,0,1-.3-.1A.476.476,0,0,1,9.99-.306L8.982-2.9H3.024L2.034-.306A.473.473,0,0,1,1.584,0ZM3.546-4.392H8.478L6.012-10.854ZM12.99-8.73a.245.245,0,0,1-.173-.063.218.218,0,0,1-.068-.168v-.378a.235.235,0,0,1,.068-.173.235.235,0,0,1,.173-.068h3.15a.235.235,0,0,1,.173.068.235.235,0,0,1,.068.173v.378a.218.218,0,0,1-.068.168.245.245,0,0,1-.173.063Z" transform="translate(1168.64 3359.6)" fill="#fff"/></g></svg>