<svg xmlns="http://www.w3.org/2000/svg" width="24" height="23.999" viewBox="0 0 24 23.999"><path d="M23.275,17.6,20.607,14.93a2.47,2.47,0,0,0-3.486,0l-1.084,1.084a.332.332,0,0,1-.087-.046c-4.5-3.2-4.718-3.427-7.923-7.923a.333.333,0,0,1-.046-.087L9.065,6.874a2.47,2.47,0,0,0,0-3.486L6.4.72A2.47,2.47,0,0,0,2.91.72L1.6,2.028A5.478,5.478,0,0,0,0,6.065a6.886,6.886,0,0,0,1.549,4.1A62.042,62.042,0,0,0,13.834,22.448,6.864,6.864,0,0,0,17.946,24h.105a5.521,5.521,0,0,0,3.937-1.627l1.287-1.287a2.468,2.468,0,0,0,0-3.486Zm-1.061,2.426-1.287,1.287a4.034,4.034,0,0,1-2.894,1.19,5.267,5.267,0,0,1-3.263-1.224A60.2,60.2,0,0,1,2.719,9.225C1.1,7.2,1.076,4.675,2.663,3.089L3.971,1.781a.97.97,0,0,1,1.365,0L8,4.449A.97.97,0,0,1,8,5.814L6.886,6.932a1.517,1.517,0,0,0-.08,1.984c3.282,4.6,3.669,4.991,8.273,8.273a1.517,1.517,0,0,0,1.984-.08l1.118-1.118a.966.966,0,0,1,1.365,0l2.668,2.668A.966.966,0,0,1,22.215,20.024Z" transform="translate(0.004)"/></svg>