<svg xmlns="http://www.w3.org/2000/svg" width="2012" height="1326" viewBox="0 0 2012 1326"><g transform="translate(-144 -430)"><circle cx="570" cy="570" r="570" transform="translate(830 430)" fill="#db7093" opacity="0.05"/><path d="M12-3.5A15.5,15.5,0,1,1-3.5,12,15.518,15.518,0,0,1,12-3.5Zm0,24A8.5,8.5,0,1,0,3.5,12,8.51,8.51,0,0,0,12,20.5Z" transform="translate(678 788)" fill="purple" opacity="0.4"/><path d="M12-3.5A15.5,15.5,0,1,1-3.5,12,15.518,15.518,0,0,1,12-3.5Zm0,24A8.5,8.5,0,1,0,3.5,12,8.51,8.51,0,0,0,12,20.5Z" transform="translate(788 648)" fill="#4b7da0" opacity="0.4"/><path d="M16-5A21,21,0,1,1-5,16,21.024,21.024,0,0,1,16-5Zm0,32A11,11,0,1,0,5,16,11.012,11.012,0,0,0,16,27Z" transform="translate(1084 634)" fill="#ffc113" opacity="0.4"/><path d="M300-6C468.729-6,606,131.271,606,300S468.729,606,300,606-6,468.729-6,300,131.271-6,300-6Zm0,600c162.112,0,294-131.888,294-294S462.112,6,300,6,6,137.888,6,300,137.888,594,300,594Z" transform="translate(150 750)" fill="green" opacity="0.22"/><path d="M220-6C344.617-6,446,95.383,446,220S344.617,446,220,446-6,344.617-6,220,95.383-6,220-6Zm0,440c118,0,214-96,214-214S338,6,220,6,6,102,6,220,102,434,220,434Z" transform="translate(1230 580)" fill="red" opacity="0.25"/><path d="M550-6c306.579,0,556,249.421,556,556s-249.421,556-556,556S-6,856.579-6,550,243.421-6,550-6Zm0,1100c299.963,0,544-244.037,544-544S849.963,6,550,6,6,250.037,6,550,250.037,1094,550,1094Z" transform="translate(1050 650)" fill="#ffc113" opacity="0.3"/></g></svg>