<svg xmlns="http://www.w3.org/2000/svg" width="2750" height="3150" viewBox="0 0 2750 3150"><g transform="translate(410 1280)"><rect width="1920" height="1080" fill="#212933"/><path d="M190-6C298.075-6,386,81.925,386,190S298.075,386,190,386-6,298.075-6,190,81.925-6,190-6Zm0,380c101.458,0,184-82.542,184-184S291.458,6,190,6,6,88.542,6,190,88.542,374,190,374Z" transform="translate(1210 430)" fill="#5288da" opacity="0.5"/><path d="M180-5.5C282.285-5.5,365.5,77.715,365.5,180S282.285,365.5,180,365.5-5.5,282.285-5.5,180,77.715-5.5,180-5.5Zm0,360c96.22,0,174.5-78.28,174.5-174.5S276.22,5.5,180,5.5,5.5,83.78,5.5,180,83.78,354.5,180,354.5Z" transform="translate(270 670)" fill="#30b5fe" opacity="0.4"/><path d="M12-4A16,16,0,1,1-4,12,16.018,16.018,0,0,1,12-4Zm0,24a8,8,0,1,0-8-8A8.009,8.009,0,0,0,12,20Z" transform="translate(648 738)" fill="#244260" opacity="0.6"/><path d="M16-4A20,20,0,1,1-4,16,20.023,20.023,0,0,1,16-4Zm0,32A12,12,0,1,0,4,16,12.014,12.014,0,0,0,16,28Z" transform="translate(1084 584)" fill="#3a7ca1" opacity="0.4"/><path d="M18-5A23,23,0,1,1-5,18,23.026,23.026,0,0,1,18-5Zm0,36A13,13,0,1,0,5,18,13.015,13.015,0,0,0,18,31Z" transform="translate(912 912)" fill="#34425e" opacity="0.5"/><path d="M14-4A18,18,0,1,1-4,14,18.02,18.02,0,0,1,14-4Zm0,28A10,10,0,1,0,4,14,10.011,10.011,0,0,0,14,24Z" transform="translate(666 566)" fill="#4b7ca1" opacity="0.3"/><circle cx="570" cy="570" r="570" transform="translate(1200 430)" fill="#26303d" opacity="0.9"/><circle cx="570" cy="570" r="570" transform="translate(-410 730)" fill="#2b3442" opacity="0.9"/><circle cx="900" cy="900" r="900" transform="translate(-250 -1280)" fill="#2b3442" opacity="0.9"/></g></svg>