<svg xmlns="http://www.w3.org/2000/svg" width="48" height="48" viewBox="0 0 48 48"><g transform="translate(-1419 -2377)"><rect width="48" height="48" transform="translate(1419 2377)" fill="#51cf66" opacity="0"/><g transform="translate(1419.55 2377.55)"><path d="M240.447,83.808l-3.129-.471-1.415-2.83a.916.916,0,0,0-1.639,0l-1.415,2.83-3.129.471a.916.916,0,0,0-.506,1.559l2.254,2.22-.519,3.122a.916.916,0,0,0,1.326.963l2.809-1.458,2.809,1.458a.916.916,0,0,0,1.326-.963l-.519-3.122,2.254-2.22a.916.916,0,0,0-.506-1.559Zm-3.373,2.807a.916.916,0,0,0-.261.8l.3,1.783-1.6-.833a.916.916,0,0,0-.844,0l-1.6.833.3-1.783a.916.916,0,0,0-.261-.8L231.8,85.347l1.788-.269a.916.916,0,0,0,.683-.5l.808-1.617.808,1.617a.916.916,0,0,0,.683.5l1.788.269Z" transform="translate(-207.969 -72.672)" fill="#51cf66"/><circle cx="0.916" cy="0.916" r="0.916" transform="translate(45.069 20.153)" fill="#51cf66"/><path d="M45.985,10.992H39.023V4.58a.916.916,0,0,0-.916-.916H20.7V.916A.916.916,0,0,0,19.786,0H16.122a.916.916,0,0,0-.916.916v25.9a5.866,5.866,0,0,0-3.863,2.4A15.046,15.046,0,0,1,9.756,30.9a4.549,4.549,0,0,1-3.238,1.341H.916A.916.916,0,0,0,0,33.16v9.16a.916.916,0,0,0,.916.916h5.5A7.5,7.5,0,0,0,12.89,46.9H23.45A2.746,2.746,0,0,0,26,43.14a2.746,2.746,0,0,0,1.832-3.664,2.748,2.748,0,0,0,0-5.3,2.746,2.746,0,0,0-2.554-3.761h-.916V29.5a2.751,2.751,0,0,0-2.748-2.748H20.7V23.817h9.16V28.4a2.751,2.751,0,0,0,2.748,2.748H45.985a.916.916,0,0,0,.916-.916V25.191a.916.916,0,0,0-1.832,0v4.122H32.611a.916.916,0,1,1,0-1.832h3.664a2.751,2.751,0,0,0,2.748-2.748V12.824h6.046v4.122a.916.916,0,1,0,1.832,0V11.908A.916.916,0,0,0,45.985,10.992ZM18.87,1.832V3.664H17.038V1.832ZM1.832,34.076H3.664V41.4H1.832ZM26.2,33.16a.917.917,0,0,1-.916.916H23.45a.916.916,0,1,0,0,1.832h3.664a.916.916,0,1,1,0,1.832H23.45a.916.916,0,1,0,0,1.832h1.832a.916.916,0,0,1,0,1.832H23a.916.916,0,1,0,0,1.832h.45a.916.916,0,1,1,0,1.832H12.89a5.682,5.682,0,0,1-5.109-3.158.916.916,0,0,0-.819-.506H5.5V34.076H6.518A6.369,6.369,0,0,0,11.051,32.2a16.016,16.016,0,0,0,1.787-1.918,4.03,4.03,0,0,1,2.368-1.594v2.641a.916.916,0,0,0,.916.916h9.16A.917.917,0,0,1,26.2,33.16Zm-4.58-4.58a.917.917,0,0,1,.916.916v.916H20.7V28.58ZM18.87,30.412H17.038v-6.6H18.87Zm17.4-4.763H32.611a2.735,2.735,0,0,0-.916.158v-1.99h4.58a.916.916,0,1,1,0,1.832Zm.916-3.507a2.737,2.737,0,0,0-.916-.157H17.038V5.5H37.191Z" transform="translate(0)" fill="#51cf66"/></g></g></svg>