<svg xmlns="http://www.w3.org/2000/svg" width="48" height="48" viewBox="0 0 48 48"><g transform="translate(-2241 -2377)"><rect width="48" height="48" transform="translate(2241 2377)" fill="#51cf66" opacity="0"/><g transform="translate(2241.55 2379.015)"><path d="M43.237,27.085V18.748a2.748,2.748,0,1,0-5.5,0v1.218L25.1,25.16H12.458a.916.916,0,0,0-.916.916v.916H6.962a.916.916,0,0,0-.916.916v7.328a.916.916,0,0,0,.916.916h4.58v.916a.916.916,0,0,0,.916.916h2.748v1.9a5.866,5.866,0,0,0-3.863,2.4,15.043,15.043,0,0,1-1.587,1.681,4.549,4.549,0,0,1-3.238,1.341H.916A.916.916,0,0,0,0,46.229v9.16a.916.916,0,0,0,.916.916h5.5a7.5,7.5,0,0,0,6.47,3.664H23.45A2.746,2.746,0,0,0,26,56.209a2.746,2.746,0,0,0,1.832-3.664,2.748,2.748,0,0,0,0-5.3,2.746,2.746,0,0,0-2.554-3.761H22.534v-5.5H25.1L37.74,43.179V44.4a2.748,2.748,0,0,0,5.5,0V36.061a4.581,4.581,0,0,0,0-8.976ZM7.878,34.321V32.489h.916a.916.916,0,1,0,0-1.832H7.878V28.824h3.664v5.5Zm5.5-7.328H24.366v9.16H13.374ZM1.832,47.145H3.664v7.328H1.832ZM26.2,46.229a.917.917,0,0,1-.916.916H23.45a.916.916,0,0,0,0,1.832h3.664a.916.916,0,1,1,0,1.832H23.45a.916.916,0,0,0,0,1.832h1.832a.916.916,0,1,1,0,1.832H23a.916.916,0,1,0,0,1.832h.45a.916.916,0,0,1,0,1.832H12.89a5.682,5.682,0,0,1-5.109-3.158.916.916,0,0,0-.819-.506H5.5V47.145H6.518a6.37,6.37,0,0,0,4.534-1.878,16,16,0,0,0,1.787-1.918,4.03,4.03,0,0,1,2.368-1.594V44.4a.916.916,0,0,0,.916.916h9.16A.917.917,0,0,1,26.2,46.229Zm-5.5-2.748H17.038v-5.5H20.7Zm20.7.916a.916.916,0,0,1-1.832,0v-8.7a.916.916,0,0,0-1.832,0v5.5L26.2,36.455V26.69L37.74,21.947v5.5a.916.916,0,1,0,1.832,0v-8.7a.916.916,0,1,1,1.832,0Zm1.832-10.234V28.982a2.748,2.748,0,0,1,0,5.181Z" transform="translate(0 -16)" fill="#51cf66"/><circle cx="0.916" cy="0.916" r="0.916" transform="translate(37.74 14.656)" fill="#51cf66"/></g></g></svg>