<svg xmlns="http://www.w3.org/2000/svg" width="48" height="48" viewBox="0 0 48 48"><path d="M44.987,31.86V7.431A7.44,7.44,0,0,0,37.556,0H7.431A7.44,7.44,0,0,0,0,7.431V34.544a7.44,7.44,0,0,0,7.431,7.431H24.924l5.613,5.613a1.406,1.406,0,0,0,.994.412h12.05A4.417,4.417,0,0,0,48,43.581V36.05a4.412,4.412,0,0,0-3.012-4.19ZM23.759,35.808l-.008.008a3.53,3.53,0,0,0-.926,3.347H7.431a4.624,4.624,0,0,1-4.619-4.619V7.431A4.624,4.624,0,0,1,7.431,2.812H37.556a4.624,4.624,0,0,1,4.619,4.619v24.2H38.962V27.012a4.419,4.419,0,0,0-8.838,0v7.933A5.319,5.319,0,0,0,23.759,35.808Zm21.428,7.773a1.606,1.606,0,0,1-1.606,1.606H32.114l-6.366-6.366a.723.723,0,0,1,0-1.024l.005-.005a2.5,2.5,0,0,1,3.138-.306l1.86,1.24a1.406,1.406,0,0,0,2.187-1.17V27.012a1.606,1.606,0,0,1,3.213,0v6.025a1.406,1.406,0,0,0,1.406,1.406h6.025a1.606,1.606,0,0,1,1.606,1.606Z" fill="#22b8cf"/><path d="M187.679,241h-1.506a1.406,1.406,0,0,0-1.406,1.406V252.95a1.406,1.406,0,0,0,2.813,0v-1.606h.1A5.172,5.172,0,0,0,187.679,241Zm0,7.531h-.1v-4.719h.1A2.359,2.359,0,0,1,187.679,248.531Z" transform="translate(-167.444 -218.406)" fill="#22b8cf"/><path d="M171.512,76.3V65.759a1.406,1.406,0,0,0-2.812,0V76.3A1.406,1.406,0,0,0,171.512,76.3Z" transform="translate(-152.884 -58.328)" fill="#22b8cf"/><path d="M330.773,77.622a1.406,1.406,0,0,0,1.406-1.406V71.629l2.608,5.216a1.406,1.406,0,0,0,2.664-.629V65.672a1.406,1.406,0,0,0-2.812,0v4.587l-2.608-5.216a1.406,1.406,0,0,0-2.664.629V76.216A1.406,1.406,0,0,0,330.773,77.622Z" transform="translate(-298.489 -58.241)" fill="#22b8cf"/><path d="M78.978,241a1.406,1.406,0,0,0-1.406,1.406v7.908a1.23,1.23,0,0,1-2.459,0v-7.908a1.406,1.406,0,0,0-2.812,0v7.908a4.042,4.042,0,0,0,8.084,0v-7.908A1.406,1.406,0,0,0,78.978,241Z" transform="translate(-65.522 -218.406)" fill="#22b8cf"/><path d="M68.564,72.35a1.23,1.23,0,0,1,0,2.459H66.679a1.406,1.406,0,0,0,0,2.812h1.884a4.042,4.042,0,1,0,0-8.084,1.23,1.23,0,0,1,0-2.459h1.883a1.406,1.406,0,0,0,0-2.812H68.562a4.042,4.042,0,0,0,0,8.084Z" transform="translate(-58.495 -58.241)" fill="#22b8cf"/><path d="M232.264,72.682a1.406,1.406,0,0,0-1.406-1.406H230.1a1.409,1.409,0,0,0-.653,2.652v.261a.853.853,0,0,1-1.706,0V68.163a.853.853,0,0,1,1.706,0h0a1.406,1.406,0,0,0,2.813,0,3.666,3.666,0,0,0-7.331,0v6.025a3.666,3.666,0,0,0,7.331,0Z" transform="translate(-203.846 -58.473)" fill="#22b8cf"/></svg>