<svg xmlns="http://www.w3.org/2000/svg" width="49.638" height="74.191" viewBox="0 0 49.638 74.191"><g transform="translate(-764.115 -1839.339)"><g transform="translate(764.365 1839.59)"><path d="M970.991,530.269a1.077,1.077,0,0,0,1.077-1.077h0v-1.732a1.082,1.082,0,1,0-2.164,0v1.732a1.077,1.077,0,0,0,1.077,1.077Z" transform="translate(-941.61 -509.399)" fill="#51cf66" stroke="#fef0f5" stroke-width="0.5"/><path d="M964.834,530.269a1.077,1.077,0,0,0,1.077-1.077v-1.732a1.082,1.082,0,1,0-2.164,0v1.732a1.077,1.077,0,0,0,1.077,1.077Z" transform="translate(-944.922 -509.399)" fill="#51cf66" stroke="#fef0f5" stroke-width="0.5"/><path d="M964.529,537.323a6.289,6.289,0,0,0,5.195-1.4,5.784,5.784,0,0,0,4.058,1.49,6.405,6.405,0,0,0,1.136-.092,1.078,1.078,0,0,0,.858-.872,6.326,6.326,0,0,0-1.077-5.39,7.091,7.091,0,0,0-9.964,0,6.326,6.326,0,0,0-1.076,5.39A1.079,1.079,0,0,0,964.529,537.323Zm1.872-4.874a4.98,4.98,0,0,1,6.647,0,3.786,3.786,0,0,1,.7,2.807,3.368,3.368,0,0,1-3.076-1.625,1.075,1.075,0,0,0-1.9,0,3.368,3.368,0,0,1-3.076,1.625,3.786,3.786,0,0,1,.7-2.813Z" transform="translate(-945.076 -507.98)" fill="#51cf66" stroke="#fef0f5" stroke-width="0.5"/><path d="M966.949,524.564a1.082,1.082,0,0,0,0,2.164h2.945a1.082,1.082,0,1,0,0-2.164Z" transform="translate(-943.781 -510.375)" fill="#51cf66" stroke="#fef0f5" stroke-width="0.5"/><path d="M966.511,524.395h4.306a1.082,1.082,0,1,0,0-2.164h-4.306a1.082,1.082,0,0,0,0,2.164Z" transform="translate(-944.017 -511.63)" fill="#51cf66" stroke="#fef0f5" stroke-width="0.5"/><path d="M995.235,561.782h-1.276a23.771,23.771,0,0,0-7.554-11.216,19.948,19.948,0,0,0-3.206-2.119,11.767,11.767,0,0,0,4.64-8.021,5.2,5.2,0,0,0,.58.037,4.656,4.656,0,0,0,3.327-7.915,16.791,16.791,0,0,0-2.064-9.286,1.081,1.081,0,1,0-1.882,1.064,14.357,14.357,0,0,1,1.808,6.974,4.618,4.618,0,0,0-1.187-.154,4.542,4.542,0,0,0-.644.046,11.785,11.785,0,0,0-11.617-9.893h0a11.785,11.785,0,0,0-11.617,9.893,4.625,4.625,0,0,0-1.833.108,13.819,13.819,0,0,1,3.616-9.455,13.284,13.284,0,0,1,18.768-.88c.075.068.151.138.225.209A1.082,1.082,0,1,0,986.8,519.6a15.446,15.446,0,0,0-21.839.541c-.075.077-.149.157-.222.237a16.15,16.15,0,0,0-4.171,12.171,4.656,4.656,0,0,0,3.327,7.914,5.213,5.213,0,0,0,.58-.037,11.77,11.77,0,0,0,4.638,8.02,21.1,21.1,0,0,0-6.511,5.427,1.082,1.082,0,0,0,1.682,1.359,19.813,19.813,0,0,1,2.342-2.439l4.46,7.179a1.089,1.089,0,0,0,1.495.344l3.573-2.245,3.573,2.245a1.088,1.088,0,0,0,1.495-.344l4.467-7.182a21.406,21.406,0,0,1,5.982,8.992H960.638a24.313,24.313,0,0,1,1.384-3.123,1.082,1.082,0,1,0-1.91-1.017,26.789,26.789,0,0,0-1.762,4.145h-1.435a5.414,5.414,0,0,0-5.409,5.409v16.429a5.416,5.416,0,0,0,5.409,5.409h26.874a1.082,1.082,0,1,0,0-2.164H956.916a3.249,3.249,0,0,1-3.245-3.245V567.187a3.247,3.247,0,0,1,3.245-3.245h38.319a3.248,3.248,0,0,1,3.245,3.245v16.432a3.249,3.249,0,0,1-3.245,3.245h-7.117a1.082,1.082,0,0,0,0,2.164h7.117a5.415,5.415,0,0,0,5.409-5.409V567.187A5.414,5.414,0,0,0,995.235,561.782Zm-7.3-28.427a2.494,2.494,0,1,1,0,4.894Zm-23.546,4.9a2.494,2.494,0,1,1-.97-4.893,2.448,2.448,0,0,1,.97,0Zm2.164.769v-5.956a9.605,9.605,0,1,1,19.211-.012v5.968a9.605,9.605,0,1,1-19.211.012Zm5.8,18.883-4.015-6.459a16.608,16.608,0,0,1,2.614-1.495l3.745,6.474Zm3.8-3.274-2.358-4.075a11.824,11.824,0,0,0,4.717,0Zm3.8,3.274-2.345-1.475,3.746-6.476a16.469,16.469,0,0,1,2.614,1.493Z" transform="translate(-951.506 -515.337)" fill="#51cf66" stroke="#fef0f5" stroke-width="0.5"/><path d="M976.975,551.795a1.076,1.076,0,0,0-1.077,1.077h0v1.845h-1.845a1.082,1.082,0,0,0,0,2.164H975.9v1.845a1.082,1.082,0,0,0,2.164,0v-1.845h1.845a1.082,1.082,0,1,0,0-2.164h-1.845v-1.845a1.076,1.076,0,0,0-1.077-1.077Z" transform="translate(-939.96 -495.728)" fill="#51cf66" stroke="#fef0f5" stroke-width="0.5"/><g transform="translate(10.414 52.996)" style="isolation:isolate"><g style="isolation:isolate"><path d="M962.965,563.879a3.944,3.944,0,0,1-3.3-1.661,8.258,8.258,0,0,1-1.384-5.112,8.645,8.645,0,0,1,1.569-5.612,4.325,4.325,0,0,1,3.562-1.7,4.485,4.485,0,0,1,2.824.941.713.713,0,0,1,.038,1.126.884.884,0,0,1-1.367.072,2.707,2.707,0,0,0-3.634.74,7.31,7.31,0,0,0-1.016,4.041,4.477,4.477,0,0,1,1.4-1.144,3.341,3.341,0,0,1,1.549-.424,3.63,3.63,0,0,1,2.768,1.052,4.555,4.555,0,0,1,1.053,3.23,4.483,4.483,0,0,1-1.2,3.229A3.8,3.8,0,0,1,962.965,563.879Zm-.019-1.626a1.82,1.82,0,0,0,1.495-.755,3.244,3.244,0,0,0,.609-2.067,3.143,3.143,0,0,0-.571-2.03,2.024,2.024,0,0,0-1.662-.7,3.113,3.113,0,0,0-2.528,1.586,6.041,6.041,0,0,0,.868,2.991A2.088,2.088,0,0,0,962.947,562.253Z" transform="translate(-958.278 -549.798)" fill="#51cf66" stroke="#fef0f5" stroke-width="0.5"/><path d="M969.175,563.788a6.015,6.015,0,0,1-3.948-1.367.724.724,0,0,1-.278-.517,1.043,1.043,0,0,1,.24-.552c.371-.5.775-.56,1.22-.166a4.111,4.111,0,0,0,2.508.867,2.525,2.525,0,0,0,1.919-.775,2.92,2.92,0,0,0,.775-2.132,2.959,2.959,0,0,0-.7-2.095,2.479,2.479,0,0,0-1.882-.738,3.327,3.327,0,0,0-1.587.4.965.965,0,0,1-1.107.038l-.055-.038a.882.882,0,0,1-.424-.866l.3-4.743a1.149,1.149,0,0,1,.351-.831,1.21,1.21,0,0,1,.866-.314h4.855a.783.783,0,0,1,.886.886.791.791,0,0,1-.886.9h-4.151l-.317,3.486a4.282,4.282,0,0,1,4.781.574,4.264,4.264,0,0,1,1.218,3.266,4.589,4.589,0,0,1-1.4,3.488A4.463,4.463,0,0,1,969.175,563.788Z" transform="translate(-954.69 -549.708)" fill="#51cf66" stroke="#fef0f5" stroke-width="0.5"/></g></g></g></g></svg>