<svg xmlns="http://www.w3.org/2000/svg" width="47.903" height="48" viewBox="0 0 47.903 48"><g transform="translate(-0.52)"><path d="M290.086,96.4a1.406,1.406,0,0,0-1.406,1.406v9.037a1.406,1.406,0,0,0,2.813,0V97.806A1.406,1.406,0,0,0,290.086,96.4Z" transform="translate(-261.145 -87.363)" fill="#22b8cf"/><path d="M346.32,108.293a1.406,1.406,0,0,0,1.406-1.406v-3.836l2.651,4.545a1.406,1.406,0,0,0,2.621-.709V97.849a1.406,1.406,0,0,0-2.812,0v3.836l-2.651-4.544a1.409,1.409,0,0,0-2.621.709v9.037a1.406,1.406,0,0,0,1.406,1.406Z" transform="translate(-312.107 -87.406)" fill="#22b8cf"/><path d="M180.255,96.4a4.047,4.047,0,0,0-4.042,4.042v3.766a4.042,4.042,0,0,0,8.084,0v-3.766A4.047,4.047,0,0,0,180.255,96.4Zm1.23,7.808a1.23,1.23,0,0,1-2.459,0v-3.766a1.23,1.23,0,0,1,2.459,0Z" transform="translate(-159.222 -87.363)" fill="#22b8cf"/><path d="M70.424,96.4H68.165a1.406,1.406,0,0,0,0,2.812h.853v5a1.23,1.23,0,0,1-2.459,0,1.406,1.406,0,0,0-2.812,0,4.042,4.042,0,0,0,8.084,0v-6.4A1.406,1.406,0,0,0,70.424,96.4Z" transform="translate(-57.299 -87.363)" fill="#22b8cf"/><path d="M44,31.631H39.385V28.7C54.087,22.16,49.761.257,33.46,0H15.385c-19.828.755-19.812,29.177,0,29.925H30.547v5.02a5.331,5.331,0,0,0-6.373.87,3.534,3.534,0,0,0,.007,4.994l6.778,6.778a1.406,1.406,0,0,0,.994.412H44a4.417,4.417,0,0,0,4.419-4.419V36.05A4.417,4.417,0,0,0,44,31.631ZM15.385,27.112c-16.1-.613-16.088-23.693,0-24.3H33.46c12.663.1,16.707,16.954,5.721,22.866a4.424,4.424,0,0,0-8.633,1.334v.1ZM45.61,43.581A1.606,1.606,0,0,1,44,45.187H32.536L26.17,38.821a.723.723,0,0,1,0-1.024,2.505,2.505,0,0,1,3.143-.311l1.86,1.24a1.406,1.406,0,0,0,2.187-1.17V27.012a1.606,1.606,0,0,1,3.213,0v6.025a1.406,1.406,0,0,0,1.406,1.406H44A1.606,1.606,0,0,1,45.61,36.05v7.531Z" transform="translate(0)" fill="#22b8cf"/></g></svg>