<svg xmlns="http://www.w3.org/2000/svg" width="64.251" height="64.261" viewBox="0 0 64.251 64.261"><g transform="translate(-199.875 -1851.746)"><g transform="translate(200 1851.871)"><path d="M96.911,62.9l-.839-4.705A8.593,8.593,0,0,0,90.048,51.4l-3.241-.974a2.026,2.026,0,0,0-2.211.733l-1.788-.542-.332-2.844a20.254,20.254,0,0,0,3.727-4,12.289,12.289,0,0,0,1.25-2.086,4.568,4.568,0,0,0,4.13-4.54,3.568,3.568,0,0,0-1.97-3.187c1.474-1.9,1.79-5.061.7-8.5a.938.938,0,1,0-1.787.568c.9,2.822.693,5.428-.42,6.815a6.828,6.828,0,0,0-2.828-3.536,8.665,8.665,0,0,0-4.794-1.143A10.437,10.437,0,0,1,72.4,24.887l-.038-.369h.622a12.245,12.245,0,0,0,9.725-4.8A8.4,8.4,0,0,1,86.653,22.5a.938.938,0,0,0,1.461-1.176A10.434,10.434,0,0,0,83.756,18.1,12.256,12.256,0,0,0,72.979,0H68.162a.937.937,0,0,0,0,1.875h4.817a10.384,10.384,0,0,1,0,20.768H51.759a3.93,3.93,0,0,0-5.541,0H45.185a10.309,10.309,0,0,1-6.069-1.957.938.938,0,1,0-1.1,1.52,12.17,12.17,0,0,0,7.142,2.311,3.938,3.938,0,1,0,7.656,0h9.545a11.059,11.059,0,0,0-.843,4.387,8.924,8.924,0,0,0,1.611,5.265,3.564,3.564,0,0,0-1.611,2.979,4.568,4.568,0,0,0,4.137,4.541A11.966,11.966,0,0,0,66.9,43.776a20.255,20.255,0,0,0,3.728,4l-.336,2.87-1.771.533a2.028,2.028,0,0,0-2.224-.75l-3.242.974a9.069,9.069,0,0,0-3.985,2.54,8.631,8.631,0,0,0-2.039,4.249L56.19,62.9a.937.937,0,1,0,1.846.329l.84-4.713a6.76,6.76,0,0,1,1.59-3.324,7.179,7.179,0,0,1,3.127-1.994l3.242-.974a.147.147,0,0,1,.13.02.141.141,0,0,1,.063.11,43.729,43.729,0,0,0,2.715,11.057.938.938,0,0,0,1.743-.692A44.283,44.283,0,0,1,68.969,53l1.258-.378a4.467,4.467,0,0,0,.926,2.121,5.677,5.677,0,0,0,.942.924.937.937,0,1,0,1.149-1.482,3.81,3.81,0,0,1-.631-.618,2.647,2.647,0,0,1-.547-1.961l.309-2.64a7.76,7.76,0,0,0,8.353,0l.308,2.641a2.647,2.647,0,0,1-.547,1.96,4.673,4.673,0,0,1-3.7,1.581.937.937,0,0,0,.026,1.875h.027a6.465,6.465,0,0,0,5.11-2.279,4.469,4.469,0,0,0,.929-2.144l1.263.383a36.443,36.443,0,0,1-.658,4.327l-.837,3.013a17.212,17.212,0,0,1-.988,2.308.938.938,0,1,0,1.66.871,19.093,19.093,0,0,0,1.108-2.591c.007-.019.012-.038.018-.057l.853-3.067c0-.017.009-.034.013-.051a38.843,38.843,0,0,0,.765-5.381.141.141,0,0,1,.063-.11.146.146,0,0,1,.13-.02l3.241.974a6.73,6.73,0,0,1,4.718,5.323l.839,4.709a.937.937,0,1,0,1.846-.329ZM88.1,39.606a23.887,23.887,0,0,0,.267-4.108,1.693,1.693,0,0,1,1.337,1.652A2.689,2.689,0,0,1,88.1,39.606ZM48.988,27.5a2.062,2.062,0,1,1,2.062-2.062A2.065,2.065,0,0,1,48.988,27.5Zm21.484-2.982.072.7c-.591,1.806-1.278,3.172-2.621,3.961a6.214,6.214,0,0,0-3.044,4.1c-.965-.772-1.487-2.845-1.487-4.374a8.62,8.62,0,0,1,1.066-4.387h6.013ZM63.393,37.15a1.693,1.693,0,0,1,1.363-1.657,24.488,24.488,0,0,0,.261,4.124,2.69,2.69,0,0,1-1.624-2.466Zm5.024,5.528c-1.718-2.377-1.789-3.653-1.789-8.156A4.288,4.288,0,0,1,68.874,30.8a7.362,7.362,0,0,0,3.033-3.828,12.113,12.113,0,0,0,8.512,3.074,6.9,6.9,0,0,1,3.834.84A4.625,4.625,0,0,1,86.5,34.522c0,4.646-.157,5.86-1.815,8.156-2.585,3.578-5.549,5.629-8.133,5.629S71,46.256,68.418,42.678Z" transform="translate(-32.926 0)" fill="#51cf66" stroke="#fef0f5" stroke-width="0.25"/><path d="M1.875,12.259A10.4,10.4,0,0,1,12.259,1.875H30.8A.937.937,0,0,0,30.8,0H12.259A12.261,12.261,0,0,0,1.847,18.732a.938.938,0,1,0,1.591-.991A10.357,10.357,0,0,1,1.875,12.259Z" transform="translate(0 0)" fill="#51cf66" stroke="#fef0f5" stroke-width="0.25"/><path d="M372.938,273a.937.937,0,0,0-.938.938v1.625a.938.938,0,0,0,1.875,0v-1.625A.937.937,0,0,0,372.938,273Z" transform="translate(-325.5 -238.875)" fill="#51cf66" stroke="#fef0f5" stroke-width="0.25"/><path d="M312.937,273a.937.937,0,0,0-.937.938v1.625a.938.938,0,0,0,1.875,0v-1.625A.937.937,0,0,0,312.937,273Z" transform="translate(-273 -238.875)" fill="#51cf66" stroke="#fef0f5" stroke-width="0.25"/><path d="M336.514,336.639a6.044,6.044,0,0,0-4.942,1.707.937.937,0,0,0,1.318,1.333A4.169,4.169,0,0,1,336.3,338.5a.938.938,0,0,0,.214-1.863Z" transform="translate(-289.882 -294.525)" fill="#51cf66" stroke="#fef0f5" stroke-width="0.25"/><path d="M172.625,213.812a2.812,2.812,0,1,0-2.812,2.812A2.816,2.816,0,0,0,172.625,213.812Zm-3.75,0a.938.938,0,1,1,.937.937A.938.938,0,0,1,168.875,213.812Z" transform="translate(-146.125 -184.625)" fill="#51cf66" stroke="#fef0f5" stroke-width="0.25"/><path d="M335.076,307.718a2.655,2.655,0,0,0,2.915,0,.938.938,0,0,0-1.04-1.56.792.792,0,0,1-.835,0,.937.937,0,0,0-1.04,1.56Z" transform="translate(-292.826 -267.75)" fill="#51cf66" stroke="#fef0f5" stroke-width="0.25"/><path d="M80.445,31.023A6.417,6.417,0,0,0,79.9,30.2,8.578,8.578,0,0,0,73,27.4a6.035,6.035,0,0,0-4.293,1.831,7.722,7.722,0,0,0-6.316.643,6.712,6.712,0,0,0-2.9,3.212,2.448,2.448,0,0,1-.164-2.1.937.937,0,0,0-1.75-.673,4.288,4.288,0,0,0,.07,3.3,3.634,3.634,0,0,0,1.411,1.605,5.777,5.777,0,0,0,.182,1.48A6.208,6.208,0,0,0,62.755,40.8a8.191,8.191,0,0,0,1.783.584c.622,1.682,2.807,2.947,5,2.928a5.734,5.734,0,0,0,4.6-2.308,3.637,3.637,0,0,0,.678-1.982,12.664,12.664,0,0,0,3.908,2.29,8.032,8.032,0,0,0,4.641.15,7.684,7.684,0,0,0,6.051.227,7.5,7.5,0,0,0,4.414-4.31,6.374,6.374,0,0,0-1.411-6.533,7.089,7.089,0,0,0-3.492-2,12.822,12.822,0,0,0-1.806-2.536.937.937,0,1,0-1.391,1.257,12.226,12.226,0,0,1,.817,1,15.131,15.131,0,0,0-4.532.792A10.1,10.1,0,0,0,80.445,31.023ZM63.332,31.5a5.88,5.88,0,0,1,4.2-.65c-1.927,2.435-4.476,3.378-6.38,3.117A4.912,4.912,0,0,1,63.332,31.5Zm.959,6.034a5.219,5.219,0,0,0-.222,1.792,4.49,4.49,0,0,1-3.1-3.489,7.646,7.646,0,0,0,4.011-.656,10.7,10.7,0,0,0,4.323-3.568,5.831,5.831,0,0,1,.844.683,9.462,9.462,0,0,1,1.8,2.971,5.579,5.579,0,0,0-5.807,0A3.706,3.706,0,0,0,64.291,37.531Zm1.7,2.174a3.544,3.544,0,0,1,.089-1.613,1.85,1.85,0,0,1,.911-1.156c2.329-1.19,3.718-.469,5.393.952a8.573,8.573,0,0,1-3.237,1.537A11.145,11.145,0,0,1,65.991,39.7Zm6.677,1.148a3.86,3.86,0,0,1-3.507,1.57,4.207,4.207,0,0,1-2.2-.834,13.809,13.809,0,0,0,2.6-.334,10.073,10.073,0,0,0,3.426-1.5A1.936,1.936,0,0,1,72.668,40.853Zm1.621-4.6-.01-.032a13.449,13.449,0,0,0-2.823-5.268,7.871,7.871,0,0,0-.979-.812,4.683,4.683,0,0,1,2.614-.865,6.714,6.714,0,0,1,5.326,2.074,4.5,4.5,0,0,1,.433.671,28.908,28.908,0,0,0-3.376,3.056C75.078,35.473,74.685,35.868,74.29,36.249Zm5.055,4.3a12.27,12.27,0,0,1-4.1-2.621c.533-.5,1.047-1.015,1.556-1.528a33.9,33.9,0,0,1,2.563-2.409c.035.484.029.985.022,1.511-.023,1.737-.049,3.651,1.65,5.354A5.722,5.722,0,0,1,79.345,40.544Zm10.494-8.355a4.857,4.857,0,0,1,1.219.942A4.52,4.52,0,0,1,92.093,37.7a5.646,5.646,0,0,1-3.327,3.241,6.029,6.029,0,0,1-2.744.361,9.2,9.2,0,0,0,2.668-2.64,8.038,8.038,0,0,0,1.15-6.469Zm-2.182-.676a6.3,6.3,0,0,1-.531,6.109,7.329,7.329,0,0,1-3.571,2.808c-2.337-1.4-2.317-2.891-2.29-4.909a12.463,12.463,0,0,0-.17-2.721,8.4,8.4,0,0,1,1.5-.651A12,12,0,0,1,87.657,31.514Z" transform="translate(-50.12 -23.627)" fill="#51cf66" stroke="#fef0f5" stroke-width="0.25"/></g></g></svg>