<svg xmlns="http://www.w3.org/2000/svg" width="64.242" height="63.321" viewBox="0 0 64.242 63.321"><g transform="translate(-302.879 -1180.417)"><g transform="translate(302.879 1180.417)"><g transform="translate(0 0)"><path d="M127.841,337.906a4.5,4.5,0,1,0,4.5,4.5A4.51,4.51,0,0,0,127.841,337.906Zm0,7.128a2.623,2.623,0,1,1,2.623-2.623A2.626,2.626,0,0,1,127.841,345.034Z" transform="translate(-107.861 -295.968)" fill="#ff922b"/><path d="M388.889,421.216a3.233,3.233,0,1,0,3.232,3.232A3.237,3.237,0,0,0,388.889,421.216Zm0,4.585a1.351,1.351,0,1,1,1.349-1.353A1.355,1.355,0,0,1,388.889,425.8Z" transform="translate(-337.265 -368.825)" fill="#ff922b"/><path d="M63.3,58.352H59.135a7.583,7.583,0,0,0-6.569-6.569V38.941a4.019,4.019,0,0,0-4.014-4.014H46.683V25.806A3.684,3.684,0,0,0,43,22.126H41.824A3.269,3.269,0,0,0,38.7,19.8H17.478L15.113,6.6A3.246,3.246,0,0,0,12.035,3.67H.941a.941.941,0,1,0,0,1.882H6.876L9.441,19.863a3.265,3.265,0,0,0,.62,6.471H10.6l1.58,8.812A16.877,16.877,0,1,0,36.859,50.113c0-.331-.011-.66-.03-.987H50.684v2.656a7.572,7.572,0,1,0,8.451,8.451H63.3a.941.941,0,0,0,0-1.882ZM12.035,5.552c.931,0,1.184,1.147,1.226,1.377L15.566,19.8H11.342L8.788,5.552ZM8.679,23.067a1.383,1.383,0,0,1,1.382-1.381H38.7a1.383,1.383,0,0,1,0,2.767H30.256a.941.941,0,1,0,0,1.882H38.7a3.269,3.269,0,0,0,3.125-2.326H43a1.8,1.8,0,0,1,1.8,1.8v9.121H27.344a16.777,16.777,0,0,0-7.363-1.693h-.092l-1.237-6.9h7.262a.941.941,0,0,0,0-1.882H10.061A1.385,1.385,0,0,1,8.679,23.067Zm3.836,3.267h4.223L18,33.351a16.744,16.744,0,0,0-4.045,1ZM19.98,65.109a15,15,0,1,1,15-15A15.014,15.014,0,0,1,19.98,65.109ZM36.614,47.244a16.738,16.738,0,0,0-1.344-4.275h4a.941.941,0,1,0,0-1.882H34.237a17.013,17.013,0,0,0-3.881-4.278h18.2a2.134,2.134,0,0,1,2.132,2.132v2.146H43.611a.941.941,0,1,0,0,1.882h7.072v4.275ZM51.625,64.985a5.69,5.69,0,1,1,5.689-5.692A5.7,5.7,0,0,1,51.625,64.985Z" transform="translate(0 -3.67)" fill="#ff922b"/><path d="M71.32,273.275a12.616,12.616,0,1,0,12.614,12.614A12.629,12.629,0,0,0,71.32,273.275Zm0,23.35a10.734,10.734,0,1,1,10.732-10.736A10.746,10.746,0,0,1,71.32,296.625Z" transform="translate(-51.34 -239.447)" fill="#ff922b"/></g></g></g></svg>