<svg xmlns="http://www.w3.org/2000/svg" width="48" height="48" viewBox="0 0 48 48"><g transform="translate(-11438 -92)"><rect width="48" height="48" transform="translate(11438 92)" fill="none"/><g transform="translate(11445.031 93.406)"><path d="M60.235,2.711A2.71,2.71,0,0,1,62.946,0H82.823L94.117,9.487V42.466a2.71,2.71,0,0,1-2.711,2.711H62.946a2.71,2.71,0,0,1-2.711-2.711Z" transform="translate(-60.235)" fill="#f4f6f8"/><path d="M301.176,0V6.776a2.71,2.71,0,0,0,2.711,2.711h8.584" transform="translate(-278.588)" fill="#e0e0e0"/><g transform="translate(12.706)"><rect width="3.529" height="2.118" transform="translate(3.529)" fill="#787878"/><rect width="3.529" height="2.118" transform="translate(0 2.118)" fill="#787878"/><rect width="3.529" height="2.118" transform="translate(3.529 4.235)" fill="#787878"/><rect width="3.529" height="2.118" transform="translate(0 6.353)" fill="#787878"/><rect width="3.529" height="2.118" transform="translate(3.529 8.471)" fill="#787878"/><rect width="3.529" height="2.118" transform="translate(0 10.588)" fill="#787878"/><rect width="3.529" height="2.118" transform="translate(3.529 12.706)" fill="#787878"/><rect width="3.529" height="2.118" transform="translate(0 14.824)" fill="#787878"/><rect width="3.529" height="2.118" transform="translate(3.529 16.941)" fill="#787878"/><rect width="3.529" height="2.118" transform="translate(0 19.059)" fill="#787878"/><rect width="3.529" height="2.118" transform="translate(3.529 21.176)" fill="#787878"/><rect width="3.529" height="2.118" transform="translate(0 23.294)" fill="#787878"/><path d="M195.765,286.118v5.647a2.832,2.832,0,0,0,2.824,2.824H200a2.832,2.832,0,0,0,2.824-2.824v-5.647h-7.059Zm4.941,4.235a1.412,1.412,0,0,1-2.824,0v-1.412h2.824Z" transform="translate(-195.765 -259.294)" fill="#787878"/></g></g></g></svg>