<svg xmlns="http://www.w3.org/2000/svg" width="64.242" height="64.473" viewBox="0 0 64.242 64.473"><g transform="translate(-1038.879 -1179.764)"><g transform="translate(1038.879 1179.764)"><path d="M59.158,38.673H47.617V34.885a.944.944,0,0,0-1.888,0v3.788h-3.91a.944.944,0,0,0,0,1.888h3.91v4H45.02a1.8,1.8,0,0,0-1.794,1.794V57.464a1.8,1.8,0,0,0,1.794,1.794h.708v7.489a.944.944,0,0,0,1.888,0V59.258h.708a1.8,1.8,0,0,0,1.794-1.794V46.352a1.8,1.8,0,0,0-1.794-1.794h-.708v-4H59.158a4.118,4.118,0,0,1,4.113,4.113V76.981H2.8V44.675a4.118,4.118,0,0,1,4.113-4.113H23.465V42.4h-.708A1.8,1.8,0,0,0,20.962,44.2V55.31A1.8,1.8,0,0,0,22.756,57.1h.708v8.341a.944.944,0,1,0,1.888,0V57.1h.708a1.8,1.8,0,0,0,1.794-1.794V44.2A1.8,1.8,0,0,0,26.061,42.4h-.708V40.561h3.91a.944.944,0,1,0,0-1.888h-3.91v-.466a.944.944,0,1,0-1.888,0v.466H6.918a6.008,6.008,0,0,0-6,6v33.25a6.008,6.008,0,0,0,6,6H21.287v4.8l-3.042,3.529H17.037a.944.944,0,0,0,0,1.888H48.952a.944.944,0,0,0,0-1.888H47.832l-3.042-3.529v-4.8H59.158a6.008,6.008,0,0,0,6-6V44.675a6.008,6.008,0,0,0-6-6Zm-10.927,18.7H45.114V46.446h3.117V57.371ZM25.967,55.216H22.85V44.291h3.117ZM59.158,82.039h-19.1a.944.944,0,1,0,0,1.888H42.9v4.206H40.55a.944.944,0,0,0,0,1.888h2.863l1.926,2.234h-24.6l1.926-2.234h2.863a.944.944,0,0,0,0-1.888H23.175V83.926H36.032a.944.944,0,1,0,0-1.888H6.918a4.12,4.12,0,0,1-4-3.17H63.161A4.12,4.12,0,0,1,59.158,82.039Z" transform="translate(-0.917 -29.669)" fill="#ff922b"/><path d="M72.683,134.661a.944.944,0,0,0-.944.944v2.279a1.8,1.8,0,0,0,1.794,1.794h.708V144.7a.944.944,0,1,0,1.888,0v-5.027h.708a1.8,1.8,0,0,0,1.794-1.794V126.772a1.8,1.8,0,0,0-1.794-1.794h-.708v-1.51a.944.944,0,1,0-1.888,0v1.51h-.708a1.8,1.8,0,0,0-1.794,1.794v4.811a.944.944,0,1,0,1.888,0v-4.717h3.117V137.79H73.627v-2.185A.944.944,0,0,0,72.683,134.661Z" transform="translate(-62.826 -107.104)" fill="#ff922b"/><path d="M250.433,25.566h.709v5.027a.944.944,0,1,0,1.888,0V25.566h.708a1.8,1.8,0,0,0,1.794-1.794v-7.4a.944.944,0,1,0-1.888,0v7.31h-3.117V6.587h3.117v5.759a.944.944,0,1,0,1.888,0V6.493A1.8,1.8,0,0,0,253.738,4.7h-.708V.944a.944.944,0,1,0-1.888,0V4.7h-.709a1.8,1.8,0,0,0-1.794,1.794V23.772a1.8,1.8,0,0,0,1.794,1.794Z" transform="translate(-217.462 0)" fill="#ff922b"/><path d="M406.968,166.259a.943.943,0,0,0,1.279.383l4.348-2.344-.313.821a.944.944,0,1,0,1.764.672l1.063-2.79a.944.944,0,0,0-.546-1.218l-2.961-1.128a.944.944,0,0,0-.672,1.764l.687.262-4.266,2.3A.944.944,0,0,0,406.968,166.259Z" transform="translate(-355.765 -140.381)" fill="#ff922b"/><path d="M44.733,255.294a.943.943,0,0,0,1.239.5l12.18-5.213,1.107,2.9a.944.944,0,0,0,1.33.494l20.122-10.849a.944.944,0,1,0-.9-1.662L60.639,251.8l-1.074-2.813a.944.944,0,0,0-1.253-.531l-13.083,5.6A.944.944,0,0,0,44.733,255.294Z" transform="translate(-39.152 -210.972)" fill="#ff922b"/></g></g></svg>