<svg xmlns="http://www.w3.org/2000/svg" width="61.862" height="65.308" viewBox="0 0 61.862 65.308"><g transform="translate(0.25 0.259)"><path d="M92.989,78.789a1,1,0,0,0,.153.012.967.967,0,0,0,.953-.814l.287-1.8a.966.966,0,0,0-1.909-.3l-.287,1.8A.967.967,0,0,0,92.989,78.789Zm0,0" transform="translate(-80.509 -65.564)" fill="#51cf66" stroke="#fef0f5" stroke-width="0.5"/><path d="M117.946,82.758a1.006,1.006,0,0,0,.153.012.966.966,0,0,0,.953-.814l.287-1.8a.966.966,0,0,0-1.908-.3l-.287,1.8A.966.966,0,0,0,117.946,82.758Zm0,0" transform="translate(-102.307 -69.03)" fill="#51cf66" stroke="#fef0f5" stroke-width="0.5"/><path d="M54.635,38.811V35.754a8.893,8.893,0,0,0-4.872-7.924,8.818,8.818,0,0,0,4.8-7.839V14.416a7.658,7.658,0,0,0-7.649-7.65H36.346a.966.966,0,0,0-.967.966A7.216,7.216,0,0,0,39.2,14.095a8.808,8.808,0,0,0,2.529,13.732,8.9,8.9,0,0,0-2.264,1.644c-.121.122-.238.247-.351.374l-2.565.125A.966.966,0,0,0,36.6,31.9h.048l1.123-.054a8.846,8.846,0,0,0-.9,3.909v.022l-8.077.4a4.1,4.1,0,0,0,.458-2.188,4.178,4.178,0,0,0-.491-1.7l4.032-.2a.966.966,0,1,0-.094-1.93l-5.923.291a4.158,4.158,0,0,0-2.08-.342c-3.882.354-7.029-.123-9.389-1.417V27.459a7.626,7.626,0,0,0-2.346-5.5,8.806,8.806,0,0,0,6.054-12.52,3.938,3.938,0,0,0,4.058-3.557,4,4,0,0,0-3.411-4.57L12.045.1A7.649,7.649,0,0,0,3.289,6.45l-.876,5.507h0a8.816,8.816,0,0,0,3.08,8.163A7.662,7.662,0,0,0,0,27.459v9.883a7.657,7.657,0,0,0,3.463,6.4V60.6a4.187,4.187,0,0,0,5.631,3.93,4.186,4.186,0,0,0,5.631-3.93V53a.966.966,0,1,0-1.933,0V60.6a2.258,2.258,0,0,1-1.545,2.139,4.161,4.161,0,0,0,.589-2.139V43.743A7.7,7.7,0,0,0,12.793,43v6.128a.966.966,0,1,0,1.932,0V40.257a7.628,7.628,0,0,0,.566-2.591,26.032,26.032,0,0,0,7.122.922c.967,0,1.966-.045,2.967-.134a4.232,4.232,0,0,0,1.053-.231l10.431-.511v2.355l-4.819.839a3.854,3.854,0,0,0-2.9,2.362l-3.751,9.472a3.805,3.805,0,0,0,.046,2.93,3.928,3.928,0,0,0,.188.376H24.267a.966.966,0,1,0,0,1.933H27.86a4.377,4.377,0,1,0,7.258,0h.2A14.014,14.014,0,1,0,54.635,38.811ZM5.2,6.753a5.717,5.717,0,0,1,6.545-4.748l7.609,1.21a2.07,2.07,0,0,1,1.8,2.423,2,2,0,0,1-2.277,1.854c-.119-.01-.24-.026-.36-.044l-1.319-.21-.009,0-8.771-1.4a.966.966,0,0,0-1.106.8L6.989,8.636A3.037,3.037,0,0,1,4.5,11.151Zm-.956,6.366A4.966,4.966,0,0,0,8.9,8.94L9.062,7.9l7.454,1.186A6.876,6.876,0,1,1,4.241,13.119ZM7.65,21.741a5.723,5.723,0,0,1,5.712,5.537,8.28,8.28,0,0,1-1.073-1.248.966.966,0,1,0-1.587,1.1,10.279,10.279,0,0,0,1.689,1.878,14.155,14.155,0,0,0,9.057,3.126v4.5c-5.157-.169-9.324-1.7-12.4-4.57A14.708,14.708,0,0,1,7,29.7.966.966,0,1,0,5.41,30.8a16.644,16.644,0,0,0,2.322,2.681,17.52,17.52,0,0,0,4.189,2.892H1.933V27.459A5.724,5.724,0,0,1,7.65,21.741Zm4.042,19.642a5.716,5.716,0,0,1-1.288.968.967.967,0,0,0-.5.846V60.6a2.254,2.254,0,0,1-4.509,0V43.2a.967.967,0,0,0-.5-.846,5.724,5.724,0,0,1-2.878-4.045H13.284A5.67,5.67,0,0,1,11.692,41.383Zm11.687-4.746V32.131q.727-.03,1.485-.1a2.254,2.254,0,0,1,2.454,2.088,2.3,2.3,0,0,1-2.109,2.409C24.594,36.583,23.983,36.618,23.379,36.638Zm29.323,6.2a1.885,1.885,0,0,1-.555,1.341L48.321,48a1.9,1.9,0,0,1-2.681-2.681l2.988-2.988a.966.966,0,0,0,.283-.683V36.72H52.7Zm-8.429,1.119a3.828,3.828,0,1,0,5.414,5.414l3.826-3.826a3.814,3.814,0,0,0,.441-.529,8.773,8.773,0,1,1-7.821-2.919ZM37.4,8.7h9.509a5.723,5.723,0,0,1,5.717,5.717v4.452a3.036,3.036,0,0,1-2.065-2.873V13.976a.966.966,0,0,0-.967-.966H42.589A5.287,5.287,0,0,1,37.4,8.7Zm1.472,11.293a6.826,6.826,0,0,1,2.354-5.18,7.238,7.238,0,0,0,1.362.131h6.039v1.052a4.973,4.973,0,0,0,3.942,4.858,6.885,6.885,0,0,1-6.807,6.017h-.028A6.885,6.885,0,0,1,38.872,19.991Zm6.863,8.81h.028a6.963,6.963,0,0,1,6.871,5.987H48.911V33.742a.966.966,0,1,0-1.933,0v3.031A13.941,13.941,0,0,0,38.8,39.686V35.754A6.953,6.953,0,0,1,45.736,28.8ZM28.253,55.911a1.9,1.9,0,0,1-1.064-2.461l3.75-9.471a1.91,1.91,0,0,1,1.438-1.17l3.96-.69a14,14,0,0,0-2.421,4.656c-.015.03-3.2,8.071-3.2,8.071a1.894,1.894,0,0,1-2.461,1.065Zm5.681,4.511a2.444,2.444,0,1,1-2.445-2.445A2.447,2.447,0,0,1,33.933,60.422Zm-1.658-4.377a3.912,3.912,0,0,0,.235-.487l1-2.528a13.907,13.907,0,0,0,.845,3.015Zm15.071,6.821a12.083,12.083,0,0,1-.369-24.161v1.379a10.7,10.7,0,1,0,7.654,2.854c0-.035,0-.069,0-.1v-1.69a12.083,12.083,0,0,1-7.288,21.721Zm0,0" transform="translate(0 0)" fill="#51cf66" stroke="#fef0f5" stroke-width="0.5"/><path d="M344.283,125.66a.967.967,0,0,0-.966.966v1.828a.966.966,0,0,0,1.932,0v-1.828A.966.966,0,0,0,344.283,125.66Zm0,0" transform="translate(-299.866 -109.756)" fill="#51cf66" stroke="#fef0f5" stroke-width="0.5"/><path d="M319.017,125.66a.966.966,0,0,0-.966.966v1.828a.966.966,0,0,0,1.932,0v-1.828A.966.966,0,0,0,319.017,125.66Zm0,0" transform="translate(-277.798 -109.756)" fill="#51cf66" stroke="#fef0f5" stroke-width="0.5"/><path d="M241.616,471.553a.966.966,0,1,0-.364-1.15A.975.975,0,0,0,241.616,471.553Zm0,0" transform="translate(-210.664 -410.328)" fill="#51cf66" stroke="#fef0f5" stroke-width="0.5"/></g></svg>