<svg xmlns="http://www.w3.org/2000/svg" width="51.817" height="77.003" viewBox="0 0 51.817 77.003"><g transform="translate(-677.092 -1173.459)"><g transform="translate(677.342 1173.789)"><path d="M935.038,530.565a1.114,1.114,0,0,0,1.113-1.115h0v-1.778a1.114,1.114,0,1,0-2.228,0v1.781A1.114,1.114,0,0,0,935.038,530.565Z" transform="translate(-904.344 -509.074)" fill="#51cf66" stroke="#fef0f5" stroke-width="0.5"/><path d="M928.969,530.565a1.114,1.114,0,0,0,1.115-1.115v-1.778a1.114,1.114,0,1,0-2.228,0v1.781A1.114,1.114,0,0,0,928.969,530.565Z" transform="translate(-908.021 -509.074)" fill="#51cf66" stroke="#fef0f5" stroke-width="0.5"/><path d="M939.356,537.7a1.114,1.114,0,0,0,.888-.9,6.511,6.511,0,0,0-1.1-5.549,7.3,7.3,0,0,0-10.253,0,6.511,6.511,0,0,0-1.1,5.549,1.115,1.115,0,0,0,.89.9,6.487,6.487,0,0,0,1.169.1,5.955,5.955,0,0,0,4.177-1.532A6.474,6.474,0,0,0,939.356,537.7Zm-6.325-3.8a3.456,3.456,0,0,1-3.167,1.672,3.894,3.894,0,0,1,.726-2.886,5.124,5.124,0,0,1,6.837,0,3.9,3.9,0,0,1,.726,2.886,3.46,3.46,0,0,1-3.167-1.67,1.115,1.115,0,0,0-1.956,0Z" transform="translate(-908.189 -507.5)" fill="#51cf66" stroke="#fef0f5" stroke-width="0.5"/><path d="M941.236,551.795a1.123,1.123,0,0,0-1.124,1.124h0v1.927h-1.927a1.13,1.13,0,0,0,0,2.26h1.927v1.927a1.13,1.13,0,0,0,2.26,0v-1.927H944.3a1.13,1.13,0,1,0,0-2.26h-1.927v-1.927a1.123,1.123,0,0,0-1.124-1.124Z" transform="translate(-902.446 -493.778)" fill="#51cf66" stroke="#fef0f5" stroke-width="0.5"/><g transform="translate(10.24 55.08)" style="isolation:isolate"><g style="isolation:isolate"><path d="M929.051,564.151a.92.92,0,0,1-1.041-1.042v-2.774h-5.2a.864.864,0,0,1-.925-.925v-.058a1.7,1.7,0,0,1,.27-.927l4.934-7.767a1.42,1.42,0,0,1,1.272-.692h.52a1.13,1.13,0,0,1,1.214,1.214v7.439h.964a.75.75,0,0,1,.848.848.758.758,0,0,1-.848.867h-.964v2.774A.92.92,0,0,1,929.051,564.151Zm-4.934-5.531h3.893V554.9q0-.6.077-2.178c.026-.259.039-.443.039-.559h-.077q-.482,1-1.137,2.176Z" transform="translate(-921.882 -549.966)" fill="#51cf66" stroke="#fef0f5" stroke-width="0.5"/><path d="M933.364,564.4a6.282,6.282,0,0,1-4.124-1.428.753.753,0,0,1-.289-.54,1.076,1.076,0,0,1,.25-.577.76.76,0,0,1,1.272-.173,4.3,4.3,0,0,0,2.621.906,2.643,2.643,0,0,0,2-.809,3.049,3.049,0,0,0,.809-2.226,3.092,3.092,0,0,0-.732-2.187,2.584,2.584,0,0,0-1.966-.771,3.475,3.475,0,0,0-1.657.422,1.008,1.008,0,0,1-1.156.04l-.058-.04a.927.927,0,0,1-.443-.9l.308-4.953a1.2,1.2,0,0,1,.366-.867,1.265,1.265,0,0,1,.906-.328h5.069a.818.818,0,0,1,.925.925.826.826,0,0,1-.925.944h-4.336l-.328,3.641a4.181,4.181,0,0,1,1.947-.5,4.231,4.231,0,0,1,3.045,1.1,4.453,4.453,0,0,1,1.272,3.411,4.786,4.786,0,0,1-1.465,3.643A4.657,4.657,0,0,1,933.364,564.4Z" transform="translate(-917.598 -549.966)" fill="#51cf66" stroke="#fef0f5" stroke-width="0.5"/></g></g><path d="M956.838,563.517a24.493,24.493,0,0,0-7.778-11.583,20.521,20.521,0,0,0-3.308-2.187,12.113,12.113,0,0,0,4.778-8.247,4.633,4.633,0,0,0,.6.038,4.8,4.8,0,0,0,3.2-8.371,16.8,16.8,0,0,0,.471-5.575,1.115,1.115,0,0,0-2.218.225,14.055,14.055,0,0,1-.3,4.266,4.772,4.772,0,0,0-2.379.019,23.869,23.869,0,0,1-2.652-4.82,1.115,1.115,0,0,0-1.314-.662,22.778,22.778,0,0,1-14.853,0,1.115,1.115,0,0,0-1.314.662,23.708,23.708,0,0,1-2.652,4.82,4.772,4.772,0,0,0-2.488.011,9.157,9.157,0,0,1,1.669-8.435,1.113,1.113,0,0,0,.214-1.176,4.621,4.621,0,0,1,.681-4.147,8.917,8.917,0,0,0,6.686.8c.469-.1.939-.214,1.439-.329,5.154-1.208,8.988-1.778,11.215,1.889a1.129,1.129,0,0,0,.712.511,7.438,7.438,0,0,1,4.063,2.889,1.114,1.114,0,0,0,1.842-1.253,9.659,9.659,0,0,0-4.963-3.678c-3.288-4.886-9.109-3.525-13.385-2.525-.49.114-.954.222-1.407.321-3.787.829-5.469-.79-5.6-.928a1.1,1.1,0,0,0-1.547-.112,1.316,1.316,0,0,0-.095.092,7.7,7.7,0,0,0-1.924,6.68,11.439,11.439,0,0,0-1.6,10.516,4.8,4.8,0,0,0,3.252,8.313,4.633,4.633,0,0,0,.6-.038,12.113,12.113,0,0,0,4.772,8.254,21.275,21.275,0,0,0-4.959,3.662A1.114,1.114,0,0,0,927.849,555a18.651,18.651,0,0,1,5.155-3.63l1.908,4.828-1.335,7.311H922.522a23.978,23.978,0,0,1,2.635-5.249,1.115,1.115,0,0,0-1.85-1.245,26.473,26.473,0,0,0-3.14,6.493m30.448-29.283a2.567,2.567,0,1,1,0,5.033Zm-24.226,5.033a2.567,2.567,0,1,1-1.007-5.033,2.534,2.534,0,0,1,1.007,0Zm9.453,24.26,1.151-6.31h3.023l1.152,6.31Zm-.262-11.708a12.087,12.087,0,0,0,5.848,0l-1.243,3.169h-3.361Zm12.166,1.926a21.9,21.9,0,0,1,6.737,9.776H943.424L942.09,556.2,944,551.367A17.887,17.887,0,0,1,947.746,553.738Zm-19.131-13.688,0,.01v-6.222A25.044,25.044,0,0,0,931.45,529a23.576,23.576,0,0,0,14.1,0,25.61,25.61,0,0,0,2.832,4.81v6.235a9.885,9.885,0,1,1-19.769,0Z" transform="translate(-912.681 -515.671)" fill="#51cf66" stroke="#fef0f5" stroke-width="0.5"/><path d="M961.174,545.561h-1.333l-.021-.061h-2.4c.006.019.016.037.022.056h-32.4l.023-.056h-2.39c-.006.021-.016.04-.022.061h-1.5a5.654,5.654,0,0,0-5.649,5.649v17.157a5.656,5.656,0,0,0,5.649,5.649H949.22a1.13,1.13,0,1,0,0-2.26H921.156a3.394,3.394,0,0,1-3.389-3.389V551.206a3.392,3.392,0,0,1,3.389-3.389h40.018a3.392,3.392,0,0,1,3.389,3.389v17.161a3.394,3.394,0,0,1-3.389,3.389h-7.433a1.13,1.13,0,0,0,0,2.26h7.433a5.656,5.656,0,0,0,5.649-5.649V551.206A5.654,5.654,0,0,0,961.174,545.561Z" transform="translate(-915.506 -497.593)" fill="#51cf66" stroke="#fef0f5" stroke-width="0.5"/></g></g></svg>