<svg xmlns="http://www.w3.org/2000/svg" width="48" height="48" viewBox="0 0 48 48"><g transform="translate(-7300 1454)"><rect width="48" height="48" transform="translate(7300 -1454)" fill="#fff" opacity="0.002"/><g transform="translate(7307.031 -1452.594)"><path d="M60.235,2.711A2.71,2.71,0,0,1,62.946,0H82.823L94.117,9.487V42.466a2.71,2.71,0,0,1-2.711,2.711H62.946a2.71,2.71,0,0,1-2.711-2.711Z" transform="translate(-60.235)" fill="#ef5350"/><path d="M301.176,0V6.776a2.71,2.71,0,0,0,2.711,2.711h8.584" transform="translate(-278.588)" fill="#d32f2f"/><g transform="translate(5.097 22.106)"><path d="M118.008,242.337h-1.059v3.248h-2.344V235.8H117.7c2.669,0,4.194,1.045,4.194,3.191C121.89,241.293,120.323,242.337,118.008,242.337Zm-.282-4.872h-.776v3.177h.861a1.47,1.47,0,0,0,1.666-1.652C119.476,237.96,118.9,237.465,117.726,237.465Z" transform="translate(-114.605 -235.799)" fill="#fff"/><path d="M206.107,245.585h-2.655V235.8h2.485c2.514,0,4.914.8,4.914,4.844C210.851,244.623,208.549,245.585,206.107,245.585Zm.169-8.092h-.48v6.4h.48c1.285,0,2.146-.692,2.146-3.248C208.423,238.031,207.5,237.493,206.276,237.493Z" transform="translate(-195.123 -235.799)" fill="#fff"/><path d="M303.09,237.465v2.571h3.417v1.68H303.09v3.869h-2.358V235.8h6.453l-.24,1.666Z" transform="translate(-283.283 -235.799)" fill="#fff"/></g></g></g></svg>