<svg xmlns="http://www.w3.org/2000/svg" width="61.847" height="66.299" viewBox="0 0 61.847 66.299"><g transform="translate(-1028.75 -1850.75)"><g transform="translate(1029 1851)"><g transform="translate(0 0)"><path d="M77.7,55.214a.963.963,0,0,0,.963-.963v-3.48A3.569,3.569,0,0,0,75.1,47.206H71.99A17.456,17.456,0,0,0,59.668,35.76l-2.4-1.473a2.437,2.437,0,0,0-2.564.02l-.022.014a1.822,1.822,0,0,1-.392-1.131V31.922a13.4,13.4,0,0,0,1.748-1.306,10.551,10.551,0,0,0,2.132-2.595H60.09a3.986,3.986,0,0,0,3.981-3.981V16.675a3.159,3.159,0,0,0-1.6-2.742V11.544a3.418,3.418,0,0,0-1-2.406,4.229,4.229,0,0,0-2.819-3.933.155.155,0,0,1-.1-.1,3.667,3.667,0,0,0-3.282-2.6,3.813,3.813,0,0,0-4.05-1.394.17.17,0,0,1-.159-.029A4,4,0,0,0,47.993,0a3.953,3.953,0,0,0-3.071,1.078.17.17,0,0,1-.159.029A3.813,3.813,0,0,0,40.711,2.5,3.665,3.665,0,0,0,37.43,5.1a.155.155,0,0,1-.1.1,4.229,4.229,0,0,0-2.819,3.933,3.418,3.418,0,0,0-1,2.406v2.389a3.16,3.16,0,0,0-1.6,2.741v3.746a3.159,3.159,0,0,0,3.156,3.156h1.29a11.056,11.056,0,0,0,3.683,7.108A13.446,13.446,0,0,0,41.7,31.911c-.064.943.195,1.668-.393,2.409l-.021-.013a2.437,2.437,0,0,0-2.564-.02l-2.4,1.473a17.484,17.484,0,0,0-2.757.94.963.963,0,1,0,.772,1.765,15.557,15.557,0,0,1,2.075-.737l5.441,5.449.01.01a2.471,2.471,0,0,0,3.316.126l2.819-2.355,2.819,2.355a2.471,2.471,0,0,0,3.316-.126l.01-.01,5.441-5.449a15.53,15.53,0,0,1,10.369,9.477H26.038a15.452,15.452,0,0,1,4.68-6.524A.963.963,0,1,0,29.5,39.193,17.367,17.367,0,0,0,24,47.206H20.884a3.569,3.569,0,0,0-3.565,3.565V62.234A3.569,3.569,0,0,0,20.884,65.8H75.1a3.569,3.569,0,0,0,3.565-3.565v-3.48a.963.963,0,1,0-1.927,0v3.48A1.64,1.64,0,0,1,75.1,63.872H20.884a1.64,1.64,0,0,1-1.638-1.638V50.771a1.64,1.64,0,0,1,1.638-1.639H75.1a1.64,1.64,0,0,1,1.638,1.639v3.48A.963.963,0,0,0,77.7,55.214ZM61.852,15.881a1.225,1.225,0,0,1,.292.794v3.746a1.231,1.231,0,0,1-1.229,1.229h-1.2V17.1a.448.448,0,0,1,.435-.439,2.367,2.367,0,0,0,1.7-.777ZM55.436,27.644H52.961a.747.747,0,0,1,0-1.493h2.475a.747.747,0,0,1,0,1.493ZM60.09,26.1H59.063a11.594,11.594,0,0,0,.584-2.519h1.27a3.139,3.139,0,0,0,1.229-.249v.713A2.057,2.057,0,0,1,60.09,26.1ZM35.437,11.544a1.5,1.5,0,0,1,.447-1.057,1.879,1.879,0,0,0,.551-1.332,2.319,2.319,0,0,1,1.574-2.148,2.066,2.066,0,0,0,1.275-1.383,1.736,1.736,0,0,1,1.575-1.2,1.9,1.9,0,0,0,1.4-.781,1.886,1.886,0,0,1,2-.672,2.1,2.1,0,0,0,2.005-.518,2.1,2.1,0,0,1,1.72-.525,2.126,2.126,0,0,1,1.72.525,2.1,2.1,0,0,0,2.005.518,1.886,1.886,0,0,1,2,.672,1.9,1.9,0,0,0,1.4.781,1.736,1.736,0,0,1,1.575,1.2,2.067,2.067,0,0,0,1.275,1.383A2.319,2.319,0,0,1,59.55,9.156a1.878,1.878,0,0,0,.551,1.332h0a1.5,1.5,0,0,1,.447,1.057v2.743a.436.436,0,0,1-.009.087h0a.448.448,0,0,1-.426.357,2.385,2.385,0,0,0-2.32,2.371v.52h-.507a.783.783,0,0,1-.783-.785l.009-4.657c0-3.11-2.569-4.436-5.572-3.548a11.3,11.3,0,0,1-5.893,0c-2.986-.883-5.572.422-5.572,3.55l.009,4.655a.783.783,0,0,1-.783.785h-.507V17.1a2.385,2.385,0,0,0-2.32-2.371.448.448,0,0,1-.426-.355v-.005a.436.436,0,0,1-.008-.085Zm-1.6,8.877V16.675a1.225,1.225,0,0,1,.292-.794,2.368,2.368,0,0,0,1.7.778.448.448,0,0,1,.435.445v1.488l.014,3.058h-1.21A1.23,1.23,0,0,1,33.84,20.421Zm4.37,2.05L38.2,19.55h.5a2.708,2.708,0,0,0,2.71-2.715L41.4,12.182c0-1.833,1.406-2.2,3.1-1.7a13.2,13.2,0,0,0,6.986,0c1.693-.5,3.1-.135,3.1,1.7l-.009,4.655a2.708,2.708,0,0,0,2.71,2.715h.508v3a9.748,9.748,0,0,1-.417,2.514,2.666,2.666,0,0,0-1.94-.836H52.961a2.673,2.673,0,0,0,0,5.347h1.324A9.933,9.933,0,0,1,41.3,29.227,9.221,9.221,0,0,1,38.21,22.47Zm5.414,10.422a12.016,12.016,0,0,0,4.418.851h.022a12.03,12.03,0,0,0,4.3-.843,3.9,3.9,0,0,0,.687,2.456l-5.056,3.207-5.057-3.208A4.041,4.041,0,0,0,43.624,32.892Zm.314,8.943a.549.549,0,0,1-.733-.024L38.242,36.84l1.485-.91a.5.5,0,0,1,.525,0l6.111,3.877Zm8.842-.024a.549.549,0,0,1-.733.024L49.623,39.81l6.111-3.877a.5.5,0,0,1,.525,0l1.485.91Z" transform="translate(-17.319 0)" fill="#51cf66" stroke="#fef0f5" stroke-width="0.5"/><path d="M67.139,399.666l-2.134-.176-.827-1.974a1.512,1.512,0,0,0-2.789,0l-.827,1.974-2.134.176a1.513,1.513,0,0,0-.862,2.652l1.622,1.4L58.7,405.8a1.513,1.513,0,0,0,2.256,1.639l1.83-1.111,1.83,1.111A1.512,1.512,0,0,0,66.87,405.8l-.492-2.084,1.622-1.4A1.513,1.513,0,0,0,67.139,399.666ZM64.93,402.42a1.507,1.507,0,0,0-.485,1.492l.322,1.365-1.2-.728a1.507,1.507,0,0,0-1.57,0l-1.2.728.322-1.365a1.506,1.506,0,0,0-.485-1.493l-1.063-.915,1.4-.116a1.506,1.506,0,0,0,1.27-.923l.542-1.293.542,1.294a1.507,1.507,0,0,0,1.27.922l1.4.116Z" transform="translate(-51.936 -345.621)" fill="#51cf66" stroke="#fef0f5" stroke-width="0.5"/><path d="M169.985,399.675l-2.134-.176-.827-1.975h0a1.513,1.513,0,0,0-2.789,0l-.827,1.975-2.134.176a1.513,1.513,0,0,0-.862,2.652l1.622,1.4-.492,2.084a1.513,1.513,0,0,0,2.256,1.639l1.83-1.111,1.83,1.111a1.513,1.513,0,0,0,2.256-1.639l-.491-2.084,1.622-1.4A1.512,1.512,0,0,0,169.985,399.675Zm-2.209,2.754a1.506,1.506,0,0,0-.485,1.492l.322,1.365-1.2-.728a1.507,1.507,0,0,0-1.569,0l-1.2.728.322-1.365a1.507,1.507,0,0,0-.485-1.492l-1.063-.915,1.4-.116a1.507,1.507,0,0,0,1.27-.923l.542-1.293.542,1.293a1.506,1.506,0,0,0,1.27.923l1.4.116Z" transform="translate(-141.565 -345.629)" fill="#51cf66" stroke="#fef0f5" stroke-width="0.5"/><path d="M272.834,399.666l-2.134-.176-.827-1.974a1.512,1.512,0,0,0-2.789,0l-.827,1.974-2.134.176a1.513,1.513,0,0,0-.862,2.652l1.622,1.4-.491,2.084a1.513,1.513,0,0,0,2.256,1.639l1.83-1.111,1.83,1.111a1.512,1.512,0,0,0,2.256-1.639l-.492-2.084,1.622-1.4A1.513,1.513,0,0,0,272.834,399.666Zm-2.209,2.754a1.507,1.507,0,0,0-.485,1.492l.322,1.365-1.2-.728a1.507,1.507,0,0,0-1.57,0l-1.2.728.322-1.365a1.506,1.506,0,0,0-.485-1.493l-1.063-.915,1.4-.116a1.506,1.506,0,0,0,1.27-.923l.542-1.293.542,1.294a1.507,1.507,0,0,0,1.27.922l1.4.116Z" transform="translate(-231.197 -345.621)" fill="#51cf66" stroke="#fef0f5" stroke-width="0.5"/><path d="M375.679,399.675l-2.134-.176-.827-1.975h0a1.513,1.513,0,0,0-2.789,0L369.1,399.5l-2.134.176a1.513,1.513,0,0,0-.862,2.652l1.623,1.4-.492,2.084a1.513,1.513,0,0,0,2.256,1.639l1.83-1.111,1.83,1.111a1.512,1.512,0,0,0,2.256-1.639l-.491-2.084,1.622-1.4A1.513,1.513,0,0,0,375.679,399.675Zm-2.209,2.754a1.506,1.506,0,0,0-.485,1.492l.322,1.365-1.2-.728a1.507,1.507,0,0,0-1.569,0l-1.2.728.322-1.365a1.507,1.507,0,0,0-.485-1.492l-1.063-.915,1.4-.116a1.507,1.507,0,0,0,1.27-.923l.542-1.293.542,1.293a1.506,1.506,0,0,0,1.27.923l1.4.116Z" transform="translate(-320.825 -345.629)" fill="#51cf66" stroke="#fef0f5" stroke-width="0.5"/></g></g></g></svg>