<svg id="illus001" xmlns="http://www.w3.org/2000/svg" width="128.074" height="303.027" viewBox="0 0 128.074 303.027">
  <g id="Group_131861" data-name="Group 131861" transform="translate(107.127 44.297)">
    <path id="Path_214637" data-name="Path 214637" d="M477.65,265.707s4.479-13.223,9.544-17.648a.461.461,0,0,0-.32-.8c-6.4-.053-8.637,2.879-7.038-1.546,1.706-4.692,6.132-6.771,5.438-8.584s-11.25,9.49-14.129,14.609-4.745,8.691-4.745,8.691Z" transform="translate(-466.4 -236.935)" fill="#f8b0af"/>
  </g>
  <g id="Group_131862" data-name="Group 131862" transform="translate(81.321 63.579)">
    <path id="Path_214638" data-name="Path 214638" d="M423.012,291.494s6.665,6.078,15.835-7.731l7.145-10.663,10.823,4.852s.213,42.547-19.941,43.88A41.38,41.38,0,0,1,418,320.286Z" transform="translate(-418 -273.1)" fill="#29529c"/>
  </g>
  <g id="Group_131863" data-name="Group 131863" transform="translate(109.313 46.038)">
    <path id="Path_214639" data-name="Path 214639" d="M472.739,258.754s5.172-11.517,9.81-15.782A5.875,5.875,0,0,0,484.2,240.2a57.976,57.976,0,0,0-5.6,5.758,46.453,46.453,0,0,0-8.1,11.836Z" transform="translate(-470.5 -240.2)" fill="#f7a6a5"/>
  </g>
  <g id="Group_131865" data-name="Group 131865" transform="translate(67.779 293.11)">
    <g id="Group_131864" data-name="Group 131864">
      <path id="Path_214640" data-name="Path 214640" d="M392.6,703.6s.586,8.371,1.759,9.117,18.288,0,18.288,0-1.546-3.466-9.544-3.2c.746-1.919,1.813-5.918,1.813-5.918Z" transform="translate(-392.6 -703.6)" fill="#f8b0af"/>
    </g>
  </g>
  <g id="Group_131867" data-name="Group 131867" transform="translate(7.53 293.11)">
    <g id="Group_131866" data-name="Group 131866">
      <path id="Path_214641" data-name="Path 214641" d="M279.6,703.6s.16,8.371,1.386,9.117c1.173.746,18.288,0,18.288,0s-1.546-3.466-9.544-3.2c.746-1.919,1.813-5.918,1.813-5.918Z" transform="translate(-279.6 -703.6)" fill="#f8b0af"/>
    </g>
  </g>
  <g id="Group_131868" data-name="Group 131868" transform="translate(4.174 153.113)">
    <path id="Path_214642" data-name="Path 214642" d="M276.715,581.5s-11.623-114.259,8.051-140.438c19.994-.373,49.585,2.079,79.6.373,2.293,5.172,13.169,62.648-15.2,139.8-12.37.373-12.263.32-12.263.32s-9.757-46.333-11.57-70.219c-1.706-23.14-2.559-39.668-2.559-39.668S309.238,538.8,288.5,581.557C278.954,581.5,276.715,581.5,276.715,581.5Z" transform="translate(-273.305 -441.026)" fill="#fdba13"/>
  </g>
  <g id="Group_131869" data-name="Group 131869" transform="translate(3.948 153.152)">
    <path id="Path_214643" data-name="Path 214643" d="M282.275,581.538s-2.932-.64-3.572-1.919-.16-97.784,4-102.476c12.9-7.464,41.694-35.136,41.694-35.136l-6.131-.267-33.75-.64s-7.678,6.931-10.077,38.175c-1.226,21.434-2.133,47.079-1.12,60.462.8,10.877,3.146,41.8,3.146,41.8h5.812Z" transform="translate(-272.881 -441.1)" fill="#faa61a"/>
  </g>
  <g id="Group_131870" data-name="Group 131870" transform="translate(55.036 207.003)">
    <path id="Path_214644" data-name="Path 214644" d="M368.7,542.1s13.969,82.7,15.355,84.561c1.653,1.919,2.239,1.866,2.239,1.866l-4.852.107c-3.359-14.609-6.4-30.551-8.8-47.772C370.779,567.266,369.5,554.31,368.7,542.1Z" transform="translate(-368.7 -542.1)" fill="#faa61a"/>
  </g>
  <g id="Group_131871" data-name="Group 131871" transform="translate(53.436 154.005)">
    <path id="Path_214645" data-name="Path 214645" d="M365.7,472.558l2.559-29.591,7.678-.267s-.427,26.925-2.079,27.138C372.258,470,365.7,472.558,365.7,472.558Z" transform="translate(-365.7 -442.7)" fill="#faa61a"/>
  </g>
  <g id="Group_131872" data-name="Group 131872" transform="translate(29.764 153.419)">
    <path id="Path_214646" data-name="Path 214646" d="M321.3,441.6" transform="translate(-321.3 -441.6)" fill="#3e5ba5"/>
  </g>
  <g id="Group_131873" data-name="Group 131873" transform="translate(10.996 54.341)">
    <path id="Path_214647" data-name="Path 214647" d="M286.1,363.274c.373-.906.853-4.372,1.706-8.744,1.866-23.033,4.159-83.815,18.554-93.412,15.249-11.09,33.483-2.826,44.786,5.812,10.77,8.211,19.194,32.737,20.634,87.28.053,2.666.48,6.291.48,9.117-10.877.16-25.379-1.066-37.375-.48-.746.053-1.759-5.385-2.506-5.385-.96.053-1.6,5.545-2.559,5.6C315.051,363.594,297.617,365.78,286.1,363.274Z" transform="translate(-286.1 -255.772)" fill="#dff3fd"/>
  </g>
  <g id="Group_131874" data-name="Group 131874" transform="translate(12.582 51.254)">
    <path id="Path_214648" data-name="Path 214648" d="M289.194,351.828s-2.453-84.241,14.769-95.544c15.249-10.877,37.855-6.078,49.212,2.4s23.406,21.86,19.994,92.772C347.257,351.828,312.867,356.254,289.194,351.828Z" transform="translate(-289.074 -249.983)" fill="#2f54a5"/>
  </g>
  <g id="Group_131875" data-name="Group 131875" transform="translate(12.595 102.074)">
    <path id="Path_214649" data-name="Path 214649" d="M289.58,359.7l-.48,20.58s11.836,6.078,44.307-20.9a44.183,44.183,0,0,1,9.7-5.012l-3.466-9.064A141.39,141.39,0,0,1,289.58,359.7Z" transform="translate(-289.1 -345.3)" fill="#234b93"/>
  </g>
  <g id="Group_131877" data-name="Group 131877" transform="translate(1.505 302.281)">
    <g id="Group_131876" data-name="Group 131876" transform="translate(0 0)">
      <path id="Path_214650" data-name="Path 214650" d="M301.73,721.547H268.62a.378.378,0,0,1,0-.746h33.11a.357.357,0,0,1,.32.373C302.05,721.387,301.943,721.547,301.73,721.547Z" transform="translate(-268.3 -720.8)"/>
    </g>
  </g>
  <g id="Group_131878" data-name="Group 131878" transform="translate(20.486 298.122)">
    <path id="Path_214651" data-name="Path 214651" d="M303.9,713l.693,4.159h12.05S316.643,715.186,303.9,713Z" transform="translate(-303.9 -713)" fill="#fdba13"/>
  </g>
  <g id="Group_131879" data-name="Group 131879" transform="translate(19.74 299.028)">
    <path id="Path_214652" data-name="Path 214652" d="M302.5,714.7a18.85,18.85,0,0,1,1.386,3.252l-.533-3.2Z" transform="translate(-302.5 -714.7)" fill="#f7a6a5"/>
  </g>
  <g id="Group_131881" data-name="Group 131881" transform="translate(63.407 302.281)">
    <g id="Group_131880" data-name="Group 131880" transform="translate(0 0)">
      <path id="Path_214653" data-name="Path 214653" d="M417.83,721.547H384.72a.378.378,0,0,1,0-.746h33.11a.378.378,0,0,1,0,.746Z" transform="translate(-384.4 -720.8)"/>
    </g>
  </g>
  <g id="Group_131882" data-name="Group 131882" transform="translate(82.388 298.122)">
    <path id="Path_214654" data-name="Path 214654" d="M420,713l.693,4.159h12.05S432.743,715.186,420,713Z" transform="translate(-420 -713)" fill="#fdba13"/>
  </g>
  <g id="Group_131883" data-name="Group 131883" transform="translate(81.641 299.028)">
    <path id="Path_214655" data-name="Path 214655" d="M418.6,714.7a18.852,18.852,0,0,1,1.386,3.252l-.533-3.2Z" transform="translate(-418.6 -714.7)" fill="#f7a6a5"/>
  </g>
  <g id="Group_131884" data-name="Group 131884" transform="translate(27.027 86.346)">
    <path id="Path_214656" data-name="Path 214656" d="M327.381,315.8s-11.73,17.328-11.2,20.9c24.419-2.719,30.711-3.572,30.711-3.572s12.636.48-2.4-2.879c-8.477-1.866-17.808-4.052-17.808-4.052S325.835,320.172,327.381,315.8Z" transform="translate(-316.167 -315.8)" fill="#234b93"/>
  </g>
  <g id="Group_131885" data-name="Group 131885" transform="translate(69.946 68.589)">
    <path id="Path_214657" data-name="Path 214657" d="M449.041,319.127l4.212-34.71a1.75,1.75,0,0,0-1.866-1.919L402.815,286.6a1.7,1.7,0,0,0-1.546,1.493l-4.585,34.763a1.687,1.687,0,0,0,1.813,1.919l48.945-4.159A1.76,1.76,0,0,0,449.041,319.127Z" transform="translate(-396.665 -282.496)" fill="#9dc8eb"/>
  </g>
  <g id="Group_131886" data-name="Group 131886" transform="translate(51.304 91.091)">
    <path id="Path_214658" data-name="Path 214658" d="M361.7,337.123c1.386.64,12.37.96,14.716-2.613s6.291-9.81,6.291-9.81a29.568,29.568,0,0,0-.16,6.345c.373,2.026,4.8-8.637,8.264-5.438s4.639,9.917-1.546,13.383-21.967,8.8-21.967,8.8Z" transform="translate(-361.7 -324.7)" fill="#f8b0af"/>
  </g>
  <g id="Group_131887" data-name="Group 131887" transform="translate(0 56.755)">
    <path id="Path_214659" data-name="Path 214659" d="M294.174,260.3c-4,2.239-32.31,28.1-28.311,55.663,3.945,25.912,66.22-1.226,66.22-1.226l-3.466-9.064H294.6s9.224-18.341,13.7-23.406C312.675,277.042,300.678,260.353,294.174,260.3Z" transform="translate(-265.476 -260.3)" fill="#2f54a5"/>
  </g>
  <g id="Group_131888" data-name="Group 131888" transform="translate(59.621 99.409)">
    <path id="Path_214660" data-name="Path 214660" d="M381.672,354.269l3.146-1.6-2.613-10.61L377.3,340.3l3.679,14.289Z" transform="translate(-377.3 -340.3)" fill="#275099"/>
  </g>
  <g id="Group_131889" data-name="Group 131889" transform="translate(98.276 85.599)">
    <path id="Path_214661" data-name="Path 214661" d="M453.319,314.453c-.16,0-.32-.053-.48-.053a3.039,3.039,0,1,0,3.039,3.039v-.053A3.031,3.031,0,0,1,453.319,314.453Z" transform="translate(-449.8 -314.4)" fill="#fff"/>
  </g>
  <g id="Group_131896" data-name="Group 131896" transform="translate(40.728)">
    <g id="Group_131890" data-name="Group 131890" transform="translate(3.856 7.46)">
      <path id="Path_214662" data-name="Path 214662" d="M369.732,214.527s-3.626-4.745-.267-7.251c3.412-2.506,10.237-1.173,10.45-4.692s-1.973-13.809-1.973-13.809,3.466-.96,1.653-2.346a35.859,35.859,0,0,1-3.626-3.306s-8.691-13.649-12.423-14.982-14.289,1.973-14.449,7.2,8.317,19.887,7.571,22.553-7.3,13.916-7.3,13.916c4.105,5.918,10.45,7.464,15.249,6.025A12.818,12.818,0,0,0,369.732,214.527Z" transform="translate(-349.096 -167.845)" fill="#f8b0af"/>
    </g>
    <g id="Group_131891" data-name="Group 131891" transform="translate(21.309 43.968)">
      <path id="Path_214663" data-name="Path 214663" d="M385.013,246.492s-4.8-6.185-2.613-9.277c1.333-1.919,9.7-.16,9.7-.16s-2.879,1.013-7.358,2.186C382.027,241.747,385.013,246.492,385.013,246.492Z" transform="translate(-381.83 -236.318)" fill="#f7a6a5"/>
    </g>
    <g id="Group_131892" data-name="Group 131892">
      <path id="Path_214664" data-name="Path 214664" d="M352.44,193.493c3.572-1.973,5.118-6.078,1.973-9.224-.906-.906,4.212-2.4,6.718.213-.16-4.159,2.186-5.492.746-8.851-.8-1.866.107-4.692,3.519-5.012s4.639-1.759,3.466-3.039,1.013-.48.693-2.772a2.249,2.249,0,0,0-2.506-1.973,4.681,4.681,0,0,0-1.919-4.212c-2.293-1.706-3.252-1.546-3.252-1.546s-.373-4.479-2.613-2.879-2.133-1.333-5.278.693-13.969,9.81-11.836,15.3c-1.066,3.679.8,9.011,6.451,12.53A17.806,17.806,0,0,1,352.44,193.493Z" transform="translate(-341.864 -153.853)" fill="#261651"/>
    </g>
    <g id="Group_131893" data-name="Group 131893" transform="translate(26.145 20.872)">
      <circle id="Ellipse_4382" data-name="Ellipse 4382" cx="1.013" cy="1.013" r="1.013" fill="#261651"/>
    </g>
    <g id="Group_131894" data-name="Group 131894" transform="translate(29.77 35.641)">
      <path id="Path_214665" data-name="Path 214665" d="M400.686,220.7a3.636,3.636,0,0,1-2.986,1.759c2.719.853,3.252,0,3.252,0Z" transform="translate(-397.7 -220.7)" fill="#261651"/>
    </g>
    <g id="Group_131895" data-name="Group 131895" transform="translate(14.935 31.056)">
      <path id="Path_214666" data-name="Path 214666" d="M372.394,215.779s-3.519-2.719-2.239-3.679C371.114,212.793,372.5,214.233,372.394,215.779Z" transform="translate(-369.875 -212.1)" fill="#f7a6a5"/>
    </g>
  </g>
</svg>
