<svg xmlns="http://www.w3.org/2000/svg" viewBox="0 0 496.5 738.9"><defs><clipPath id="b"><path d="M57 17 8 168c-3 10 0 19 7 20l369 85c11 3 24-5 28-18l64-198c5-13-2-24-14-25L76 0h-1c-7 0-15 7-18 17" transform="translate(-7)" fill="none"/></clipPath><clipPath id="d"><path fill="none" d="M0 0h124v27H0z"/></clipPath><clipPath id="e"><path fill="none" d="M0 0h259v148H0z"/></clipPath><clipPath id="f"><path fill="none" d="M0 0h162v152H0z"/></clipPath><clipPath id="h"><path fill="none" d="M0 0h47v140H0z"/></clipPath><clipPath id="i"><path fill="none" d="M0 0h9v13H0z"/></clipPath><clipPath id="j"><path fill="none" d="M0 0h7v13H0z"/></clipPath><linearGradient id="a" x1=".5" x2=".5" y2="1" gradientUnits="objectBoundingBox"><stop offset="0" stop-color="#ffbf78"/><stop offset="0" stop-color="#ffbf78"/><stop offset="1" stop-color="#ff9449"/></linearGradient><linearGradient id="c" x1=".1" y1="2.1" x2=".1" y2="2.1" gradientUnits="objectBoundingBox"><stop offset="0" stop-color="#fdcfb1"/><stop offset="1" stop-color="#f97e2b"/></linearGradient><linearGradient id="g" x1=".5" y1=".9" x2=".8" gradientUnits="objectBoundingBox"><stop offset="0" stop-color="#ffcc4b"/><stop offset="1" stop-color="#fe5307"/></linearGradient></defs><path d="M259 205c-64 63-57 85-54 122s-78 45-51 124h-17S22 430 35 372c14-59 101 10 103-32 1-41-56-93-33-116s35 53 70 33c36-20-23-72-14-109s34 5 79 20c42 14 16-95 50-83 7 28 11 78-31 120" transform="translate(98 239)" fill="url(#a)"/><path d="M221 287c-12 38-109 60-71 90 39 30 4 73 4 73H70c-28-79 53-87 50-123-3-38-9-60 54-123 42-42 39-92 32-119a38 38 0 0 1 10 5c48 38-12 113-24 130s41 28 29 67" transform="translate(182 240)" opacity=".4" fill="url(#a)"/><path d="M243 580c-7 7-7 23-6 29-2 4-6 11-7 16a73 73 0 0 0-9-15 71 71 0 0 1-8-13 47 47 0 0 0-5-14 58 58 0 0 1 1-30c7-3 11-6 16-13 6-8-9-21-16-13-6 8-3 25-2 27a60 60 0 0 0-2 24l-2-2c-7-9-26 4-19 14 6 8 22 10 27 10a74 74 0 0 0 8 12c11 14 15 31 17 46-3-3-7-4-10-6-4-7-8-12-17-17-10-6-23 12-13 19 8 6 24 2 29 1 4 1 9 3 11 6a116 116 0 0 1-3 30 1 1 0 0 0 1 1 1 1 0 0 0 2-1s7-31-4-61c-1-3 3-13 7-20 8-3 14-6 21-13 7-8-8-25-17-17" fill="#fee6d7"/><path d="M74 309c1 2 143 0 143 0s25-30-17-52c-23-12 18-35 5-59s-39 7-50-15-35-69-44-39 37 48 6 71-68 34-31 42-32 22-12 52" transform="translate(200 381)" fill="url(#a)"/><path d="M182 205c-10 1-20 14-23 19l-16 8a75 75 0 0 0 2-17 74 74 0 0 1 1-10c7 3 14 4 23 2 11-2 10-24-2-23-7 0-14 6-18 11a43 43 0 0 0 3-10 59 59 0 0 1 20-23c8 2 13 2 22 0 10-3 6-23-5-21-10 2-18 18-19 20a62 62 0 0 0-17 18v-3c0-11-23-14-24-1-1 10 11 22 15 26a76 76 0 0 0-1 14v4a46 46 0 0 0-3-12c-4-11-26-5-23 7 3 9 17 16 22 19 0 0 1 7-13 29 0-3-2-7-4-10 1-9 2-16-2-26s-26-5-23 8c3 10 18 17 23 19 2 3 5 9 4 12a119 119 0 0 1-21 22 1 1 0 0 0 0 1 1 1 0 0 0 0 1 1 1 0 0 0 2 0c0-1 26-21 36-52 1-3 11-8 18-11 9 3 15 5 26 3s9-24-3-24" transform="translate(276 401)" opacity=".4" fill="url(#a)"/><g clip-path="url(#b)" transform="translate(26)"><path d="m92-18 538 83-108 333-538-83Z" transform="translate(-71 -52)" fill="url(#c)"/></g><g clip-path="url(#d)" transform="translate(75 6)" opacity=".6" style="mix-blend-mode:soft-light;isolation:isolate"><path d="M19 26c27 2 53 1 84-8a200 200 0 0 0 21-9L16 0C12 0 7 4 5 10L0 25l19 1" fill="#fff"/></g><g clip-path="url(#e)" transform="translate(210 118)" opacity=".2" style="mix-blend-mode:multiply;isolation:isolate"><path d="M191 54C129 88 63 98 8 104l-8 1 191 43c10 2 22-5 26-17L259 0a273 273 0 0 1-68 54" fill="#1a2326"/></g><path d="M117 75a5 5 0 0 1 4-1c3 0 6 2 10 5l7-12a23 23 0 0 0-12-6 19 19 0 0 0-14 4q-6 4-9 12a25 25 0 0 0-1 7 14 14 0 0 0 1 6 21 21 0 0 0 5 6 48 48 0 0 1 5 5 5 5 0 0 1 1 2 4 4 0 0 1-1 2 5 5 0 0 1-2 3 6 6 0 0 1-4 1 18 18 0 0 1-6-3 24 24 0 0 1-6-4l-5 14a18 18 0 0 0 6 4 26 26 0 0 0 7 2 19 19 0 0 0 9-1 21 21 0 0 0 9-6 27 27 0 0 0 5-10c1-4 2-7 1-10q-1-4-6-8l-5-6a4 4 0 0 1-1-4 5 5 0 0 1 2-2M146 65l-19 60 12 2 20-61ZM176 108l8 1-3 10a20 20 0 0 1-5 0 7 7 0 0 1-7-6c-1-3 0-8 1-14q3-8 8-13a12 12 0 0 1 10-3 18 18 0 0 1 11 4l8-12a26 26 0 0 0-6-4 30 30 0 0 0-8-2 28 28 0 0 0-22 6q-9 7-14 22-4 15-1 24c2 6 7 10 14 11a50 50 0 0 0 20-1l11-33-21-3ZM261 77h-5l-2 6-7 23-5 16-3-28-1-19-18-2-17 50-4 13 12 2 9-29 1-1 4-15 1 11 3 37 19 3 21-66ZM334 86l-7 20-3 11-3 8c-1 5-3 9-5 11a9 9 0 0 1-8 2c-3-1-5-2-6-4-1-3 0-6 1-11l13-39-15-2-13 40q-5 13-1 21t16 10a30 30 0 0 0 12 0 25 25 0 0 0 8-4 33 33 0 0 0 10-11 51 51 0 0 0 4-9l2-8 11-34ZM400 99q-4-7-16-8l-21-2-15 44-5 18-3 7 9 1 8 1 3-11 4-12 5 1c7 1 14 0 19-4a29 29 0 0 0 3-2l1-1c4-4 6-8 8-15q4-10 0-17m-26 7h5c4 1 6 4 4 8a12 12 0 0 1-4 7 9 9 0 0 1-7 1h-3Z" fill="#fff"/><path d="M208 181c1 0 3 11 5 13l4 3-2 2 1 4s-5 17-9 18-4 1-5 4 11 14 11 14-11 7-26 4-1-21 0-28 15-35 21-34" fill="#fff4e6"/><path d="M199 193s7 13 10 14 7-5 7-5 7 17-3 18l-10 2s6-8 3-11-8-1-8-1 0 19-11 12-32-17-19-30 16-7 24-18 1-21 14-14 19 29-7 33" fill="#2e2c33"/><path d="M216 210a3 3 0 0 1-2 0 1 1 0 0 1 0-1 2 2 0 0 0 2 0l1-2a1 1 0 0 1 1 1 3 3 0 0 1-2 2" fill="#fff"/><path d="m207 193 4-1-3-1c-2 0-2 2-1 2M211 195a1 1 0 1 1-1-1 1 1 0 0 0 0 1 1 1 0 0 0 1-1 2 2 0 0 1 0 1" fill="#2e2c33"/><path d="m101 683-5 22s3 13 2 14-9-12-9-17v-20Z" fill="#fff4e6"/><path d="M86 706s2-6 3-5l9 18c1 2 4 0 4 1s-4 4-6 3-11-12-10-17" fill="#2d305e"/><path d="M88 698h10c1 1-1 7-1 7s4 15 2 15-9-12-10-15-3 2-3 2l2-9" fill="#2d305e"/><path d="M97 723a6 6 0 0 1-5-1c-2-1-8-12-6-15s4 3 4 3l7 13" fill="#343239"/><path d="M88 693s7 4 14-1c0 0 48-122 58-208 2-22 2-42-2-57s-10-25-17-29c-12-8-27-3-39 4a124 124 0 0 0-20 16l-6 6-1 7-2 24c-6 54-12 169 15 238" fill="#2e2c33"/><path d="M221 699c-1 1 2 22 2 22l5 13c-1 1-12-9-13-14l-6-19Z" fill="#fff4e6"/><path d="M213 725s0-7 1-6l14 14 4 1c0 1-3 5-5 4s-14-8-14-13" fill="#2d305e"/><path d="M213 716s9-2 10 0a7 7 0 0 1 0 5s6 12 7 13-2 3-2 3-11-12-13-12-2-9-2-9" fill="#2d305e"/><path d="M228 738a6 6 0 0 1-5 1c-2-1-11-10-10-13s5 2 5 2l10 10" fill="#343239"/><path d="M216 438c34 59 10 267 7 270-5 4-13 2-13 2s-99-220-88-273 83-20 94 1" fill="#3f3d43"/><g clip-path="url(#f)" transform="translate(72 409)" opacity=".2" style="mix-blend-mode:multiply;isolation:isolate"><path d="M0 60c3 16 19 29 34 32a35 35 0 0 0 22-2c6-2 11-5 18-5l13 5a35 35 0 0 0 8 2 31 31 0 0 0 11-1c4 0 7-3 10-5 5-4 11-8 18-7a19 19 0 0 1 13 7c6 8 8 19 10 29l5 37c0-50-4-99-18-123-8-15-50-38-76-26a29 29 0 0 0-11 9c-8-4-18-7-27-4-7 2-14 7-20 16a71 71 0 0 0-6 9 30 30 0 0 0-1 3L0 60" fill="#1a2326"/></g><path d="M134 234c-19-13-52-22-52-22l-35-91-5 7s-2 49 16 102c18 52 69 39 69 39s19-27 7-35" fill="#fff4e6"/><path d="M115 72c-4-10-82-15-82-15-8 10 4 20-1 31-2 4-6 8-7 13a58 58 0 0 0 0 9c29 13 58 17 58 17s38-41 32-55" transform="translate(71 161)" fill="url(#a)"/><path d="M155 68c-21 7-11 4-26-6-4-3-26-5-29-3-73 50-82 208-82 208s44 65 153 12c0 0 33-186-16-211" transform="translate(52 165)" fill="url(#g)"/><g clip-path="url(#h)" transform="translate(187 318)" opacity=".2" style="mix-blend-mode:multiply;isolation:isolate"><path d="m41 12 2 25c0 8-3 15-6 22a44 44 0 0 0-4 11 64 64 0 0 0 0 10c0 7 0 14-2 20-3 6-7 10-13 14-4 3-10 6-13 11s-4 10-5 15a235 235 0 0 0 36-14S48 59 47 0a21 21 0 0 0-6 12" fill="#1a2326"/></g><path d="m43 113 5 3c1 2 0 5-1 6a48 48 0 0 0-4-9" fill="#fff"/><path d="m47 117 1-1-1 6a21 21 0 0 0-1-3 4 4 0 0 0 1-2" fill="#fff"/><path d="M37 123a18 18 0 0 1-1-2l-1-1s-2-3-1-4a1 1 0 0 1 1 0 2 2 0 0 1 1-2 1 1 0 0 1 1 0 1 1 0 0 1 1-1 2 2 0 0 1 2 0s0-2 2-2 2 3 2 3l1 1c2 9 8 18 7 19 0 0-7 6-8 5l-2-13a6 6 0 0 1-5-3" fill="#fff"/><g clip-path="url(#i)" transform="translate(34 111)" opacity=".2"><path d="M2 10 1 9 0 5a1 1 0 0 1 1 0 2 2 0 0 1 1-2 1 1 0 0 1 2 0 1 1 0 0 1 0-2 2 2 0 0 1 2 0s0-1 2-1a2 2 0 0 1 1 1 3 3 0 0 0-2 0 1 1 0 0 0 0 1L6 3a3 3 0 0 0-2 0 5 5 0 0 0 0 1 2 2 0 0 1-1 1 3 3 0 0 0-1 0 2 2 0 0 0 0 2 7 7 0 0 0 0 2l1 1a24 24 0 0 0 1 3 7 7 0 0 1-1-1 18 18 0 0 1-1-2" fill="#fff"/></g><path d="M208 227s-5 3-16 1-10-4-10-4-5 1-8 10 21 10 30 3 9-5 9-5Z" fill="#3f3d43"/><path d="m442 219-5 1c-2 2-3 4-2 5a49 49 0 0 1 7-6" fill="#fff"/><path d="M437 222v-2c-2 2-3 4-2 5a21 21 0 0 1 2-2 4 4 0 0 1 0-1" fill="#fff"/><path d="M442 232a17 17 0 0 0 2-1l1-1s4-2 3-3a1 1 0 0 0 0-1 2 2 0 0 0 0-2 1 1 0 0 0-1 0 1 1 0 0 0 0-2 2 2 0 0 0-2-1s1-1 0-2-4 1-4 1h-1a2 2 0 0 0-1 1c-5 6-19 10-19 12l3 6 14-7a6 6 0 0 0 5 0" fill="#fff"/><g clip-path="url(#j)" transform="translate(441 219)" opacity=".2"><path d="m3 12 1-1s3-1 3-3a1 1 0 0 0-1-1 2 2 0 0 0 0-1 1 1 0 0 0-1-1 1 1 0 0 0 0-2 2 2 0 0 0-1-1s1-1-1-2a2 2 0 0 0-2 0 3 3 0 0 1 2 1 2 2 0 0 1 0 1l1 1a3 3 0 0 1 0 2 5 5 0 0 1 1 1 2 2 0 0 0 0 1 3 3 0 0 1 0 1 2 2 0 0 1 0 2 7 7 0 0 1-1 1l-2 1a26 26 0 0 1-2 1 7 7 0 0 0 1 0 17 17 0 0 0 2-1" fill="#fff"/></g><path d="m435 224-102 26s-50 3-86-1l3 50c23-6 60-9 82-12 39-4 103-48 105-55a40 40 0 0 0-2-8" fill="#fff4e6"/><path d="M119 72c-26-2-49-6-60-10-18-7 20 73 20 73s12-5 37-10c0-18 3-35 3-53" transform="translate(154 174)" fill="url(#a)"/><path d="M138 85h-8v-9a2 2 0 1 0-4 0v9h-8a2 2 0 1 0 0 3h8v9a2 2 0 1 0 4 0v-9h8a2 2 0 1 0 0-3" transform="translate(331 212)" opacity=".4" fill="url(#a)"/><path d="M13 104a13 13 0 1 1 14-13 13 13 0 0 1-14 13m0-21a8 8 0 1 0 9 8 8 8 0 0 0-9-8" transform="translate(0 220)" opacity=".4" fill="url(#a)"/></svg>