<svg xmlns="http://www.w3.org/2000/svg" viewBox="0 0 609.6 655.9"><defs><clipPath id="c"><path fill="#ffd8a8" d="M0 0h121v274H0z"/></clipPath><clipPath id="e"><path fill="none" d="M0 0h74v95H0z"/></clipPath><clipPath id="g"><path fill="#32393f" d="M0 0h181v37H0z"/></clipPath><clipPath id="i"><path fill="#ffd8a8" d="M0 0h69v158H0z"/></clipPath><clipPath id="j"><path fill="#ffd8a8" d="M0 0h35v22H0z"/></clipPath><clipPath id="k"><path d="M570 127v84a33 33 0 0 1-32 28H263a33 33 0 0 1-33-31v-81a27 27 0 0 1 27-27h287a27 27 0 0 1 26 27" transform="translate(-230 -100)" fill="url(#a)"/></clipPath><linearGradient id="a" x1="1" x2="0" y2="1" gradientUnits="objectBoundingBox"><stop offset="0" stop-color="#bfdfff"/><stop offset="1" stop-color="#d593ec"/></linearGradient><linearGradient id="b" x1=".5" x2=".5" y2="1" gradientUnits="objectBoundingBox"><stop offset="0" stop-color="#ffd4e6"/><stop offset="1" stop-color="#ffff8f"/></linearGradient><linearGradient id="d" x1=".5" x2=".5" y2="1" gradientUnits="objectBoundingBox"><stop offset="0" stop-color="#ffbf78"/><stop offset="0" stop-color="#ffbf78"/><stop offset="1" stop-color="#ff9449"/></linearGradient><linearGradient id="f" x1=".5" y1=".9" x2=".4" y2="0" gradientUnits="objectBoundingBox"><stop offset="0" stop-color="#ffcc4b"/><stop offset="1" stop-color="#fe5307"/></linearGradient><linearGradient id="h" x1=".5" x2=".5" y2="1" gradientUnits="objectBoundingBox"><stop offset="0" stop-color="#4b6cb7"/><stop offset="1" stop-color="#182848"/></linearGradient></defs><path d="M777 340c0 120-68 223-168 273l-17 8a295 295 0 0 1-29 11 306 306 0 0 1-214-13l-1-1a305 305 0 0 1-180-278 305 305 0 0 1 609 0" transform="translate(-168 -36)" opacity=".2" fill="url(#b)"/><path d="M167 336c-2 15-5 29-9 37-17 30-81 236-81 236l11 4v-1c2-3 63-83 89-143 12-27 23-78 31-126l-41-7" fill="#ffe8cc"/><g clip-path="url(#c)" transform="translate(88 338)" opacity=".6"><path d="m94 0-3 35c0 33-29 134-51 165-21 31-39 72-40 74 2-3 64-83 90-143 12-27 23-79 31-126L94 0" fill="#ffd8a8"/></g><path d="M294 100s-96 80-90 155c0 0 88 35 96 19s-6-174-6-174" transform="translate(-65 146)" fill="url(#d)"/><path d="M87 613s9 13 6 21-16 32-25 17-16-38 9-42Z" fill="#ffe8cc"/><path d="M67 623s9 0 12-6c0 0 0 12-12 6" fill="#ffd8a8"/><path d="M63 628s18-4 20-2 7 17 0 22c0 0 3-14-2-19Z" fill="#ffd8a8"/><g clip-path="url(#e)" transform="translate(99 146)" opacity=".5"><path d="M37 95a6 6 0 0 1-1 0C18 89 7 74 2 51a120 120 0 0 1-1-33v-2h3C19 16 32 5 35 2h1l1-2 2 2c4 3 16 14 32 14h3v2a120 120 0 0 1-2 33c-4 23-16 38-34 44h-1Z" fill="#fee5d5"/></g><path d="m230 155-3 1a2 2 0 0 1-1 0c-37-11-31-67-31-67 16 0 28-10 31-13h1c3 3 15 13 31 13 0 0 6 53-28 66" transform="translate(-90 78)" opacity=".7" fill="url(#d)"/><path d="M314 74h-3c0-2 0-7-3-10a9 9 0 0 0-7-3 9 9 0 0 0-7 3c-2 3-3 8-2 10h-3a3 3 0 0 0-3 3v25a3 3 0 0 0 3 2h25a3 3 0 0 0 2-2V77a3 3 0 0 0-2-3m-17-8a6 6 0 0 1 4-2 5 5 0 0 1 5 2c2 2 2 6 2 8h-13c0-2 0-6 2-8" transform="translate(170 36)" opacity=".7" fill="url(#d)"/><path d="M468 464a295 295 0 0 1-29 11 306 306 0 0 1-214-12l-1-1c-7-27-11-60-12-94-4-99 7-257 127-277 46-7 120 83 125 139 6 78 7 175 4 234" transform="translate(-44 121)" fill="url(#f)"/><g clip-path="url(#g)" transform="translate(246 525)" opacity=".2"><path d="M0 18s40 26 61 17 115 2 117-5 3-30 3-30Z" fill="#b0afaf"/></g><path d="M478 519c-5 6-15 11-28 14-52 13-150 9-150 9s-4-16-1-16 124-36 126-45c1-7-7-51-6-77 0-7 1-12 3-16 10-15 50-13 50-13s30 115 6 144" fill="#ffe8cc"/><path d="M298 540h2s-1-8-20-28-21-14-25-13-34 17-26 26 69 15 69 15" fill="#373e4b"/><path d="M269 213s-35-15-41-23 23-25 31-24 42 36 40 38-25 10-30 9" transform="translate(1 336)" fill="url(#h)"/><path d="M299 526a190 190 0 0 1-19-15c-9-8 0 11 0 11s-50 15-29 22 49-2 49-2Z" fill="#ffe8cc"/><g clip-path="url(#i)" transform="translate(419 375)" opacity=".6"><path d="M59 144c-5 6-15 11-28 14-10-5 8-18 23-27 20-11 7-101 0-95S5 34 5 34a12 12 0 0 1-5-5c0-7 1-12 3-15C13-1 53 0 53 0s30 115 6 144" fill="#ffd8a8"/></g><path d="M254 93s130 34 149 171c0 0-50 20-65 9S254 93 254 93" transform="translate(78 128)" fill="url(#d)"/><path d="m270 222 6-33 30-2 9 29s1 18-20 19c-22 1-25-11-25-13" fill="#ffe8cc"/><g clip-path="url(#j)" transform="translate(275 189)" opacity=".6"><path d="M0 9s12 19 19 12 16-9 16-9L31 0Z" fill="#ffd8a8"/></g><path d="M233 132s-53-39 13-77c14-9 48-4 66 11 30-5 30 33 24 49-15 37-2 70-38 74-21 2-65-57-65-57" fill="#2e2c33"/><path d="M323 141c-3 13-1 50-39 61s-48-62-47-67c0-1-6-11-4-10 33 6 35-10 58-10l21 24c-1-24 8-28 8-28s8-7 9 6c2 12-6 24-6 24" fill="#ffe8cc"/><path d="M268 167c-3 0-5-3-5-3a1 1 0 0 1 2-1 5 5 0 0 0 3 2l3-3a1 1 0 0 1 2 2c-2 2-3 3-5 3M275 137s13 1 15 0-3-4-9-4-8 4-6 4M286 144a3 3 0 1 1-7 0c0-2 2-4 4-4a3 3 0 0 1 1 1 2 2 0 0 0-1 2 2 2 0 0 0 2 1 2 2 0 0 0 1-1 4 4 0 0 1 0 1M239 137s13 1 15 0-2-4-8-4-8 4-7 4M250 144a3 3 0 1 1-6 0c0-2 1-4 3-4a3 3 0 0 1 2 1 2 2 0 0 0-2 2 2 2 0 0 0 2 1 2 2 0 0 0 1-1 4 4 0 0 1 0 1" fill="#2e2c33"/><path d="M261 183s8 5 23-3c0 0-12 17-23 3" fill="#fff"/><path d="M321 113s7 4 6 8l-4 8 2-9c0-3-5-6-4-7" fill="#2e2c33"/><g transform="translate(241 247)" clip-path="url(#k)"><path fill="url(#a)" d="M0 0h340v139H0z"/></g><path fill="#fff" d="M273 350h58v3h-58zM347 350h58v3h-58zM421 350h58v3h-58zM495 350h58v3h-58zM311 292l-8 11 13-2v6l-13-1 8 10-5 3-5-12-6 12-5-3 8-10-12 1v-6l12 2-8-10 6-3 5 11 5-11ZM384 292l-8 11 13-2v6l-13-1 9 10-6 3-5-12-5 12-5-3 8-10-13 1v-6l13 2-8-10 5-3 5 11 5-11ZM458 292l-8 11 12-2v6l-12-1 8 10-5 3-6-12-5 12-5-3 8-10-12 1v-6l12 2-8-10 5-3 5 11h1l5-11ZM536 292l-8 11 13-2v6l-13-1 9 10-6 3-5-12-5 12-5-3 8-10-13 1v-6l13 2-8-10 5-3 5 11 5-11Z"/></svg>