<svg xmlns="http://www.w3.org/2000/svg" xmlns:xlink="http://www.w3.org/1999/xlink" width="318" height="62" viewBox="0 0 318 62"><defs><radialGradient id="a" cx="0.5" cy="0.5" r="0.5" gradientUnits="objectBoundingBox"><stop offset="0" stop-color="#fff"/><stop offset="0.798" stop-color="#fff" stop-opacity="0.694"/><stop offset="1" stop-color="#fff" stop-opacity="0.333"/></radialGradient></defs><g transform="translate(-142 -59)"><rect width="318" height="62" transform="translate(142 59)" fill="#fff" opacity="0"/><g transform="translate(-20.489 -3141.293)"><g transform="translate(19130.854 -3044.477)"><path d="M6.554-19.523H8.413a25.344,25.344,0,0,1-.171,3.155,11.845,11.845,0,0,0,2.739-1.785l1.174,1.492a18.744,18.744,0,0,1-3.669,2.079,24.366,24.366,0,0,1,3.571,2.69l-1.3,1.59A26.035,26.035,0,0,0,7.19-13.262a9.429,9.429,0,0,1-3.766,3.057l-1.272-1.37A8.075,8.075,0,0,0,5.5-14.094Q6.554-15.415,6.554-19.523Zm10.565,0h1.859a24.745,24.745,0,0,1-.171,3.131,10.984,10.984,0,0,0,2.935-1.957l1.174,1.492a18.914,18.914,0,0,1-4.011,2.323,24.266,24.266,0,0,1,3.815,2.764l-1.272,1.565a25.807,25.807,0,0,0-3.791-2.984A9.4,9.4,0,0,1,13.989-10.3l-1.272-1.37a7.9,7.9,0,0,0,3.351-2.495Q17.12-15.464,17.12-19.523ZM23.5-10.034v4.72H21.449V-8.151H3.742V-5.51H1.687v-4.525ZM4.035-5.51h6.359a17.025,17.025,0,0,0,.367-2.275l2.054.318q-.122,1.027-.293,1.957h8.34q-.122,5.992-1.2,7.484A2.933,2.933,0,0,1,17.242,3a31.087,31.087,0,0,1-3.815-.318L12.913.629a36.686,36.686,0,0,0,4.329.318A.878.878,0,0,0,18.074.36a16.394,16.394,0,0,0,.44-4.133H12.057A10.967,10.967,0,0,1,10.027-.08,12.78,12.78,0,0,1,3.522,3.393L2.666,1.436A11.378,11.378,0,0,0,8.487-1.572a6.667,6.667,0,0,0,1.37-2.2H4.035ZM3.326-18.154a14.67,14.67,0,0,1,1.859,3.131l-1.541.88a14.354,14.354,0,0,0-1.761-3.033Zm10.468-.1a15.5,15.5,0,0,1,1.883,3.131l-1.565.88a14.354,14.354,0,0,0-1.761-3.033Zm27.3-.758,1.149,1.541q-2.4.245-5.087.416v1.736H42.54v1.688H37.159v1.37h4.818v7.7H37.159v1.59h4.72v1.541h-4.72V.067q2.764-.147,5.014-.293L42.3.825A15.8,15.8,0,0,0,44.227-3.5a37.611,37.611,0,0,0,1.052-9.147H42.858V-14.51H45.3v-4.916H47.26v4.916h4.671A126.016,126.016,0,0,1,51.222.678a3.076,3.076,0,0,1-.9,1.883,2.725,2.725,0,0,1-1.81.636A12.864,12.864,0,0,1,45.988,2.9l-.2-2.152a12.391,12.391,0,0,0,2.715.391.634.634,0,0,0,.587-.465,5.091,5.091,0,0,0,.367-1.859q.391-5.332.44-11.47H47.235a39.218,39.218,0,0,1-1.3,10.37,14.223,14.223,0,0,1-3.082,5.576l-1.394-1.37a4.806,4.806,0,0,0,.514-.66Q36.645,1.9,30.14,2.317L29.822.36q2.935-.1,5.5-.22V-1.425H30.531V-2.966h4.794v-1.59H30.531v-7.7h4.794v-1.37h-5.6v-1.688h5.6v-1.59q-2.079.147-4.329.245l-.758-1.492Q35.667-18.423,41.1-19.01ZM32.39-6.194h2.935V-7.686H32.39Zm4.769-1.492v1.492h2.935V-7.686ZM32.39-9.129h2.935V-10.6H32.39ZM37.159-10.6v1.467h2.935V-10.6Zm27.376-8.829a11.622,11.622,0,0,1,1.052,2.568h4.94v1.834H67.764l1.785.611a24.243,24.243,0,0,1-.9,2.641q-.293.758-.587,1.37H70.8v1.957H58.176V-10.4h3.253a25.066,25.066,0,0,0-1.467-4.011l1.3-.611h-2.69v-1.834h4.745a9.328,9.328,0,0,0-.734-1.957ZM63.508-10.4H65.88a17.5,17.5,0,0,0,.734-1.81,19.877,19.877,0,0,0,.856-2.813h-5.65A32.011,32.011,0,0,1,63.508-10.4Zm5.845,3.913V2.684H67.4V1.338H61.5V2.9H59.546V-6.488ZM61.5-.545H67.4V-4.654H61.5ZM80.9-18.349,77.742-9.814a11.992,11.992,0,0,1,2.177,2.837,7.05,7.05,0,0,1,.88,3.2Q80.75.164,77.253.164a14.564,14.564,0,0,1-2.054-.2l-.465-2.348a8.362,8.362,0,0,0,2.519.489q1.443,0,1.492-1.883a5.522,5.522,0,0,0-.685-2.544,9.108,9.108,0,0,0-2.446-3.008l2.4-7.068H73.927V3.1H71.872V-18.349Zm11.308-1.174h1.859a25.343,25.343,0,0,1-.171,3.155,11.845,11.845,0,0,0,2.739-1.785l1.174,1.492a18.745,18.745,0,0,1-3.669,2.079,24.366,24.366,0,0,1,3.571,2.69l-1.3,1.59a26.034,26.034,0,0,0-3.571-2.959,9.429,9.429,0,0,1-3.766,3.057L87.8-11.575a8.075,8.075,0,0,0,3.351-2.519Q92.205-15.415,92.205-19.523Zm10.565,0h1.859a24.744,24.744,0,0,1-.171,3.131,10.984,10.984,0,0,0,2.935-1.957l1.174,1.492a18.914,18.914,0,0,1-4.011,2.323,24.266,24.266,0,0,1,3.815,2.764L107.1-10.205a25.807,25.807,0,0,0-3.791-2.984A9.4,9.4,0,0,1,99.64-10.3l-1.272-1.37a7.9,7.9,0,0,0,3.351-2.495Q102.77-15.464,102.77-19.523Zm6.383,9.489v4.72H107.1V-8.151H89.392V-5.51H87.338v-4.525ZM89.686-5.51h6.359a17.027,17.027,0,0,0,.367-2.275l2.054.318q-.122,1.027-.293,1.957h8.34q-.122,5.992-1.2,7.484A2.933,2.933,0,0,1,102.893,3a31.087,31.087,0,0,1-3.815-.318L98.564.629a36.685,36.685,0,0,0,4.329.318.878.878,0,0,0,.832-.587,16.394,16.394,0,0,0,.44-4.133H97.708A10.967,10.967,0,0,1,95.678-.08a12.78,12.78,0,0,1-6.506,3.473l-.856-1.957a11.378,11.378,0,0,0,5.821-3.008,6.667,6.667,0,0,0,1.37-2.2H89.686Zm-.709-12.644a14.67,14.67,0,0,1,1.859,3.131l-1.541.88a14.354,14.354,0,0,0-1.761-3.033Zm10.468-.1a15.5,15.5,0,0,1,1.883,3.131l-1.565.88A14.354,14.354,0,0,0,98-17.273Zm27.3-.758,1.149,1.541q-2.4.245-5.087.416v1.736h5.381v1.688H122.81v1.37h4.818v7.7H122.81v1.59h4.72v1.541h-4.72V.067q2.764-.147,5.014-.293l.122,1.052A15.8,15.8,0,0,0,129.878-3.5a37.612,37.612,0,0,0,1.052-9.147h-2.421V-14.51h2.446v-4.916h1.957v4.916h4.671A126.021,126.021,0,0,1,136.872.678a3.076,3.076,0,0,1-.9,1.883,2.725,2.725,0,0,1-1.81.636,12.864,12.864,0,0,1-2.519-.293l-.2-2.152a12.391,12.391,0,0,0,2.715.391.634.634,0,0,0,.587-.465,5.092,5.092,0,0,0,.367-1.859q.391-5.332.44-11.47h-2.666a39.218,39.218,0,0,1-1.3,10.37,14.223,14.223,0,0,1-3.082,5.576l-1.394-1.37a4.805,4.805,0,0,0,.514-.66Q122.3,1.9,115.79,2.317L115.472.36q2.935-.1,5.5-.22V-1.425h-4.794V-2.966h4.794v-1.59h-4.794v-7.7h4.794v-1.37h-5.6v-1.688h5.6v-1.59q-2.079.147-4.329.245l-.758-1.492Q121.318-18.423,126.747-19.01ZM118.04-6.194h2.935V-7.686H118.04Zm4.769-1.492v1.492h2.935V-7.686ZM118.04-9.129h2.935V-10.6H118.04ZM122.81-10.6v1.467h2.935V-10.6Zm22.7-3.742h7.875q.122-2.1.122-4.573h2.152q0,2.47-.122,4.573h9.245q0,10.932-.587,13.7a4.328,4.328,0,0,1-1.3,2.69,4.745,4.745,0,0,1-2.617.636,33.123,33.123,0,0,1-4.207-.269L155.566.067a31.826,31.826,0,0,0,4.72.367,1.556,1.556,0,0,0,1.321-.465,5.675,5.675,0,0,0,.514-2.226q.318-3.326.318-9.93H155.4q-.562,6.506-2.348,9.074a19.53,19.53,0,0,1-6.97,6.31L144.9,1.338a17.872,17.872,0,0,0,6.285-5.772q1.516-2.323,2.03-7.753h-7.7ZM188.641-10.3h-2.617a5.487,5.487,0,0,1-.88,2.984,4.286,4.286,0,0,1-2.3,1.59l-.88-1.736a3.674,3.674,0,0,0,1.663-1.125,7.5,7.5,0,0,0,.587-3.6h5.234a13.761,13.761,0,0,1-1.834-1.37,12.544,12.544,0,0,1-3.693-5.454l1.785-.514A8.239,8.239,0,0,0,187-17a13.42,13.42,0,0,0,3.106-2.519l1.247,1.492a17.612,17.612,0,0,1-3.13,2.372q.465.44.978.856a2.67,2.67,0,0,1,.22.2,13.383,13.383,0,0,0,3.326-2.861L194.022-16a18.719,18.719,0,0,1-2.91,2.495,21.548,21.548,0,0,0,4.182,1.736l-1.467,1.639A18.128,18.128,0,0,1,190.6-11.5v2.372q0,.685.587.685h2.641v1.736h-3.033q-2.152,0-2.152-1.736Zm-13.133,2.25h4.133v-2.079h-3.62V-10.3a16.17,16.17,0,0,1-2.837.978l-.978-1.883a15,15,0,0,0,4.158-1.492,19.441,19.441,0,0,0-2.495-2.323l1.272-1.37a17.458,17.458,0,0,1,2.984,2.519,10.126,10.126,0,0,0,2.519-3.082H174.26v-1.859h8.682v1.345a12.7,12.7,0,0,1-3.644,5.112q-.318.245-.611.465h2.91v5.6h-4.94l-.489,1.859h5.7Q181.231.9,180.2,2a2.982,2.982,0,0,1-2.348.9h-2.421l-.2-1.957a23.769,23.769,0,0,0,2.617.2A1.094,1.094,0,0,0,178.834.6a8,8,0,0,0,.88-3.3h-5.968l1.394-5.356Zm8.34,4.476h-1.076V-5.412h9.661V-4.14a9.315,9.315,0,0,1-1.614,3.057,4.817,4.817,0,0,1-.489.514q1.761,1,3.4,2.079L192.334,3.2q-1.761-1.272-3.6-2.372-.587.367-1.2.709A14.568,14.568,0,0,1,182.478,3.1l-.514-1.859a11.917,11.917,0,0,0,4.256-1.2,4.275,4.275,0,0,0,.611-.318q-2.054-1.149-4.158-2.1Zm4.7,2.03q.2-.22.391-.416a7.228,7.228,0,0,0,1.125-1.614h-5.894Q186.44-2.624,188.543-1.548Zm31.094-15.31h-14.5v1.834h14.5Zm-14.5,3.693v2.47h4.3v-1.957H211.4v1.957h4.4v-1.957h1.957v1.957h4.207V-8.86h-4.207v2.666h5.283v1.859H209.072V1.02q2.2-.538,4.573-1.37l.318,1.785a38.861,38.861,0,0,1-6.383,1.859l-.856-1.785a.722.722,0,0,0,.391-.563V-4.336h-2.226q-.122,1.125-.318,2.2a26.93,26.93,0,0,1-1.59,5.234l-1.957-1.076a34.726,34.726,0,0,0,1.639-5.6A41.11,41.11,0,0,0,203.08-9.4v-9.318h18.514v5.552Zm-.073,6.97h4.378V-8.86h-4.3v.1Q205.134-7.466,205.061-6.194Zm6.334,0h4.4V-8.86h-4.4Zm8.144,2.348,1.272,1.467A17.6,17.6,0,0,1,217.974-.52a9.515,9.515,0,0,0,1.59.685,16.531,16.531,0,0,0,3.889.978l-.88,1.957a21.827,21.827,0,0,1-4.231-1.3,9.823,9.823,0,0,1-3.033-1.834,9.325,9.325,0,0,1-2.226-3.228l1.736-.587a8.289,8.289,0,0,0,1.516,2.152A13.792,13.792,0,0,0,219.539-3.846Zm11.308-14.772h19.981v5.283H230.847ZM232.8-14.9h4.207v-2.177H232.8Zm6.065-2.177V-14.9H242.9v-2.177Zm5.894,0V-14.9h4.109v-2.177Zm-13.6,5.405H238.8v-1.2h2.054v1.2h5.283v1.345q2.177-.954,4.109-2.03l1.174,1.247a44.143,44.143,0,0,1-4.378,2.25H252.1v1.59h-8.976q-.587.22-1.223.416-1.761.611-3.62,1.125H249.63V3.1h-2.054V2.023h-12.2V3.1h-2.054V-4.385q-1.59.367-3.228.709l-.783-1.639q4.451-.88,8.266-1.957h-8V-8.86h9.22v-1.272h-7.631Zm4.207,12.2h12.2V-1.009h-12.2Zm0-3.033h12.2V-4.14h-12.2Zm7.019-6.359q1.712-.587,3.277-1.272H240.85V-8.86Z" transform="translate(-18908.975 6279)"/><path d="M8.6-6.2,6.872.471H6.053L4.372-5.008,2.69.471h-.8L.147-6.2H.967L2.332-.817,3.971-6.2h.8L6.42-.817,7.786-6.2Zm6.3,3.354a3.787,3.787,0,0,1-.751,2.466,2.633,2.633,0,0,1-2.159.964A2.624,2.624,0,0,1,9.834-.382a3.817,3.817,0,0,1-.743-2.466,3.867,3.867,0,0,1,.743-2.484,2.59,2.59,0,0,1,2.151-.981,2.638,2.638,0,0,1,2.159.973A3.873,3.873,0,0,1,14.895-2.849Zm-.836,0a3.274,3.274,0,0,0-.5-1.878,1.769,1.769,0,0,0-1.562-.836,1.749,1.749,0,0,0-1.553.836,3.317,3.317,0,0,0-.495,1.878A3.242,3.242,0,0,0,10.44-1a1.754,1.754,0,0,0,1.553.828A1.774,1.774,0,0,0,13.555-1,3.2,3.2,0,0,0,14.058-2.849ZM20.451.463h-.973A4.018,4.018,0,0,1,19.222-.86a8.473,8.473,0,0,0-.154-1.084.508.508,0,0,0-.307-.376,2.578,2.578,0,0,0-.674-.051H16.6V.48h-.8V-6.194h2.27a2.281,2.281,0,0,1,1.451.418,1.8,1.8,0,0,1,.632,1.511,1.5,1.5,0,0,1-.294.9,1.42,1.42,0,0,1-.7.546,1.213,1.213,0,0,1,.819,1.195q.043.469.154,1.314A1.509,1.509,0,0,0,20.451.463ZM19.307-4.3q0-1.161-1.34-1.161H16.593v2.279h1.22a1.871,1.871,0,0,0,1.071-.286A.942.942,0,0,0,19.307-4.3ZM25.682.463H24.658L22.149-2.746l-.179.188V.463h-.811V-6.211h.811v2.535l2.458-2.535h1.067L22.7-3.327Zm4.438-5.9H27.184v2.074h2.825v.768H27.184V.454h-.8V-6.211H30.12Zm6.512,2.586a3.787,3.787,0,0,1-.751,2.466,2.633,2.633,0,0,1-2.159.964,2.624,2.624,0,0,1-2.151-.964,3.817,3.817,0,0,1-.743-2.466,3.867,3.867,0,0,1,.743-2.484,2.59,2.59,0,0,1,2.151-.981,2.638,2.638,0,0,1,2.159.973A3.873,3.873,0,0,1,36.632-2.849Zm-.836,0a3.274,3.274,0,0,0-.5-1.878,1.769,1.769,0,0,0-1.562-.836,1.749,1.749,0,0,0-1.553.836,3.317,3.317,0,0,0-.495,1.878A3.242,3.242,0,0,0,32.177-1a1.754,1.754,0,0,0,1.553.828A1.774,1.774,0,0,0,35.292-1,3.2,3.2,0,0,0,35.8-2.849ZM42.188.463h-.973A4.018,4.018,0,0,1,40.959-.86a8.472,8.472,0,0,0-.154-1.084.508.508,0,0,0-.307-.376,2.578,2.578,0,0,0-.674-.051H38.339V.48h-.8V-6.194h2.27a2.281,2.281,0,0,1,1.451.418,1.8,1.8,0,0,1,.632,1.511,1.5,1.5,0,0,1-.294.9,1.42,1.42,0,0,1-.7.546,1.213,1.213,0,0,1,.819,1.195q.043.469.154,1.314A1.509,1.509,0,0,0,42.188.463ZM41.045-4.3q0-1.161-1.34-1.161H38.331v2.279h1.22a1.871,1.871,0,0,0,1.071-.286A.942.942,0,0,0,41.045-4.3Zm6.691,2.885a2.92,2.92,0,0,1-.1.538,1.879,1.879,0,0,1-.8,1.054,2.388,2.388,0,0,1-1.344.4,2.449,2.449,0,0,1-2.142-1.05,4.162,4.162,0,0,1-.623-2.39,4.128,4.128,0,0,1,.64-2.39,2.447,2.447,0,0,1,2.125-1.067,2.26,2.26,0,0,1,1.519.5,1.834,1.834,0,0,1,.64,1.451h-.811a1.221,1.221,0,0,0-1.357-1.195,1.657,1.657,0,0,0-1.5.862,3.565,3.565,0,0,0-.435,1.843,3.472,3.472,0,0,0,.435,1.826,1.66,1.66,0,0,0,1.5.853,1.379,1.379,0,0,0,.943-.341,1.521,1.521,0,0,0,.491-.9ZM52.575.463H48.521V-6.211h3.917v.768H49.323v2.074h3V-2.6h-3V-.314h3.243Zm10.378-3.32q0,3.328-3.414,3.328H57.823V-6.2h1.7a3.51,3.51,0,0,1,2.518.866A3.254,3.254,0,0,1,62.953-2.857Zm-.836-.009q0-2.577-2.688-2.577h-.794V-.305h1.178A2.176,2.176,0,0,0,61.553-1,2.851,2.851,0,0,0,62.116-2.866ZM67.792.463H63.738V-6.211h3.917v.768H64.54v2.074h3V-2.6h-3V-.314h3.243ZM73.808-6.2,71.453.471h-.811L68.278-6.2h.845l1.92,5.564L72.972-6.2Zm4.7,6.665H74.457V-6.211h3.917v.768H75.259v2.074h3V-2.6h-3V-.314H78.5Zm4.754,0H79.39V-6.211h.8V-.305h3.072ZM89.6-2.849a3.787,3.787,0,0,1-.751,2.466,2.633,2.633,0,0,1-2.159.964,2.624,2.624,0,0,1-2.151-.964,3.817,3.817,0,0,1-.743-2.466,3.867,3.867,0,0,1,.743-2.484,2.59,2.59,0,0,1,2.151-.981,2.638,2.638,0,0,1,2.159.973A3.873,3.873,0,0,1,89.6-2.849Zm-.836,0a3.274,3.274,0,0,0-.5-1.878A1.769,1.769,0,0,0,86.7-5.563a1.749,1.749,0,0,0-1.553.836,3.317,3.317,0,0,0-.5,1.878A3.242,3.242,0,0,0,85.142-1,1.754,1.754,0,0,0,86.7-.169,1.774,1.774,0,0,0,88.257-1,3.2,3.2,0,0,0,88.761-2.849ZM94.786-4.24q0,1.954-2.646,1.954h-.862V.463h-.8V-6.211h1.63Q94.786-6.211,94.786-4.24Zm-.819-.009a1.028,1.028,0,0,0-.435-.9,1.717,1.717,0,0,0-1.024-.282h-1.22v2.381h1.22a1.773,1.773,0,0,0,1.033-.273A1.057,1.057,0,0,0,93.967-4.248ZM102.228.463h-.8V-4.419L99.335.463h-.768L96.476-4.419V.463h-.8V-6.211H96.5L98.951-.493,101.4-6.211h.828Zm5.1,0h-4.054V-6.211h3.917v.768h-3.115v2.074h3V-2.6h-3V-.314h3.243Zm5.744,0H112.2l-3.183-5.385V.463H108.2V-6.211h.9l3.166,5.368V-6.211h.8Zm5.573-5.9h-2.031V.471h-.8V-5.435h-2.031V-6.2h4.873Zm10.685,5.9h-.836l-.7-1.741H124.87L124.179.463h-.845l2.646-6.674h.7Zm-1.852-2.535-1.152-3.013-1.135,3.013Zm7.6-2.21h-.819a1.23,1.23,0,0,0-.482-.935,1.763,1.763,0,0,0-1.105-.337,1.7,1.7,0,0,0-1.459.819,3.255,3.255,0,0,0-.529,1.878,3.043,3.043,0,0,0,.555,1.937,2.073,2.073,0,0,0,1.733.76,2.26,2.26,0,0,0,1.272-.333V-2.234h-1.553v-.777h2.338V.019a3.6,3.6,0,0,1-2.3.58,2.581,2.581,0,0,1-2.1-.981,3.759,3.759,0,0,1-.785-2.466,3.9,3.9,0,0,1,.708-2.39,2.507,2.507,0,0,1,2.117-1.05,2.6,2.6,0,0,1,1.72.55A1.873,1.873,0,0,1,135.069-4.282Zm5.1,4.745H136.11V-6.211h3.917v.768h-3.115v2.074h3V-2.6h-3V-.314h3.243Zm5.744,0h-.871l-3.183-5.385V.463h-.811V-6.211h.9l3.166,5.368V-6.211h.8Zm5.906-1.878a2.922,2.922,0,0,1-.1.538,1.879,1.879,0,0,1-.8,1.054,2.388,2.388,0,0,1-1.344.4,2.449,2.449,0,0,1-2.142-1.05,4.162,4.162,0,0,1-.623-2.39,4.128,4.128,0,0,1,.64-2.39,2.446,2.446,0,0,1,2.125-1.067,2.26,2.26,0,0,1,1.519.5,1.834,1.834,0,0,1,.64,1.451h-.811a1.221,1.221,0,0,0-1.357-1.195,1.657,1.657,0,0,0-1.5.862,3.565,3.565,0,0,0-.435,1.843,3.472,3.472,0,0,0,.435,1.826,1.66,1.66,0,0,0,1.5.853,1.379,1.379,0,0,0,.943-.341,1.521,1.521,0,0,0,.491-.9ZM157.882-6.2,155.441-2.4V.463h-.785V-2.4L152.215-6.2h.956l1.886,3.047L156.943-6.2ZM159.606.412a1.493,1.493,0,0,1-.239.862,2.4,2.4,0,0,1-.725.606l-.256-.393a1.227,1.227,0,0,0,.768-.922h-.614V-.51h1.075Zm11.812.051h-.8V-4.419L168.524.463h-.768l-2.091-4.882V.463h-.8V-6.211h.828L168.14-.493l2.449-5.718h.828Zm1.929,0h-.8V-6.211h.8Zm6.008,0h-.871L175.3-4.922V.463h-.811V-6.211h.9l3.166,5.368V-6.211h.8Zm1.937,0h-.8V-6.211h.8Zm5.257-1.809q0,1.937-2.441,1.937A1.894,1.894,0,0,1,182.64.015a2.25,2.25,0,0,1-.546-1.54h.828A1.417,1.417,0,0,0,183.276-.5a1.5,1.5,0,0,0,1.071.324,1.56,1.56,0,0,0,.922-.265.991.991,0,0,0,.452-.871.865.865,0,0,0-.239-.64,1.681,1.681,0,0,0-.615-.341l-.794-.256a4.268,4.268,0,0,1-1.212-.589,1.52,1.52,0,0,1-.614-1.246,1.717,1.717,0,0,1,.649-1.4,2.177,2.177,0,0,1,1.417-.478,2.426,2.426,0,0,1,1.425.384,1.709,1.709,0,0,1,.7,1.468h-.819a1.044,1.044,0,0,0-.354-.811,1.332,1.332,0,0,0-.883-.282,1.487,1.487,0,0,0-.913.273.9.9,0,0,0-.393.76.849.849,0,0,0,.41.743,5.643,5.643,0,0,0,.888.4,10.4,10.4,0,0,1,1.451.649A1.574,1.574,0,0,1,186.549-1.347Zm5.223-4.088h-2.031V.471h-.8V-5.435h-2.031V-6.2h4.873Zm5.385,5.9h-.973a4.018,4.018,0,0,1-.256-1.323,8.467,8.467,0,0,0-.154-1.084.508.508,0,0,0-.307-.376,2.578,2.578,0,0,0-.674-.051h-1.485V.48h-.8V-6.194h2.27a2.281,2.281,0,0,1,1.451.418,1.8,1.8,0,0,1,.632,1.511,1.5,1.5,0,0,1-.294.9,1.42,1.42,0,0,1-.7.546,1.213,1.213,0,0,1,.819,1.195q.043.469.154,1.314A1.509,1.509,0,0,0,197.157.463ZM196.014-4.3q0-1.161-1.34-1.161H193.3v2.279h1.22a1.871,1.871,0,0,0,1.071-.286A.942.942,0,0,0,196.014-4.3Zm7.118-1.9L200.691-2.4V.463h-.785V-2.4L197.465-6.2h.956l1.886,3.047L202.193-6.2ZM213.8-2.849a3.787,3.787,0,0,1-.751,2.466,2.633,2.633,0,0,1-2.159.964,2.624,2.624,0,0,1-2.151-.964A3.817,3.817,0,0,1,208-2.849a3.867,3.867,0,0,1,.742-2.484,2.59,2.59,0,0,1,2.151-.981,2.638,2.638,0,0,1,2.159.973A3.873,3.873,0,0,1,213.8-2.849Zm-.836,0a3.274,3.274,0,0,0-.5-1.878,1.769,1.769,0,0,0-1.562-.836,1.749,1.749,0,0,0-1.553.836,3.317,3.317,0,0,0-.5,1.878,3.242,3.242,0,0,0,.5,1.852,1.753,1.753,0,0,0,1.553.828A1.774,1.774,0,0,0,212.46-1,3.2,3.2,0,0,0,212.963-2.849Zm5.445-2.586h-2.936v2.074H218.3v.768h-2.825V.454h-.8V-6.211h3.738Zm9.123,5.9h-3.875V-6.211h.8V-.305h3.072Zm6.307,0H233l-.7-1.741h-2.919L228.692.463h-.845l2.646-6.674h.7Zm-1.852-2.535-1.152-3.013L229.7-2.072Zm6.913.666a1.786,1.786,0,0,1-.486,1.28,2.053,2.053,0,0,1-1.57.589h-2.33V-6.211h2.2a2.02,2.02,0,0,1,1.348.461,1.631,1.631,0,0,1,.589,1.314,1.567,1.567,0,0,1-.794,1.374A1.692,1.692,0,0,1,238.9-1.406Zm-1.075-3q0-1.05-1.28-1.05H235.3v2.074h1.272a1.444,1.444,0,0,0,.862-.239A.925.925,0,0,0,237.824-4.4Zm.23,2.919a.921.921,0,0,0-.478-.888,3.014,3.014,0,0,0-1.34-.222h-.947V-.3h1.289Q238.063-.3,238.055-1.483Zm7.357-1.366a3.787,3.787,0,0,1-.751,2.466A2.633,2.633,0,0,1,242.5.582a2.624,2.624,0,0,1-2.151-.964,3.817,3.817,0,0,1-.743-2.466,3.867,3.867,0,0,1,.743-2.484,2.59,2.59,0,0,1,2.151-.981,2.638,2.638,0,0,1,2.159.973A3.873,3.873,0,0,1,245.411-2.849Zm-.836,0a3.274,3.274,0,0,0-.5-1.878,1.769,1.769,0,0,0-1.562-.836,1.749,1.749,0,0,0-1.553.836,3.316,3.316,0,0,0-.5,1.878,3.242,3.242,0,0,0,.5,1.852,1.753,1.753,0,0,0,1.553.828A1.774,1.774,0,0,0,244.072-1,3.2,3.2,0,0,0,244.575-2.849ZM250.967.463h-.973a4.017,4.017,0,0,1-.256-1.323,8.473,8.473,0,0,0-.154-1.084.508.508,0,0,0-.307-.376,2.578,2.578,0,0,0-.674-.051h-1.485V.48h-.8V-6.194h2.27a2.281,2.281,0,0,1,1.451.418,1.8,1.8,0,0,1,.632,1.511,1.5,1.5,0,0,1-.294.9,1.42,1.42,0,0,1-.7.546,1.213,1.213,0,0,1,.819,1.195q.043.469.154,1.314A1.509,1.509,0,0,0,250.967.463ZM249.824-4.3q0-1.161-1.34-1.161H247.11v2.279h1.22a1.871,1.871,0,0,0,1.071-.286A.942.942,0,0,0,249.824-4.3Z" transform="translate(-18908 6294.183)"/></g><g transform="translate(163 3206.667)"><rect width="50" height="50" rx="25" transform="translate(0 -0.373)" fill="#6fa6da"/><rect width="50" height="50" rx="25" transform="translate(0 -0.373)" fill="url(#a)"/><g transform="translate(7.362 7.124)"><path d="M1181.619,3748.412s12.325-5.706,21.143-14.4c0,0-6.356,17.641-18.546,31.648h-11.676s13.36-10.766,18.421-17.768a58.443,58.443,0,0,1-9.342.515" transform="translate(-1172.541 -3734.016)" fill="#ea5514"/><g transform="translate(1.514 14.466)"><path d="M1190.786,3806.8c5.024,2.11,7.3,1.031,8.882-1.105,1.831-2.469-1.437-6.92-7.3-9.94-5.689-2.936-11.733-3.433-13.749-1.192a3.371,3.371,0,0,1,.259-.4c2.339-3.165,10.329-2.6,17.839,1.267s11.7,9.575,9.355,12.745-8.827,4.071-16.043-.267" transform="translate(-1178.621 -3792.112)" fill="#0b318f"/></g><g transform="translate(25.66 14.526)"><path d="M1275.648,3795.365l.013-.043c.06-.149.1-.264.138-.357a3.443,3.443,0,0,0,.11-.373l.13-.384c.012,0,.017-.008.018-.029a.189.189,0,0,0,0-.035,3.592,3.592,0,0,1,.205-.787c.158-.47.292-.717.4-.733l-.014-.015c.014-.021.073-.042.173-.077a.545.545,0,0,1,.162-.045l.007.065a2.165,2.165,0,0,1-.09.522,5.312,5.312,0,0,0-.13.52c-.02.007-.027.03-.027.063a.193.193,0,0,1-.028.058c-.016.038-.022.065,0,.077-.018.027-.037.048-.052.071l-.007.06c-.012,0-.021,0-.026.011s.015,0,.02.009l-.065.222h.018a.147.147,0,0,0,.123-.094c.035-.065.07-.125.105-.185.077-.095.182-.218.312-.373.067-.077.128-.152.2-.228a1.254,1.254,0,0,1,.325-.415.562.562,0,0,1,.332-.1l.051.011,0,.037a.318.318,0,0,1-.047.16,1.128,1.128,0,0,0-.095.147l-.017.007a.282.282,0,0,1-.025.075.193.193,0,0,1-.045.062.022.022,0,0,0,0,.015s.005,0,.01,0c-.042.113-.071.2-.092.26a.951.951,0,0,0-.06.257.325.325,0,0,1-.027.112.38.38,0,0,0-.026.107.3.3,0,0,1-.042.087.112.112,0,0,0-.022.055l.01.027.033-.007c.094-.128.225-.3.4-.514.132-.168.268-.335.408-.5h.013l.383-.469c.027-.031.052-.064.082-.1s.068-.066.078-.058a.4.4,0,0,1,.115-.1.208.208,0,0,1,.142-.045l.015-.023.055-.012.025.057c.007,0,.012.012.018.015a.241.241,0,0,0,.06.009c.013.021.025.033.034.026l-.043.056c0,.008,0,.016-.009.034a.111.111,0,0,1-.025.035l-.043.035a.04.04,0,0,1-.022.011v.011c-.045.042-.073.072-.093.091s-.03.037-.03.048l-.125.12v.017a.232.232,0,0,1-.16.1l.017.012h.05l-.02.011a.033.033,0,0,0-.026.01c-.027.024-.05.05-.077.072l.02.009-.033.053c-.013,0-.043.025-.09.075a.211.211,0,0,0-.068.12h-.028a.184.184,0,0,1-.057.014.069.069,0,0,0,.02.031l-.02.021c-.042.007-.06.021-.06.04h.015l0-.012c.012,0,.02.007.02.012a.054.054,0,0,1,.01.01l-.057.021c-.021.034-.046.064-.067.094l-.053.018.013.03c0,.01-.012.025-.03.038s-.03.035-.03.042-.013.011-.04.015l-.028.035.007.01-.06.062-.024.007a.125.125,0,0,1-.08.075c-.012.023-.024.05-.036.073a.579.579,0,0,1-.049.075.034.034,0,0,0-.013.019l-.035.034.005.015-.06.035-.054.1c-.011,0-.02,0-.026.015a.152.152,0,0,0-.02.053h-.02s-.012.015-.032.035-.021.039-.026.039l-.017.041a.8.8,0,0,0-.1.131l.013.025-.047.025-.037.061-.02.01v.02h-.045l.009.013.037.015-.025.015c-.013.007-.02.031-.02.063l-.028.027-.037.089-.03.011v.057a.127.127,0,0,0-.034.021c-.01.009-.011.015,0,.024a.526.526,0,0,0-.053.069c-.023.026-.04.04-.052.034a.508.508,0,0,1-.137.115.274.274,0,0,1-.152.042l-.063-.012-.007-.095.01-.242v-.038c.01-.03.018-.058.03-.087a.733.733,0,0,1,.035-.079l-.021-.035a.643.643,0,0,0,.027-.1c.01-.035.01-.06.017-.082l.02,0c.008-.046.018-.09.025-.135a1.074,1.074,0,0,1,.037-.129.056.056,0,0,0,0-.015c-.007-.031-.01-.045,0-.05l.027-.04a.036.036,0,0,1,0-.045.177.177,0,0,0,.015-.04.515.515,0,0,1,.032-.155.811.811,0,0,0,.032-.109,3.627,3.627,0,0,0-.237.291,2.975,2.975,0,0,1-.365.435c0,.007-.005.021-.025.045s-.032.033-.035.033l-.1.125a.27.27,0,0,0-.078.144l-.068.045c-.01.008-.007.015.01.027s.021.014.02.023a.141.141,0,0,1-.035.048.242.242,0,0,1-.043.053l.022.015c0,.007-.013.01-.042.015l-.01.067-.045.035a.018.018,0,0,0-.027.014.263.263,0,0,0,0,.042l-.033.026c-.007,0-.012,0-.013-.017a.134.134,0,0,0-.01-.02l-.042.1-.031,0a.072.072,0,0,0-.025,0,.087.087,0,0,1-.027,0l-.025.048a.055.055,0,0,1-.047.012.191.191,0,0,1-.029,0l-.033.033-.034-.007a.139.139,0,0,1-.1.064.146.146,0,0,0-.083,0,.335.335,0,0,1,.027-.1c.015-.04.021-.067.03-.085" transform="translate(-1275.591 -3792.352)" fill="#e60012"/></g><g transform="translate(28.549 14.656)"><path d="M1287.413,3795.141l.037-.025v-.027c.025-.045.045-.075.057-.094a1.031,1.031,0,0,1,.063-.11c.025-.045.052-.09.077-.143h.022l.018-.072.028-.007.037-.087c.012,0,.023-.025.038-.059a2.339,2.339,0,0,1,.22-.395q.415-.633.43-.66l.013-.017-.008-.012-.047.008-.07-.008-.057-.047a.564.564,0,0,1,.085-.157.545.545,0,0,1,.113-.129c.005-.015.008-.026.017-.03s.006,0,.006,0a.549.549,0,0,1,.319-.148,2.547,2.547,0,0,1,.485-.048.458.458,0,0,1,.067,0,.609.609,0,0,1,.087.005l.123.01a.289.289,0,0,1,.1.028l.02.024s.008,0,.018,0v-.009a.759.759,0,0,1,.1.035.509.509,0,0,1,.093.055v.023h.022a.041.041,0,0,1,.033.023c.013.018.025.022.035.007l.029.045s.007,0,.01,0,.009.009.01.012a.1.1,0,0,0,.032.057c.023.023.035.037.037.05l-.038.021.03.035a.161.161,0,0,1,.016.007.06.06,0,0,1-.033.05l.068,0v.018l-.018,0c-.005,0-.008.013-.01.038l.01,0,.017-.009c0,.005-.01.015-.037.035a.064.064,0,0,0,0,.02l-.033.04h.073c-.007,0-.013.015-.013.035s0,.03-.01.03h-.045v.02l.015.013a.227.227,0,0,1,.057-.028.082.082,0,0,1-.072.072.029.029,0,0,1,0,.042.048.048,0,0,0-.022.025h.022l.087-.043-.03.02,0,.01-.048.039-.025,0-.03.072-.048.038v.033l.045-.01.01.072-.04,0s0,.013-.008.023a.025.025,0,0,1-.028.005l.04.033v.032c0,.037-.018.057-.06.057l.007.037a.127.127,0,0,1-.109.007.026.026,0,0,0,0,.029.1.1,0,0,1,.012.018l-.005.037-.052.021-.027.008.045,0,.032.008.028-.033.02.025-.047.05-.092.006a.094.094,0,0,0-.018.055h.015l.03-.019v.023a.17.17,0,0,1-.063,0l-.053.047v.028l.053.007-.092.03-.03.05c.007.007,0,.015-.012.022l-.065.012v.028l.083.015.037-.03.013-.025-.047.088a.3.3,0,0,1-.037-.012.144.144,0,0,1-.052.057.241.241,0,0,1-.093.035.04.04,0,0,0,.012.015s.013,0,.028.008l-.057.021-.03.05-.04.01c-.022.032-.032.05-.03.053l-.043,0c.013.02.01.031,0,.031a.231.231,0,0,1-.052,0l-.068.012v.02s.008,0,.02,0a.038.038,0,0,0,.018,0c-.018.007-.027.023-.027.048l-.043.012a.025.025,0,0,0-.01.015c-.008,0-.018,0-.033,0l-.008.027a.08.08,0,0,1-.033.022.056.056,0,0,1-.022,0l-.009-.015-.025.058h-.075c0,.028-.025.045-.067.063a.182.182,0,0,0,.032.032l-.047-.01-.048.025v.02h.026c.005,0,.007,0,.007.012l-.037.013a.319.319,0,0,0-.031.03.119.119,0,0,1-.052.007.074.074,0,0,0-.012.032.25.25,0,0,0-.07.023.074.074,0,0,0-.04.045l-.02-.01c-.03,0-.048.017-.063.05l-.042,0a1.138,1.138,0,0,1-.2.124.6.6,0,0,1-.222.092.471.471,0,0,1-.2.12,1.089,1.089,0,0,1-.23.072.075.075,0,0,0-.052-.011,1.132,1.132,0,0,1-.132,0l-.123-.042a.375.375,0,0,1-.094-.184.856.856,0,0,1,.12-.258.314.314,0,0,0,.057-.135c0-.005.008-.011.027-.028s.021-.035.015-.054m.587.147v.033l.03.013.087-.013.04-.033h.028c.013-.008.048-.022.108-.05a.231.231,0,0,0,.115-.063h.037c.005,0,.008-.012.008-.034a.842.842,0,0,0,.117-.042l.028-.027.008-.029c.01,0,.03,0,.067-.018l.012,0a.311.311,0,0,1,.085-.09.624.624,0,0,1,.114-.065v-.03a1.428,1.428,0,0,0,.16-.124c.04-.038.087-.094.142-.155.038-.05.077-.1.112-.148s.07-.108.112-.177h.021a.273.273,0,0,1,.027-.117.277.277,0,0,1,.06-.108l0-.02.02-.015a.289.289,0,0,1,0-.1c.01-.042.018-.092.027-.147a.342.342,0,0,0-.127-.279.463.463,0,0,0-.31-.106l-.1.011a.052.052,0,0,1,.02.035c-.02,0-.03.017-.042.045a.172.172,0,0,0-.01.075.08.08,0,0,0-.03.088l-.032.012-.008.022a.023.023,0,0,0-.015,0c-.007,0-.007.01,0,.02l-.033.058,0,.029-.042.015,0,.039-.042.01-.01.035.022.035-.008.012-.067.009,0,.013.012.03.043-.01a.222.222,0,0,0-.047.045.175.175,0,0,0-.03.056l-.025.045h-.018l-.012.023h-.018l-.008.033.017.007.04-.015a.079.079,0,0,1-.07.038v.047h-.017s0-.007,0-.013,0-.012-.013-.012l-.01.018.023.025.008.019-.045.068-.01.012-.047.01-.028.068.027.063h-.077l-.007.012.037.02h.02a.123.123,0,0,1-.048.031.5.5,0,0,1-.063.015l-.012.031.007.024.022-.021h.035v.023l-.016.022-.045,0v.017l-.037.01c.005.011.009.02.013.02s.007.007.009.012l-.043.023,0-.02a.2.2,0,0,0-.07.113l-.035.007v.039a.21.21,0,0,1,.09-.032l.008.007-.038.02a.109.109,0,0,1-.075.072l.01.02-.047.03-.008.035h.03l.015-.023.01.017a.036.036,0,0,0-.012.033l-.038-.012c-.038.02-.062.039-.068.057l0,.027.012-.012.008-.007.045-.012.017-.012-.038.058-.033.007.015,0v.03l-.025.048-.037-.01-.032.01v.058l-.015.007-.009.027c.007,0,.013,0,.02,0s.013-.015.015-.019" transform="translate(-1287.194 -3792.873)" fill="#e60012"/></g><g transform="translate(30.93 14.643)"><path d="M1296.99,3795.343a.6.6,0,0,1,.058-.092.53.53,0,0,0,.053-.078c.027-.035.047-.057.057-.072a.683.683,0,0,0,.053-.085.116.116,0,0,1,.027-.026l.21-.287a.13.13,0,0,1,.039-.03c.023-.042.05-.077.075-.114.043-.057.07-.083.09-.087a1.377,1.377,0,0,1,.11-.16c.047-.055.092-.108.138-.165l.082-.1.03-.01.038-.071c.012,0,.025-.012.04-.019a.58.58,0,0,1,.1-.159l.005-.02a.6.6,0,0,0,.115-.114c.035-.036.072-.078.11-.123a4.005,4.005,0,0,0,.3-.333.92.92,0,0,0,.078-.085,1.408,1.408,0,0,0,.117-.158l.012.015a.4.4,0,0,1,.135-.065.892.892,0,0,0,.12-.042l.038-.018h.028l.012-.015.1-.008.038.012a.136.136,0,0,1-.022.089c.008,0,.012,0,.015,0s.01.01.013.01h-.022c-.02.1-.04.192-.062.29a1.183,1.183,0,0,1-.077.272c.005.005.012.005.02.008s.007.012,0,.022l-.043.077.023.057a.85.85,0,0,0-.018.1c-.008.045-.015.088-.021.123l-.034.042v.111h-.018l.015.05a.3.3,0,0,0-.022.078c0,.032-.007.054-.008.065l.012.066-.03.039c0,.015.007.03.01.043s.008.032.008.036a.026.026,0,0,1-.018.029v-.015l-.008.007c0,.028.011.035.032.032,0,.015-.009.068-.017.158s-.015.14-.015.143a.129.129,0,0,0,0,.042l-.052.033,0,.05.037-.008c.02,0,.028.02.018.037a.123.123,0,0,1-.02.039l.037.035c.007.012,0,.021-.015.025s-.021.008-.021.015v.015c.017.012.025.023.025.026s-.008.013-.025.008l0,.04a.671.671,0,0,0,.012.083c-.02.025-.027.038-.027.053s.007.019.022.022a.027.027,0,0,1,.027.028h-.015a.257.257,0,0,1-.005.131.917.917,0,0,1-.05.141l-.058-.012a.19.19,0,0,0-.015.026.024.024,0,0,1-.035.012l-.021.053c-.085.048-.172.09-.257.139a.187.187,0,0,1-.115-.132.6.6,0,0,1-.038-.222.965.965,0,0,1,.01-.117c.007-.04.01-.073.013-.088s.009-.032.015-.052,0-.035-.007-.042v-.063l.025-.017c-.012-.016-.018-.022-.025-.019v-.186l-.064-.006-.048.017c-.01-.011-.016-.014-.022-.014s-.012.006-.018.023h-.043c-.005-.006-.012-.009-.017-.02a.068.068,0,0,1-.052.035.434.434,0,0,1-.057.015.254.254,0,0,0,.006-.03.045.045,0,0,1,0-.017h-.02c-.008,0-.017.01-.033.022a.242.242,0,0,1-.142.043.508.508,0,0,0-.06.035.557.557,0,0,1-.048.037l-.075-.043a.206.206,0,0,0-.028.061l-.063.015h-.031l-.068.033-.023.05-.032-.008-.033.015-.012.065a.424.424,0,0,1-.052.06.286.286,0,0,1-.063.042l-.008.033h.032a.176.176,0,0,1-.017.035c-.008.007-.013,0-.018-.007a.164.164,0,0,0-.06.125.445.445,0,0,0-.107.054c-.042.03-.065.056-.07.082l-.073.065c-.008,0-.012,0-.017-.012s-.008-.012-.006-.015l-.2.1-.09.051-.031,0-.035-.057a.756.756,0,0,1,.12-.257c.032-.047.067-.1.1-.152l.012,0Zm1.6-.986.02-.007c.027-.163.055-.325.083-.487l.038-.165a.1.1,0,0,1-.065.041.933.933,0,0,1-.077.107.335.335,0,0,0-.072.119.292.292,0,0,0-.073.06.938.938,0,0,1-.1.128.533.533,0,0,1-.125.174c-.015.035-.027.068-.04.1a.713.713,0,0,0,.152-.015c.165-.033.254-.053.262-.053" transform="translate(-1296.757 -3792.82)" fill="#e60012"/></g></g></g></g></g></svg>