<svg enable-background="new 0 0 512 512" height="512" viewBox="0 0 512 512" width="512" xmlns="http://www.w3.org/2000/svg"><g id="_x31_00_x2C__key_x2C__file_type_x2C__file_format_x2C__file_extension_x2C__document"><g id="XMLID_1695_"><g id="XMLID_1696_"><path id="XMLID_1704_" d="m386 116c-5.523 0-10-4.477-10-10v-90h-220c-22.056 0-40 17.944-40 40v180h275c30.327 0 55 24.673 55 55v100c0 30.327-24.673 55-55 55h-275v10c0 22.056 17.944 40 40 40h280c22.056 0 40-17.944 40-40v-340zm-210-40h80c5.523 0 10 4.477 10 10s-4.477 10-10 10h-80c-5.523 0-10-4.477-10-10s4.477-10 10-10zm160 100h-160c-5.523 0-10-4.477-10-10s4.477-10 10-10h160c5.523 0 10 4.477 10 10s-4.477 10-10 10zm0-40h-160c-5.523 0-10-4.477-10-10s4.477-10 10-10h160c5.523 0 10 4.477 10 10s-4.477 10-10 10z"/><path id="XMLID_1114_" d="m396 21.857v74.143h74.143z"/><path id="XMLID_1698_" d="m426 391v-100c0-19.299-15.701-35-35-35-348.053 0-325.346.022-326.546-.039-10.651-.326-20.477-3.986-28.454-9.988v125.694c0 29.959 24.374 54.333 54.334 54.333h300.666c19.299 0 35-15.701 35-35zm-261.548-10.345c2.952 4.668 1.56 10.846-3.108 13.797-4.682 2.962-10.855 1.544-13.796-3.107l-25.016-39.563-6.532 7.838v26.38c0 5.522-4.477 10-10 10s-10-4.478-10-10c0-9.301 0-80.291 0-90 0-5.522 4.477-10 10-10s10 4.478 10 10v32.379c1.782-2.114-7.269 8.723 32.318-38.78 3.536-4.244 9.842-4.815 14.084-1.281 4.243 3.536 4.816 9.842 1.28 14.084l-27.696 33.235zm71.548-54.655c5.523 0 10 4.478 10 10s-4.477 10-10 10h-30v30h30c5.523 0 10 4.478 10 10s-4.477 10-10 10h-40c-5.523 0-10-4.478-10-10v-90c0-5.522 4.477-10 10-10h40c5.523 0 10 4.478 10 10s-4.477 10-10 10h-30v20zm127.071-22.929-37.071 37.072v45.857c0 5.522-4.478 10-10 10s-10-4.478-10-10v-45.857l-37.071-37.071c-3.905-3.905-3.905-10.237 0-14.143 3.905-3.904 10.236-3.904 14.143 0l32.928 32.928 32.929-32.929c3.906-3.904 10.236-3.904 14.143 0 3.905 3.906 3.905 10.238-.001 14.143z"/><path id="XMLID_1109_" d="m66 236h30v-60h-30c-16.569 0-30 13.432-30 30 0 16.568 13.431 30 30 30z"/></g></g></g></svg>