<svg enable-background="new 0 0 512 512" height="512" viewBox="0 0 512 512" width="512" xmlns="http://www.w3.org/2000/svg"><g id="_x31_02_x2C__cdr_x2C__file_type_x2C__file_format_x2C__file_extension_x2C__document"><g id="XMLID_1695_"><g id="XMLID_1696_"><path id="XMLID_1706_" d="m386 116c-5.523 0-10-4.477-10-10v-90h-220c-22.056 0-40 17.944-40 40v180h275c30.327 0 55 24.673 55 55v100c0 30.327-24.673 55-55 55h-275v10c0 22.056 17.944 40 40 40h280c22.056 0 40-17.944 40-40v-340zm-210-40h80c5.523 0 10 4.477 10 10s-4.477 10-10 10h-80c-5.523 0-10-4.477-10-10s4.477-10 10-10zm160 100h-160c-5.523 0-10-4.477-10-10s4.477-10 10-10h160c5.523 0 10 4.477 10 10s-4.477 10-10 10zm0-40h-160c-5.523 0-10-4.477-10-10s4.477-10 10-10h160c5.523 0 10 4.477 10 10s-4.477 10-10 10z"/><path id="XMLID_1138_" d="m396 21.857v74.143h74.143z"/><path id="XMLID_1137_" d="m216 306.356v69.287c16.939-2.434 30-17.042 30-34.644s-13.061-32.209-30-34.643z"/><path id="XMLID_1699_" d="m426 391v-100c0-19.299-15.701-35-35-35-348.053 0-325.346.022-326.546-.039-10.651-.326-20.477-3.986-28.454-9.988v125.694c0 29.959 24.374 54.333 54.334 54.333h300.666c19.299 0 35-15.701 35-35zm-265-15h5c5.523 0 10 4.478 10 10s-4.477 10-10 10h-5c-30.327 0-55-24.673-55-55s24.673-55 55-55h5c5.523 0 10 4.478 10 10s-4.477 10-10 10h-5c-19.299 0-35 15.701-35 35s15.701 35 35 35zm50 20h-5c-5.523 0-10-4.478-10-10v-90c0-5.522 4.477-10 10-10h5c30.327 0 55 24.673 55 55s-24.673 55-55 55zm153.32-4.453c-1.927 2.891-5.099 4.454-8.329 4.454-1.906 0-3.833-.544-5.538-1.681l-44.453-29.635v21.315c0 5.522-4.478 10-10 10s-10-4.478-10-10c0-27.873 0 43.108 0-50v-40c0-5.522 4.478-10 10-10h35c19.299 0 35 15.701 35 35s-15.701 35-35 35h-1.973l32.52 21.68c4.596 3.063 5.837 9.272 2.773 13.867z"/><path id="XMLID_1132_" d="m346 321c0-8.272-6.728-15-15-15h-25v30h25c8.272 0 15-6.728 15-15z"/><path id="XMLID_1131_" d="m66 236h30v-60h-30c-16.569 0-30 13.432-30 30 0 16.568 13.431 30 30 30z"/></g></g></g></svg>