<svg enable-background="new 0 0 512 512" height="512" viewBox="0 0 512 512" width="512" xmlns="http://www.w3.org/2000/svg"><g id="_x31_06_x2C__csr_x2C__file_type_x2C__file_format_x2C__file_extension_x2C__document"><g id="XMLID_1695_"><g id="XMLID_1696_"><path id="XMLID_1705_" d="m386 116c-5.523 0-10-4.477-10-10v-90h-220c-22.056 0-40 17.944-40 40v180h275c30.327 0 55 24.673 55 55v100c0 30.327-24.673 55-55 55h-275v10c0 22.056 17.944 40 40 40h280c22.056 0 40-17.944 40-40v-340zm-210-40h80c5.523 0 10 4.477 10 10s-4.477 10-10 10h-80c-5.523 0-10-4.477-10-10s4.477-10 10-10zm160 100h-160c-5.523 0-10-4.477-10-10s4.477-10 10-10h160c5.523 0 10 4.477 10 10s-4.477 10-10 10zm0-40h-160c-5.523 0-10-4.477-10-10s4.477-10 10-10h160c5.523 0 10 4.477 10 10s-4.477 10-10 10z"/><path id="XMLID_1185_" d="m396 21.857v74.143h74.143z"/><path id="XMLID_1699_" d="m426 391v-100c0-19.299-15.701-35-35-35-348.053 0-325.346.022-326.546-.039-10.651-.326-20.477-3.986-28.454-9.988v125.694c0 29.959 24.374 54.333 54.334 54.333h300.666c19.299 0 35-15.701 35-35zm-274.444-25h4.444c5.523 0 10 4.478 10 10s-4.477 10-10 10h-4.444c-27.57 0-50-22.43-50-50s22.43-50 50-50h4.444c5.523 0 10 4.478 10 10s-4.477 10-10 10h-4.444c-16.542 0-30 13.458-30 30s13.458 30 30 30zm64.444-40h10c16.542 0 30 13.458 30 30s-13.458 30-30 30h-30c-5.523 0-10-4.478-10-10s4.477-10 10-10h30c5.514 0 10-4.486 10-10s-4.486-10-10-10h-10c-16.542 0-30-13.458-30-30s13.458-30 30-30h30c5.523 0 10 4.478 10 10s-4.477 10-10 10h-30c-5.514 0-10 4.486-10 10s4.486 10 10 10zm144.472 41.056c4.94 2.47 6.942 8.477 4.473 13.416-2.469 4.94-8.477 6.942-13.416 4.473l-45.529-22.765v13.82c0 5.522-4.478 10-10 10s-10-4.478-10-10v-30c0-8.835 0-36.555 0-50 0-5.522 4.478-10 10-10h35c19.299 0 35 15.701 35 35 0 17.172-12.435 31.486-28.772 34.434z"/><path id="XMLID_1180_" d="m331 306h-25v30h25c8.272 0 15-6.728 15-15s-6.728-15-15-15z"/><path id="XMLID_1179_" d="m66 236h30v-60h-30c-16.569 0-30 13.432-30 30 0 16.568 13.431 30 30 30z"/></g></g></g></svg>