<svg enable-background="new 0 0 512 512" height="512" viewBox="0 0 512 512" width="512" xmlns="http://www.w3.org/2000/svg"><g id="_x31_17_x2C__owg_x2C__file_type_x2C__file_format_x2C__file_extension_x2C__document"><g id="XMLID_1695_"><g id="XMLID_1696_"><path id="XMLID_1705_" d="m386 116c-5.523 0-10-4.477-10-10v-90h-220c-22.056 0-40 17.944-40 40v180h275c30.327 0 55 24.673 55 55v100c0 30.327-24.673 55-55 55h-275v10c0 22.056 17.944 40 40 40h280c22.056 0 40-17.944 40-40v-340zm-210-40h80c5.523 0 10 4.477 10 10s-4.477 10-10 10h-80c-5.523 0-10-4.477-10-10s4.477-10 10-10zm160 100h-160c-5.523 0-10-4.477-10-10s4.477-10 10-10h160c5.523 0 10 4.477 10 10s-4.477 10-10 10zm0-40h-160c-5.523 0-10-4.477-10-10s4.477-10 10-10h160c5.523 0 10 4.477 10 10s-4.477 10-10 10z"/><path id="XMLID_1306_" d="m396 21.857v74.143h74.143z"/><path id="XMLID_1305_" d="m96 316v60c16.542 0 30-13.458 30-30s-13.458-30-30-30z"/><path id="XMLID_1698_" d="m426 391v-100c0-19.299-15.701-35-35-35-348.053 0-325.346.022-326.546-.039-10.651-.326-20.477-3.986-28.454-9.988v125.694c0 29.959 24.374 54.333 54.334 54.333h300.666c19.299 0 35-15.701 35-35zm-330 5h-10c-5.523 0-10-4.478-10-10v-80c0-5.522 4.477-10 10-10h10c27.57 0 50 22.43 50 50s-22.43 50-50 50zm170-10c0 4.045-2.436 7.691-6.173 9.239-3.73 1.543-8.032.698-10.898-2.168l-32.929-32.928-32.929 32.929c-2.86 2.86-7.162 3.714-10.898 2.168-3.737-1.549-6.173-5.195-6.173-9.24v-80c0-5.522 4.477-10 10-10s10 4.478 10 10v55.857l22.929-22.929c3.905-3.904 10.237-3.904 14.143 0l22.928 22.929v-55.857c0-5.522 4.477-10 10-10s10 4.478 10 10zm70 10c-27.57 0-50-22.43-50-50s22.43-50 50-50c9.942 0 19.55 2.914 27.785 8.426 4.59 3.072 5.819 9.283 2.748 13.873-3.072 4.59-9.285 5.819-13.873 2.748-4.932-3.302-10.693-5.047-16.66-5.047-16.542 0-30 13.458-30 30s13.458 30 30 30c13.037 0 24.159-8.359 28.286-20h-23.842c-5.522 0-10-4.478-10-10s4.478-10 10-10h35.556c5.522 0 10 4.478 10 10 0 27.57-22.43 50-50 50z"/><path id="XMLID_1300_" d="m66 236h30v-60h-30c-16.569 0-30 13.432-30 30 0 16.568 13.431 30 30 30z"/></g></g></g></svg>