<svg enable-background="new 0 0 512 512" height="512" viewBox="0 0 512 512" width="512" xmlns="http://www.w3.org/2000/svg"><g id="_x31_22_x2C__bak_x2C__file_type_x2C__file_format_x2C__file_extension_x2C__document"><g id="XMLID_1695_"><g id="XMLID_1696_"><path id="XMLID_1707_" d="m386 116c-5.523 0-10-4.477-10-10v-90h-220c-22.056 0-40 17.944-40 40v180h275c30.327 0 55 24.673 55 55v100c0 30.327-24.673 55-55 55h-275v10c0 22.056 17.944 40 40 40h280c22.056 0 40-17.944 40-40v-340zm-210-40h80c5.523 0 10 4.477 10 10s-4.477 10-10 10h-80c-5.523 0-10-4.477-10-10s4.477-10 10-10zm160 100h-160c-5.523 0-10-4.477-10-10s4.477-10 10-10h160c5.523 0 10 4.477 10 10s-4.477 10-10 10zm0-40h-160c-5.523 0-10-4.477-10-10s4.477-10 10-10h160c5.523 0 10 4.477 10 10s-4.477 10-10 10z"/><path id="XMLID_1363_" d="m396 21.857v74.143h74.143z"/><path id="XMLID_1701_" d="m426 391v-100c0-19.299-15.701-35-35-35-348.053 0-325.346.022-326.546-.039-10.651-.326-20.477-3.986-28.454-9.988v125.694c0 29.959 24.374 54.333 54.334 54.333h300.666c19.299 0 35-15.701 35-35zm-285 5h-45c-5.523 0-10-4.478-10-10 0-33.032 0-56.368 0-90 0-5.522 4.477-10 10-10h40c16.542 0 30 13.458 30 30 0 6.042-1.802 11.669-4.887 16.382 8.994 6.341 14.887 16.801 14.887 28.618 0 19.299-15.701 35-35 35zm135-10c0 5.522-4.477 10-10 10s-10-4.478-10-10v-20h-40v20c0 5.522-4.477 10-10 10s-10-4.478-10-10v-60c0-22.056 17.944-40 40-40s40 17.944 40 40zm88.452-5.345c2.951 4.668 1.561 10.846-3.107 13.797-4.694 2.967-10.861 1.534-13.797-3.107l-25.016-39.563-6.532 7.839v26.379c0 5.522-4.478 10-10 10s-10-4.478-10-10c0-9.323 0-80.521 0-90 0-5.522 4.478-10 10-10s10 4.478 10 10v32.379c2.037-2.409-9.073 10.887 32.317-38.78 3.535-4.244 9.842-4.816 14.084-1.281 4.243 3.536 4.816 9.842 1.281 14.084l-27.696 33.235z"/><path id="XMLID_1358_" d="m141 346c-8.971 0-26.011 0-35 0v30h35c8.271 0 15-6.728 15-15s-6.729-15-15-15z"/><path id="XMLID_1357_" d="m236 306c-11.028 0-20 8.972-20 20v20h40v-20c0-11.028-8.972-20-20-20z"/><path id="XMLID_1356_" d="m146 316c0-5.514-4.486-10-10-10h-30v20h30c5.514 0 10-4.486 10-10z"/><path id="XMLID_1355_" d="m66 236h30v-60h-30c-16.569 0-30 13.432-30 30 0 16.568 13.431 30 30 30z"/></g></g></g></svg>