<svg enable-background="new 0 0 512 512" height="512" viewBox="0 0 512 512" width="512" xmlns="http://www.w3.org/2000/svg"><g id="_x31_25_x2C__pub_x2C_m_file_type_x2C__file_format_x2C__file_extension_x2C__document"><g id="XMLID_1695_"><g id="XMLID_1696_"><path id="XMLID_1707_" d="m386 116c-5.523 0-10-4.477-10-10v-90h-220c-22.056 0-40 17.944-40 40v180h275c30.327 0 55 24.673 55 55v100c0 30.327-24.673 55-55 55h-275v10c0 22.056 17.944 40 40 40h280c22.056 0 40-17.944 40-40v-340zm-210-40h80c5.523 0 10 4.477 10 10s-4.477 10-10 10h-80c-5.523 0-10-4.477-10-10s4.477-10 10-10zm160 100h-160c-5.523 0-10-4.477-10-10s4.477-10 10-10h160c5.523 0 10 4.477 10 10s-4.477 10-10 10zm0-40h-160c-5.523 0-10-4.477-10-10s4.477-10 10-10h160c5.523 0 10 4.477 10 10s-4.477 10-10 10z"/><path id="XMLID_1401_" d="m396 21.857v74.143h74.143z"/><path id="XMLID_1400_" d="m131 306h-25v30h25c8.271 0 15-6.728 15-15s-6.729-15-15-15z"/><path id="XMLID_1399_" d="m346 316c0-5.514-4.486-10-10-10h-30v20h30c5.514 0 10-4.486 10-10z"/><path id="XMLID_1398_" d="m341 346h-5-30v30h35c8.272 0 15-6.728 15-15s-6.728-15-15-15z"/><path id="XMLID_1698_" d="m426 391v-100c0-19.299-15.701-35-35-35-348.053 0-325.346.022-326.546-.039-10.651-.326-20.477-3.986-28.454-9.988v125.694c0 29.959 24.374 54.333 54.334 54.333h300.666c19.299 0 35-15.701 35-35zm-295-35h-25v30c0 5.522-4.477 10-10 10s-10-4.478-10-10c0-39.299 0-48.72 0-90 0-5.522 4.477-10 10-10h35c19.299 0 35 15.701 35 35s-15.701 35-35 35zm135 0c0 22.056-17.944 40-40 40s-40-17.944-40-40v-60c0-5.522 4.477-10 10-10s10 4.478 10 10v60c0 11.028 8.972 20 20 20s20-8.972 20-20v-60c0-5.522 4.477-10 10-10s10 4.478 10 10zm75 40h-45c-5.522 0-10-4.478-10-10 0-33.032 0-56.368 0-90 0-5.522 4.478-10 10-10h40c16.542 0 30 13.458 30 30 0 6.042-1.802 11.669-4.887 16.382 8.994 6.341 14.887 16.801 14.887 28.618 0 19.299-15.701 35-35 35z"/><path id="XMLID_1393_" d="m66 236h30v-60h-30c-16.569 0-30 13.432-30 30 0 16.568 13.431 30 30 30z"/></g></g></g></svg>