<svg enable-background="new 0 0 512 512" height="512" viewBox="0 0 512 512" width="512" xmlns="http://www.w3.org/2000/svg"><g id="_x31_32_x2C__svg_x2C__file_type_x2C__file_format_x2C__file_extension_x2C__document"><g id="XMLID_1695_"><g id="XMLID_1696_"><path id="XMLID_1704_" d="m386 116c-5.523 0-10-4.477-10-10v-90h-220c-22.056 0-40 17.944-40 40v180h275c30.327 0 55 24.673 55 55v100c0 30.327-24.673 55-55 55h-275v10c0 22.056 17.944 40 40 40h280c22.056 0 40-17.944 40-40v-340zm-210-40h80c5.523 0 10 4.477 10 10s-4.477 10-10 10h-80c-5.523 0-10-4.477-10-10s4.477-10 10-10zm160 100h-160c-5.523 0-10-4.477-10-10s4.477-10 10-10h160c5.523 0 10 4.477 10 10s-4.477 10-10 10zm0-40h-160c-5.523 0-10-4.477-10-10s4.477-10 10-10h160c5.523 0 10 4.477 10 10s-4.477 10-10 10z"/><path id="XMLID_1479_" d="m396 21.857v74.143h74.143z"/><path id="XMLID_1698_" d="m426 391v-100c0-19.299-15.701-35-35-35-348.053 0-325.346.022-326.546-.039-10.651-.326-20.477-3.986-28.454-9.988v125.694c0 29.959 24.374 54.333 54.334 54.333h300.666c19.299 0 35-15.701 35-35zm-300-55h10c16.542 0 30 13.458 30 30s-13.458 30-30 30h-30c-5.523 0-10-4.478-10-10s4.477-10 10-10h30c5.514 0 10-4.486 10-10s-4.486-10-10-10h-10c-16.542 0-30-13.458-30-30s13.458-30 30-30h30c5.523 0 10 4.478 10 10s-4.477 10-10 10h-30c-5.514 0-10 4.486-10 10s4.486 10 10 10zm139.363-26.488-30 80c-1.464 3.902-5.194 6.488-9.363 6.488s-7.899-2.586-9.363-6.488l-30-80c-1.939-5.172.681-10.935 5.852-12.875 5.17-1.938 10.936.68 12.874 5.852l20.637 55.031 20.637-55.031c1.939-5.17 7.703-7.79 12.874-5.852 5.172 1.939 7.792 7.703 5.852 12.875zm60.637 86.488c-27.57 0-50-22.43-50-50s22.43-50 50-50c9.942 0 19.55 2.914 27.785 8.426 4.59 3.072 5.819 9.283 2.748 13.873-3.072 4.59-9.285 5.819-13.873 2.748-4.932-3.302-10.693-5.047-16.66-5.047-16.542 0-30 13.458-30 30s13.458 30 30 30c13.037 0 24.159-8.359 28.286-20h-23.842c-5.522 0-10-4.478-10-10s4.478-10 10-10h35.556c5.522 0 10 4.478 10 10 0 27.57-22.43 50-50 50z"/><path id="XMLID_1474_" d="m66 236h30v-60h-30c-16.569 0-30 13.432-30 30 0 16.568 13.431 30 30 30z"/></g></g></g></svg>