<svg enable-background="new 0 0 512 512" height="512" viewBox="0 0 512 512" width="512" xmlns="http://www.w3.org/2000/svg"><g id="_x31_44_x2C__docx_x2C__file_type_x2C__file_format_x2C__file_extension_x2C__document"><g id="XMLID_1695_"><g id="XMLID_1696_"><path id="XMLID_1707_" d="m386 116c-5.523 0-10-4.477-10-10v-90h-220c-22.056 0-40 17.944-40 40v180h275c30.327 0 55 24.673 55 55v100c0 30.327-24.673 55-55 55h-275v10c0 22.056 17.944 40 40 40h280c22.056 0 40-17.944 40-40v-340zm-210-40h80c5.523 0 10 4.477 10 10s-4.477 10-10 10h-80c-5.523 0-10-4.477-10-10s4.477-10 10-10zm160 100h-160c-5.523 0-10-4.477-10-10s4.477-10 10-10h160c5.523 0 10 4.477 10 10s-4.477 10-10 10zm0-40h-160c-5.523 0-10-4.477-10-10s4.477-10 10-10h160c5.523 0 10 4.477 10 10s-4.477 10-10 10z"/><path id="XMLID_1611_" d="m396 21.857v74.143h74.143z"/><path id="XMLID_1610_" d="m201 306c-8.271 0-15 6.728-15 15v40c0 8.272 6.729 15 15 15s15-6.728 15-15v-40c0-8.272-6.729-15-15-15z"/><path id="XMLID_1609_" d="m101 306h-5v70h5c19.299 0 35-15.701 35-35s-15.701-35-35-35z"/><path id="XMLID_1698_" d="m426 391v-100c0-19.299-15.701-35-35-35-348.053 0-325.346.022-326.546-.039-10.651-.326-20.477-3.986-28.454-9.988v125.694c0 29.959 24.374 54.333 54.334 54.333h300.666c19.299 0 35-15.701 35-35zm-325 5h-15c-5.523 0-10-4.478-10-10v-90c0-5.522 4.477-10 10-10h15c30.327 0 55 24.673 55 55s-24.673 55-55 55zm135-35c0 19.299-15.701 35-35 35s-35-15.701-35-35v-40c0-19.299 15.701-35 35-35s35 15.701 35 35zm65 15c5.522 0 10 4.478 10 10s-4.478 10-10 10c-30.327 0-55-24.673-55-55s24.673-55 55-55c5.522 0 10 4.478 10 10s-4.478 10-10 10c-19.299 0-35 15.701-35 35s15.701 35 35 35zm84.138 5.939c2.243 5.047-.029 10.957-5.076 13.199-5.089 2.262-10.975-.071-13.199-5.076l-10.863-24.441-10.862 24.44c-1.656 3.727-5.313 5.941-9.144 5.941-7.165 0-12.088-7.412-9.132-14.064l18.195-40.938-18.195-40.939c-2.243-5.047.029-10.957 5.076-13.199 5.052-2.244 10.957.031 13.199 5.076l10.863 24.441 10.862-24.44c2.242-5.046 8.148-7.32 13.199-5.076 5.047 2.242 7.319 8.152 5.076 13.199l-18.194 40.938z"/><path id="XMLID_1603_" d="m66 236h30v-60h-30c-16.569 0-30 13.432-30 30 0 16.568 13.431 30 30 30z"/></g></g></g></svg>