<svg enable-background="new 0 0 512 512" height="512" viewBox="0 0 512 512" width="512" xmlns="http://www.w3.org/2000/svg"><g id="_x31_46_x2C__xml_x2C__file_type_x2C__file_format_x2C__file_extension_x2C__document"><g id="XMLID_1695_"><g id="XMLID_1696_"><path id="XMLID_1704_" d="m386 116c-5.523 0-10-4.477-10-10v-90h-220c-22.056 0-40 17.944-40 40v180h275c30.327 0 55 24.673 55 55v100c0 30.327-24.673 55-55 55h-275v10c0 22.056 17.944 40 40 40h280c22.056 0 40-17.944 40-40v-340zm-210-40h80c5.523 0 10 4.477 10 10s-4.477 10-10 10h-80c-5.523 0-10-4.477-10-10s4.477-10 10-10zm160 100h-160c-5.523 0-10-4.477-10-10s4.477-10 10-10h160c5.523 0 10 4.477 10 10s-4.477 10-10 10zm0-40h-160c-5.523 0-10-4.477-10-10s4.477-10 10-10h160c5.523 0 10 4.477 10 10s-4.477 10-10 10z"/><path id="XMLID_1631_" d="m396 21.857v74.143h74.143z"/><path id="XMLID_1698_" d="m426 391v-100c0-19.299-15.701-35-35-35-348.053 0-325.346.022-326.546-.039-10.651-.326-20.477-3.986-28.454-9.988v125.694c0 29.959 24.374 54.333 54.334 54.333h300.666c19.299 0 35-15.701 35-35zm-251.52-20.3c2.927 4.684 1.503 10.853-3.18 13.78-4.674 2.919-10.846 1.513-13.78-3.181l-16.52-26.431-16.52 26.432c-1.897 3.035-5.156 4.701-8.489 4.701-7.768 0-12.655-8.606-8.471-15.301l21.688-34.7-21.688-34.7c-2.927-4.684-1.503-10.853 3.18-13.78 4.682-2.926 10.852-1.503 13.78 3.181l16.52 26.431 16.52-26.432c2.927-4.685 9.097-6.106 13.78-3.181 4.684 2.928 6.107 9.097 3.18 13.78l-21.688 34.701zm121.52 5.3c0 5.522-4.478 10-10 10s-10-4.478-10-10v-51.492l-22.191 27.739c-3.999 4.999-11.616 5.002-15.617 0l-22.192-27.739v51.492c0 5.522-4.477 10-10 10s-10-4.478-10-10v-80c0-4.247 2.683-8.03 6.69-9.436 4.006-1.404 8.465-.127 11.119 3.189l32.191 40.239 32.191-40.239c2.652-3.317 7.11-4.593 11.119-3.189 4.007 1.406 6.69 5.189 6.69 9.436zm60 10h-30c-5.522 0-10-4.478-10-10v-80c0-5.522 4.478-10 10-10s10 4.478 10 10v70h20c5.522 0 10 4.478 10 10s-4.478 10-10 10z"/><path id="XMLID_1626_" d="m66 236h30v-60h-30c-16.569 0-30 13.432-30 30 0 16.568 13.431 30 30 30z"/></g></g></g></svg>