<svg enable-background="new 0 0 512 512" height="512" viewBox="0 0 512 512" width="512" xmlns="http://www.w3.org/2000/svg"><g id="_x31_47_x2C__xlsx_x2C__file_type_x2C__file_format_x2C__file_extension_x2C__document"><g id="XMLID_1695_"><g id="XMLID_1696_"><path id="XMLID_1705_" d="m386 116c-5.523 0-10-4.477-10-10v-90h-220c-22.056 0-40 17.944-40 40v180h275c30.327 0 55 24.673 55 55v100c0 30.327-24.673 55-55 55h-275v10c0 22.056 17.944 40 40 40h280c22.056 0 40-17.944 40-40v-340zm-210-40h80c5.523 0 10 4.477 10 10s-4.477 10-10 10h-80c-5.523 0-10-4.477-10-10s4.477-10 10-10zm160 100h-160c-5.523 0-10-4.477-10-10s4.477-10 10-10h160c5.523 0 10 4.477 10 10s-4.477 10-10 10zm0-40h-160c-5.523 0-10-4.477-10-10s4.477-10 10-10h160c5.523 0 10 4.477 10 10s-4.477 10-10 10z"/><path id="XMLID_1642_" d="m396 21.857v74.143h74.143z"/><path id="XMLID_1698_" d="m426 391v-100c0-19.299-15.701-35-35-35-348.053 0-325.346.022-326.546-.039-10.651-.326-20.477-3.986-28.454-9.988v125.694c0 29.959 24.374 54.333 54.334 54.333h300.666c19.299 0 35-15.701 35-35zm-281.52-20.3c2.927 4.684 1.503 10.853-3.18 13.78-4.674 2.919-10.846 1.513-13.78-3.181l-16.52-26.431-16.52 26.432c-1.897 3.035-5.156 4.701-8.489 4.701-7.768 0-12.655-8.606-8.471-15.301l21.688-34.7-21.688-34.7c-2.927-4.684-1.503-10.853 3.18-13.78 4.682-2.926 10.852-1.503 13.78 3.181l16.52 26.431 16.52-26.432c2.927-4.685 9.097-6.106 13.78-3.181 4.684 2.928 6.107 9.097 3.18 13.78l-21.688 34.701zm61.52 15.3h-30c-5.523 0-10-4.478-10-10v-80c0-5.522 4.477-10 10-10s10 4.478 10 10v70h20c5.523 0 10 4.478 10 10s-4.477 10-10 10zm80-60c5.522 0 10 4.478 10 10v40c0 5.522-4.478 10-10 10h-40c-5.523 0-10-4.478-10-10s4.477-10 10-10h30v-20h-30c-5.523 0-10-4.478-10-10v-40c0-5.522 4.477-10 10-10h40c5.522 0 10 4.478 10 10s-4.478 10-10 10h-30v20zm98.48 44.7c2.927 4.684 1.503 10.853-3.181 13.78-4.665 2.915-10.841 1.52-13.78-3.181l-16.519-26.431-16.52 26.432c-1.897 3.035-5.156 4.701-8.49 4.701-7.767 0-12.654-8.606-8.471-15.301l21.688-34.7-21.688-34.7c-2.927-4.684-1.503-10.853 3.181-13.78 4.684-2.925 10.853-1.502 13.78 3.181l16.52 26.431 16.52-26.431c2.928-4.682 9.095-6.105 13.78-3.181 4.684 2.928 6.107 9.097 3.181 13.78l-21.688 34.7z"/><path id="XMLID_1636_" d="m66 236h30v-60h-30c-16.569 0-30 13.432-30 30 0 16.568 13.431 30 30 30z"/></g></g></g></svg>