<svg enable-background="new 0 0 512 512" height="512" viewBox="0 0 512 512" width="512" xmlns="http://www.w3.org/2000/svg"><g id="_x31_6_x2C__vob_x2C__file_type_x2C__file_format_x2C__file_extension_x2C__document"><g id="XMLID_1695_"><g id="XMLID_1696_"><path id="XMLID_1707_" d="m386 116c-5.523 0-10-4.477-10-10v-90h-220c-22.056 0-40 17.944-40 40v180h275c30.327 0 55 24.673 55 55v100c0 30.327-24.673 55-55 55h-275v10c0 22.056 17.944 40 40 40h280c22.056 0 40-17.944 40-40v-340zm-210-40h80c5.523 0 10 4.477 10 10s-4.477 10-10 10h-80c-5.523 0-10-4.477-10-10s4.477-10 10-10zm160 100h-160c-5.523 0-10-4.477-10-10s4.477-10 10-10h160c5.523 0 10 4.477 10 10s-4.477 10-10 10zm0-40h-160c-5.523 0-10-4.477-10-10s4.477-10 10-10h160c5.523 0 10 4.477 10 10s-4.477 10-10 10z"/><path id="XMLID_179_" d="m396 21.857v74.143h74.143z"/><path id="XMLID_178_" d="m236 306c-11.028 0-20 8.972-20 20v30c0 11.028 8.972 20 20 20s20-8.972 20-20v-30c0-11.028-8.972-20-20-20z"/><path id="XMLID_177_" d="m356 316c0-5.514-4.486-10-10-10h-30v20h30c5.514 0 10-4.486 10-10z"/><path id="XMLID_1699_" d="m426 391v-100c0-19.299-15.701-35-35-35-348.053 0-325.346.022-326.546-.039-10.651-.326-20.477-3.986-28.454-9.988v125.694c0 29.959 24.374 54.333 54.334 54.333h300.666c19.299 0 35-15.701 35-35zm-240.862-90.939-40 90c-3.513 7.904-14.765 7.902-18.276 0l-40-90c-2.243-5.047.03-10.957 5.077-13.199 5.047-2.245 10.957.03 13.2 5.076l30.861 69.44 30.862-69.439c2.243-5.048 8.152-7.32 13.2-5.076 5.046 2.241 7.319 8.152 5.076 13.198zm90.862 55.939c0 22.056-17.944 40-40 40s-40-17.944-40-40v-30c0-22.056 17.944-40 40-40s40 17.944 40 40zm75 40h-45c-5.522 0-10-4.478-10-10 0-33.032 0-56.368 0-90 0-5.522 4.478-10 10-10h40c16.542 0 30 13.458 30 30 0 6.042-1.802 11.669-4.887 16.382 8.994 6.341 14.887 16.801 14.887 28.618 0 19.299-15.701 35-35 35z"/><path id="XMLID_172_" d="m351 346h-5-30v30h35c8.272 0 15-6.728 15-15s-6.728-15-15-15z"/><path id="XMLID_171_" d="m66 236h30v-60h-30c-16.569 0-30 13.432-30 30 0 16.568 13.431 30 30 30z"/></g></g></g></svg>