<svg enable-background="new 0 0 512 512" height="512" viewBox="0 0 512 512" width="512" xmlns="http://www.w3.org/2000/svg"><g id="_x32_6_x2C__wpd_x2C__file_type_x2C__file_format_x2C__file_extension_x2C__document"><g id="XMLID_1695_"><g id="XMLID_1696_"><path id="XMLID_1706_" d="m386 116c-5.523 0-10-4.477-10-10v-90h-220c-22.056 0-40 17.944-40 40v180h275c30.327 0 55 24.673 55 55v100c0 30.327-24.673 55-55 55h-275v10c0 22.056 17.944 40 40 40h280c22.056 0 40-17.944 40-40v-340zm-210-40h80c5.523 0 10 4.477 10 10s-4.477 10-10 10h-80c-5.523 0-10-4.477-10-10s4.477-10 10-10zm160 100h-160c-5.523 0-10-4.477-10-10s4.477-10 10-10h160c5.523 0 10 4.477 10 10s-4.477 10-10 10zm0-40h-160c-5.523 0-10-4.477-10-10s4.477-10 10-10h160c5.523 0 10 4.477 10 10s-4.477 10-10 10z"/><path id="XMLID_294_" d="m396 21.857v74.143h74.143z"/><path id="XMLID_293_" d="m261 306h-25v30h25c8.271 0 15-6.728 15-15s-6.729-15-15-15z"/><path id="XMLID_292_" d="m336 306.356v69.287c16.94-2.434 30-17.042 30-34.644s-13.06-32.209-30-34.643z"/><path id="XMLID_1698_" d="m426 391v-100c0-19.299-15.701-35-35-35-348.053 0-325.346.022-326.546-.039-10.651-.326-20.477-3.986-28.454-9.988v125.694c0 29.959 24.374 54.333 54.334 54.333h300.666c19.299 0 35-15.701 35-35zm-230-5c0 4.045-2.436 7.691-6.173 9.239-3.73 1.543-8.032.698-10.898-2.168l-32.929-32.928-32.929 32.929c-6.275 6.276-17.071 1.831-17.071-7.072v-90c0-5.522 4.477-10 10-10s10 4.478 10 10v65.857l22.929-22.929c3.905-3.904 10.237-3.904 14.143 0l22.928 22.929v-65.857c0-5.522 4.477-10 10-10s10 4.478 10 10zm65-30h-25v30c0 5.522-4.477 10-10 10s-10-4.478-10-10c0-39.299 0-48.72 0-90 0-5.522 4.477-10 10-10h35c19.299 0 35 15.701 35 35s-15.701 35-35 35zm70 40h-5c-5.522 0-10-4.478-10-10v-90c0-5.522 4.478-10 10-10h5c30.327 0 55 24.673 55 55s-24.673 55-55 55z"/><path id="XMLID_287_" d="m66 236h30v-60h-30c-16.569 0-30 13.432-30 30 0 16.568 13.431 30 30 30z"/></g></g></g></svg>