<svg enable-background="new 0 0 512 512" height="512" viewBox="0 0 512 512" width="512" xmlns="http://www.w3.org/2000/svg"><g id="_x34_1._m4v_x2C__file_type_x2C__file_format_x2C__file_extension_x2C__document"><g id="XMLID_1695_"><g id="XMLID_1696_"><path id="XMLID_1704_" d="m386 116c-5.523 0-10-4.477-10-10v-90h-220c-22.056 0-40 17.944-40 40v180h275c30.327 0 55 24.673 55 55v100c0 30.327-24.673 55-55 55h-275v10c0 22.056 17.944 40 40 40h280c22.056 0 40-17.944 40-40v-340zm-210-40h80c5.523 0 10 4.477 10 10s-4.477 10-10 10h-80c-5.523 0-10-4.477-10-10s4.477-10 10-10zm160 100h-160c-5.523 0-10-4.477-10-10s4.477-10 10-10h160c5.523 0 10 4.477 10 10s-4.477 10-10 10zm0-40h-160c-5.523 0-10-4.477-10-10s4.477-10 10-10h160c5.523 0 10 4.477 10 10s-4.477 10-10 10z"/><path id="XMLID_456_" d="m396 21.857v74.143h74.143z"/><path id="XMLID_1698_" d="m426 391v-100c0-19.299-15.701-35-35-35-348.053 0-325.346.022-326.546-.039-10.651-.326-20.477-3.986-28.454-9.988v125.694c0 29.959 24.374 54.333 54.334 54.333h300.666c19.299 0 35-15.701 35-35zm-250-5c0 5.522-4.477 10-10 10s-10-4.478-10-10v-65.857l-22.929 22.929c-3.905 3.904-10.237 3.904-14.143 0l-22.928-22.929v65.857c0 5.522-4.477 10-10 10s-10-4.478-10-10v-90c0-4.045 2.437-7.691 6.173-9.239 3.737-1.547 8.038-.692 10.898 2.168l32.929 32.928 32.929-32.929c6.275-6.276 17.071-1.831 17.071 7.072zm100-20h-10v20c0 5.522-4.477 10-10 10s-10-4.478-10-10v-20h-40c-3.466 0-6.685-1.795-8.506-4.743-1.822-2.947-1.988-6.629-.438-9.729l30-60c2.469-4.941 8.477-6.942 13.417-4.473 4.94 2.47 6.942 8.477 4.472 13.416l-22.765 45.529h23.82v-10c0-5.522 4.477-10 10-10s10 4.478 10 10v10h10c5.522 0 10 4.478 10 10s-4.478 10-10 10zm109.138-65.939-40 90c-3.512 7.904-14.765 7.902-18.275 0l-40-90c-2.243-5.047.029-10.957 5.076-13.199 5.051-2.244 10.957.031 13.199 5.076l30.862 69.44 30.862-69.439c2.242-5.046 8.148-7.32 13.199-5.076 5.047 2.241 7.32 8.152 5.077 13.198z"/><path id="XMLID_451_" d="m66 236h30v-60h-30c-16.569 0-30 13.432-30 30 0 16.568 13.431 30 30 30z"/></g></g></g></svg>