<svg enable-background="new 0 0 512 512" height="512" viewBox="0 0 512 512" width="512" xmlns="http://www.w3.org/2000/svg"><g id="_x36_5_x2C__lua_x2C__file_type_x2C__file_format_x2C__file_extension_x2C__document"><g id="XMLID_1695_"><g id="XMLID_1696_"><path id="XMLID_1705_" d="m386 116c-5.523 0-10-4.477-10-10v-90h-220c-22.056 0-40 17.944-40 40v180h275c30.327 0 55 24.673 55 55v100c0 30.327-24.673 55-55 55h-275v10c0 22.056 17.944 40 40 40h280c22.056 0 40-17.944 40-40v-340zm-210-40h80c5.523 0 10 4.477 10 10s-4.477 10-10 10h-80c-5.523 0-10-4.477-10-10s4.477-10 10-10zm160 100h-160c-5.523 0-10-4.477-10-10s4.477-10 10-10h160c5.523 0 10 4.477 10 10s-4.477 10-10 10zm0-40h-160c-5.523 0-10-4.477-10-10s4.477-10 10-10h160c5.523 0 10 4.477 10 10s-4.477 10-10 10z"/><path id="XMLID_725_" d="m396 21.857v74.143h74.143z"/><path id="XMLID_724_" d="m326 306c-11.028 0-20 8.972-20 20v20h40v-20c0-11.028-8.972-20-20-20z"/><path id="XMLID_1698_" d="m426 391v-100c0-19.299-15.701-35-35-35-348.053 0-325.346.022-326.546-.039-10.651-.326-20.477-3.986-28.454-9.988v125.694c0 29.959 24.374 54.333 54.334 54.333h300.666c19.299 0 35-15.701 35-35zm-260 5h-50c-5.523 0-10-4.478-10-10v-90c0-5.522 4.477-10 10-10s10 4.478 10 10v80h40c5.523 0 10 4.478 10 10s-4.477 10-10 10zm100-40c0 22.056-17.944 40-40 40s-40-17.944-40-40v-60c0-5.522 4.477-10 10-10s10 4.478 10 10v60c0 11.028 8.972 20 20 20s20-8.972 20-20v-60c0-5.522 4.477-10 10-10s10 4.478 10 10zm100 30c0 5.522-4.478 10-10 10s-10-4.478-10-10v-20h-40v20c0 5.522-4.478 10-10 10s-10-4.478-10-10v-60c0-22.056 17.944-40 40-40s40 17.944 40 40z"/><path id="XMLID_719_" d="m66 236h30v-60h-30c-16.569 0-30 13.432-30 30 0 16.568 13.431 30 30 30z"/></g></g></g></svg>