<svg enable-background="new 0 0 512 512" height="512" viewBox="0 0 512 512" width="512" xmlns="http://www.w3.org/2000/svg"><g id="_x37_2_x2C__swf_x2C__file_type_x2C__file_format_x2C__file_extension_x2C__document"><g id="XMLID_1695_"><g id="XMLID_1696_"><path id="XMLID_1704_" d="m386 116c-5.523 0-10-4.477-10-10v-90h-220c-22.056 0-40 17.944-40 40v180h275c30.327 0 55 24.673 55 55v100c0 30.327-24.673 55-55 55h-275v10c0 22.056 17.944 40 40 40h280c22.056 0 40-17.944 40-40v-340zm-210-40h80c5.523 0 10 4.477 10 10s-4.477 10-10 10h-80c-5.523 0-10-4.477-10-10s4.477-10 10-10zm160 100h-160c-5.523 0-10-4.477-10-10s4.477-10 10-10h160c5.523 0 10 4.477 10 10s-4.477 10-10 10zm0-40h-160c-5.523 0-10-4.477-10-10s4.477-10 10-10h160c5.523 0 10 4.477 10 10s-4.477 10-10 10z"/><path id="XMLID_803_" d="m396 21.857v74.143h74.143z"/><path id="XMLID_1698_" d="m426 391v-100c0-19.299-15.701-35-35-35-348.053 0-325.346.022-326.546-.039-10.651-.326-20.477-3.986-28.454-9.988v125.694c0 29.959 24.374 54.333 54.334 54.333h300.666c19.299 0 35-15.701 35-35zm-297.5-60h7.5c17.92 0 32.5 14.579 32.5 32.5s-14.58 32.5-32.5 32.5h-30c-5.523 0-10-4.478-10-10s4.477-10 10-10h30c6.893 0 12.5-5.607 12.5-12.5s-5.607-12.5-12.5-12.5h-7.5c-17.92 0-32.5-14.579-32.5-32.5s14.58-32.5 32.5-32.5h30c5.523 0 10 4.478 10 10s-4.477 10-10 10h-30c-6.893 0-12.5 5.607-12.5 12.5s5.607 12.5 12.5 12.5zm157.5 55c0 4.045-2.436 7.691-6.173 9.239-3.738 1.546-8.037.692-10.898-2.168l-32.929-32.928-32.929 32.929c-2.859 2.86-7.161 3.714-10.898 2.168-3.737-1.549-6.173-5.195-6.173-9.24v-90c0-5.522 4.477-10 10-10s10 4.478 10 10v65.857l22.929-22.929c3.905-3.904 10.237-3.904 14.143 0l22.928 22.929v-65.857c0-5.522 4.477-10 10-10 5.522 0 10 4.478 10 10zm80-80h-40v20h30c5.522 0 10 4.478 10 10s-4.478 10-10 10h-30v40c0 5.522-4.478 10-10 10s-10-4.478-10-10v-90c0-5.522 4.478-10 10-10h50c5.522 0 10 4.478 10 10s-4.478 10-10 10z"/><path id="XMLID_798_" d="m66 236h30v-60h-30c-16.569 0-30 13.432-30 30 0 16.568 13.431 30 30 30z"/></g></g></g></svg>