<svg enable-background="new 0 0 512 512" height="512" viewBox="0 0 512 512" width="512" xmlns="http://www.w3.org/2000/svg"><g id="_x37_3_x2C__wma_x2C__file_type_x2C__file_format_x2C__file_extension_x2C__document"><g id="XMLID_1695_"><g id="XMLID_1696_"><path id="XMLID_1705_" d="m386 116c-5.523 0-10-4.477-10-10v-90h-220c-22.056 0-40 17.944-40 40v180h275c30.327 0 55 24.673 55 55v100c0 30.327-24.673 55-55 55h-275v10c0 22.056 17.944 40 40 40h280c22.056 0 40-17.944 40-40v-340zm-210-40h80c5.523 0 10 4.477 10 10s-4.477 10-10 10h-80c-5.523 0-10-4.477-10-10s4.477-10 10-10zm160 100h-160c-5.523 0-10-4.477-10-10s4.477-10 10-10h160c5.523 0 10 4.477 10 10s-4.477 10-10 10zm0-40h-160c-5.523 0-10-4.477-10-10s4.477-10 10-10h160c5.523 0 10 4.477 10 10s-4.477 10-10 10z"/><path id="XMLID_814_" d="m396 21.857v74.143h74.143z"/><path id="XMLID_1699_" d="m426 391v-100c0-19.299-15.701-35-35-35-348.053 0-325.346.022-326.546-.039-10.651-.326-20.477-3.986-28.454-9.988v125.694c0 29.959 24.374 54.333 54.334 54.333h300.666c19.299 0 35-15.701 35-35zm-250-5c0 4.305-2.754 8.126-6.838 9.487-4.119 1.37-8.598-.07-11.162-3.487l-22-29.333-22 29.333c-2.583 3.444-7.081 4.846-11.162 3.487-4.084-1.361-6.838-5.182-6.838-9.487v-90c0-5.522 4.477-10 10-10s10 4.478 10 10v60l12-16c4.001-5.335 12.007-5.324 16 0l12 16v-60c0-5.522 4.477-10 10-10s10 4.478 10 10zm100 0c0 5.522-4.477 10-10 10s-10-4.478-10-10v-60l-12 16c-4.001 5.335-12.007 5.324-16 0l-12-16v60c0 5.522-4.477 10-10 10s-10-4.478-10-10v-90c0-4.305 2.754-8.126 6.838-9.487 4.082-1.357 8.58.044 11.162 3.487l22 29.333 22-29.333c2.582-3.443 7.08-4.845 11.162-3.487 4.084 1.361 6.838 5.183 6.838 9.487zm100 0c0 5.522-4.478 10-10 10s-10-4.478-10-10v-20h-40v20c0 5.522-4.478 10-10 10s-10-4.478-10-10v-60c0-22.056 17.944-40 40-40s40 17.944 40 40z"/><path id="XMLID_809_" d="m336 306c-11.028 0-20 8.972-20 20v20h40v-20c0-11.028-8.972-20-20-20z"/><path id="XMLID_808_" d="m66 236h30v-60h-30c-16.569 0-30 13.432-30 30 0 16.568 13.431 30 30 30z"/></g></g></g></svg>