<svg enable-background="new 0 0 512 512" height="512" viewBox="0 0 512 512" width="512" xmlns="http://www.w3.org/2000/svg"><g id="_x38_2_x2C__gpx_x2C__file_type_x2C__file_format_x2C__file_extension_x2C__document"><g id="XMLID_1695_"><g id="XMLID_1696_"><path id="XMLID_1705_" d="m386 116c-5.523 0-10-4.477-10-10v-90h-220c-22.056 0-40 17.944-40 40v180h275c30.327 0 55 24.673 55 55v100c0 30.327-24.673 55-55 55h-275v10c0 22.056 17.944 40 40 40h280c22.056 0 40-17.944 40-40v-340zm-210-40h80c5.523 0 10 4.477 10 10s-4.477 10-10 10h-80c-5.523 0-10-4.477-10-10s4.477-10 10-10zm160 100h-160c-5.523 0-10-4.477-10-10s4.477-10 10-10h160c5.523 0 10 4.477 10 10s-4.477 10-10 10zm0-40h-160c-5.523 0-10-4.477-10-10s4.477-10 10-10h160c5.523 0 10 4.477 10 10s-4.477 10-10 10z"/><path id="XMLID_913_" d="m396 21.857v74.143h74.143z"/><path id="XMLID_912_" d="m261 306h-25v30h25c8.271 0 15-6.728 15-15s-6.729-15-15-15z"/><path id="XMLID_1698_" d="m426 391v-100c0-19.299-15.701-35-35-35-348.053 0-325.346.022-326.546-.039-10.651-.326-20.477-3.986-28.454-9.988v125.694c0 29.959 24.374 54.333 54.334 54.333h300.666c19.299 0 35-15.701 35-35zm-285 5c-30.327 0-55-24.673-55-55s24.673-55 55-55c10.938 0 21.506 3.205 30.563 9.269 4.589 3.072 5.819 9.283 2.747 13.873s-9.284 5.817-13.873 2.746c-5.753-3.852-12.475-5.888-19.437-5.888-19.299 0-35 15.701-35 35s15.701 35 35 35c15.825 0 29.231-10.559 33.545-25h-28.545c-5.523 0-10-4.478-10-10s4.477-10 10-10h40c5.523 0 10 4.478 10 10 0 30.327-24.673 55-55 55zm120-40h-25v30c0 5.522-4.477 10-10 10s-10-4.478-10-10c0-39.299 0-48.72 0-90 0-5.522 4.477-10 10-10h35c19.299 0 35 15.701 35 35s-15.701 35-35 35zm113.741 25.144c2.683 4.828.943 10.916-3.885 13.598-4.827 2.682-10.915.945-13.598-3.885l-16.258-29.266-16.259 29.266c-1.827 3.29-5.236 5.146-8.75 5.146-7.543 0-12.456-8.158-8.732-14.858l22.302-40.145-22.302-40.144c-2.683-4.828-.943-10.916 3.885-13.598 4.825-2.682 10.915-.944 13.598 3.885l16.258 29.266 16.259-29.266c2.683-4.829 8.772-6.566 13.598-3.885 4.828 2.682 6.567 8.77 3.885 13.598l-22.303 40.144z"/><path id="XMLID_907_" d="m66 236h30v-60h-30c-16.569 0-30 13.432-30 30 0 16.568 13.431 30 30 30z"/></g></g></g></svg>