<svg enable-background="new 0 0 512 512" height="512" viewBox="0 0 512 512" width="512" xmlns="http://www.w3.org/2000/svg"><g id="_x39_4_x2C__sav_x2C__file_type_x2C__file_format_x2C__file_extension_x2C__document"><g id="XMLID_1695_"><g id="XMLID_1696_"><path id="XMLID_1705_" d="m386 116c-5.523 0-10-4.477-10-10v-90h-220c-22.056 0-40 17.944-40 40v180h275c30.327 0 55 24.673 55 55v100c0 30.327-24.673 55-55 55h-275v10c0 22.056 17.944 40 40 40h280c22.056 0 40-17.944 40-40v-340zm-210-40h80c5.523 0 10 4.477 10 10s-4.477 10-10 10h-80c-5.523 0-10-4.477-10-10s4.477-10 10-10zm160 100h-160c-5.523 0-10-4.477-10-10s4.477-10 10-10h160c5.523 0 10 4.477 10 10s-4.477 10-10 10zm0-40h-160c-5.523 0-10-4.477-10-10s4.477-10 10-10h160c5.523 0 10 4.477 10 10s-4.477 10-10 10z"/><path id="XMLID_1048_" d="m396 21.857v74.143h74.143z"/><path id="XMLID_1047_" d="m232.25 306c-11.028 0-20 8.972-20 20v20h40v-20c0-11.028-8.972-20-20-20z"/><path id="XMLID_1698_" d="m426 391v-100c0-19.299-15.701-35-35-35-348.053 0-325.346.022-326.546-.039-10.651-.326-20.477-3.986-28.454-9.988v125.694c0 29.959 24.374 54.333 54.334 54.333h300.666c19.299 0 35-15.701 35-35zm-297.5-60h15c17.92 0 32.5 14.579 32.5 32.5s-14.58 32.5-32.5 32.5h-37.5c-5.523 0-10-4.478-10-10s4.477-10 10-10h37.5c6.893 0 12.5-5.607 12.5-12.5s-5.607-12.5-12.5-12.5h-15c-17.92 0-32.5-14.579-32.5-32.5s14.58-32.5 32.5-32.5h37.5c5.523 0 10 4.478 10 10s-4.477 10-10 10h-37.5c-6.893 0-12.5 5.607-12.5 12.5s5.607 12.5 12.5 12.5zm143.75 55c0 5.522-4.477 10-10 10s-10-4.478-10-10v-20h-40v20c0 5.522-4.477 10-10 10s-10-4.478-10-10v-60c0-22.056 17.944-40 40-40s40 17.944 40 40zm112.888-85.939-40 90c-3.512 7.904-14.765 7.902-18.275 0l-40-90c-2.243-5.047.029-10.957 5.076-13.199 5.051-2.244 10.957.031 13.199 5.076l30.862 69.44 30.862-69.439c2.242-5.046 8.148-7.32 13.199-5.076 5.047 2.241 7.32 8.152 5.077 13.198z"/><path id="XMLID_1042_" d="m66 236h30v-60h-30c-16.569 0-30 13.432-30 30 0 16.568 13.431 30 30 30z"/></g></g></g></svg>