<svg enable-background="new 0 0 512 512" height="512" viewBox="0 0 512 512" width="512" xmlns="http://www.w3.org/2000/svg"><g id="_x39_8_x2C__7z_x2C__file_type_x2C__file_format_x2C__file_extension_x2C__document"><g id="XMLID_1695_"><g id="XMLID_1696_"><path id="XMLID_1703_" d="m386 116c-5.523 0-10-4.477-10-10v-90h-220c-22.056 0-40 17.944-40 40v180h275c30.327 0 55 24.673 55 55v100c0 30.327-24.673 55-55 55h-275v10c0 22.056 17.944 40 40 40h280c22.056 0 40-17.944 40-40v-340zm-210-40h80c5.523 0 10 4.477 10 10s-4.477 10-10 10h-80c-5.523 0-10-4.477-10-10s4.477-10 10-10zm160 100h-160c-5.523 0-10-4.477-10-10s4.477-10 10-10h160c5.523 0 10 4.477 10 10s-4.477 10-10 10zm0-40h-160c-5.523 0-10-4.477-10-10s4.477-10 10-10h160c5.523 0 10 4.477 10 10s-4.477 10-10 10z"/><path id="XMLID_1091_" d="m396 21.857v74.143h74.143z"/><path id="XMLID_1698_" d="m426 391v-100c0-19.299-15.701-35-35-35-348.053 0-325.346.022-326.546-.039-10.651-.326-20.477-3.986-28.454-9.988v125.694c0 29.959 24.374 54.333 54.334 54.333h300.666c19.299 0 35-15.701 35-35zm-200.513-91.838-30 90c-1.746 5.239-7.41 8.072-12.649 6.325-5.24-1.747-8.071-7.41-6.325-12.649l25.613-76.838h-46.126c-5.523 0-10-4.478-10-10s4.477-10 10-10h60c3.214 0 6.233 1.545 8.112 4.153 1.88 2.608 2.391 5.959 1.375 9.009zm90.513 96.838h-60c-7.968 0-12.749-8.905-8.32-15.547l49.635-74.453h-41.315c-5.523 0-10-4.478-10-10s4.477-10 10-10h60c7.968 0 12.748 8.906 8.32 15.547l-49.635 74.453h41.315c5.522 0 10 4.478 10 10s-4.478 10-10 10z"/><path id="XMLID_1087_" d="m66 236h30v-60h-30c-16.569 0-30 13.432-30 30 0 16.568 13.431 30 30 30z"/></g></g></g></svg>